<?xml version="1.0" encoding="UTF-8" standalone="no"?>
<!DOCTYPE svg PUBLIC "-//W3C//DTD SVG 1.1//EN"
 "http://www.w3.org/Graphics/SVG/1.1/DTD/svg11.dtd">
<!-- Generated by graphviz version 2.38.0 (20140413.2041)
 -->
<!-- Title: %3 Pages: 1 -->
<svg width="880pt" height="1580pt"
 viewBox="0.00 0.00 880.00 1580.00" xmlns="http://www.w3.org/2000/svg" xmlns:xlink="http://www.w3.org/1999/xlink">
<g id="graph0" class="graph" transform="scale(1 1) rotate(0) translate(-10 1590)">
<title>%3</title>
<polygon fill="white" stroke="none" points="10,-10 10,-1590 890,-1590 890,-10 10,-10"/>
<!-- 1 -->
<g id="node1" class="node"><title>1</title>
<ellipse fill="none" stroke="red" cx="250" cy="-1575" rx="11" ry="11"/>
<text text-anchor="middle" x="250" y="-1572.6" font-family="Times,serif" font-size="8.00">1</text>
</g>
<!-- 2 -->
<g id="node2" class="node"><title>2</title>
<ellipse fill="none" stroke="black" cx="225" cy="-475" rx="11" ry="11"/>
<text text-anchor="middle" x="225" y="-472.6" font-family="Times,serif" font-size="8.00">2</text>
</g>
<!-- 3 -->
<g id="node3" class="node"><title>3</title>
<ellipse fill="none" stroke="black" cx="875" cy="-225" rx="11" ry="11"/>
<text text-anchor="middle" x="875" y="-222.6" font-family="Times,serif" font-size="8.00">3</text>
</g>
<!-- 4 -->
<g id="node4" class="node"><title>4</title>
<ellipse fill="none" stroke="black" cx="25" cy="-450" rx="11" ry="11"/>
<text text-anchor="middle" x="25" y="-447.6" font-family="Times,serif" font-size="8.00">4</text>
</g>
<!-- 5 -->
<g id="node5" class="node"><title>5</title>
<ellipse fill="none" stroke="black" cx="525" cy="-875" rx="11" ry="11"/>
<text text-anchor="middle" x="525" y="-872.6" font-family="Times,serif" font-size="8.00">5</text>
</g>
<!-- 6 -->
<g id="node6" class="node"><title>6</title>
<ellipse fill="none" stroke="black" cx="375" cy="-1425" rx="11" ry="11"/>
<text text-anchor="middle" x="375" y="-1422.6" font-family="Times,serif" font-size="8.00">6</text>
</g>
<!-- 7 -->
<g id="node7" class="node"><title>7</title>
<ellipse fill="none" stroke="black" cx="650" cy="-125" rx="11" ry="11"/>
<text text-anchor="middle" x="650" y="-122.6" font-family="Times,serif" font-size="8.00">7</text>
</g>
<!-- 8 -->
<g id="node8" class="node"><title>8</title>
<ellipse fill="none" stroke="black" cx="750" cy="-500" rx="11" ry="11"/>
<text text-anchor="middle" x="750" y="-497.6" font-family="Times,serif" font-size="8.00">8</text>
</g>
<!-- 9 -->
<g id="node9" class="node"><title>9</title>
<ellipse fill="none" stroke="black" cx="725" cy="-1250" rx="11" ry="11"/>
<text text-anchor="middle" x="725" y="-1247.6" font-family="Times,serif" font-size="8.00">9</text>
</g>
<!-- 10 -->
<g id="node10" class="node"><title>10</title>
<ellipse fill="none" stroke="black" cx="850" cy="-475" rx="11" ry="11"/>
<text text-anchor="middle" x="850" y="-472.6" font-family="Times,serif" font-size="8.00">10</text>
</g>
<!-- 11 -->
<g id="node11" class="node"><title>11</title>
<ellipse fill="none" stroke="black" cx="125" cy="-850" rx="11" ry="11"/>
<text text-anchor="middle" x="125" y="-847.6" font-family="Times,serif" font-size="8.00">11</text>
</g>
<!-- 12 -->
<g id="node12" class="node"><title>12</title>
<ellipse fill="none" stroke="black" cx="850" cy="-25" rx="11" ry="11"/>
<text text-anchor="middle" x="850" y="-22.6" font-family="Times,serif" font-size="8.00">12</text>
</g>
<!-- 13 -->
<g id="node13" class="node"><title>13</title>
<ellipse fill="none" stroke="black" cx="575" cy="-300" rx="11" ry="11"/>
<text text-anchor="middle" x="575" y="-297.6" font-family="Times,serif" font-size="8.00">13</text>
</g>
<!-- 14 -->
<g id="node14" class="node"><title>14</title>
<ellipse fill="none" stroke="black" cx="275" cy="-550" rx="11" ry="11"/>
<text text-anchor="middle" x="275" y="-547.6" font-family="Times,serif" font-size="8.00">14</text>
</g>
<!-- 15 -->
<g id="node15" class="node"><title>15</title>
<ellipse fill="none" stroke="black" cx="275" cy="-925" rx="11" ry="11"/>
<text text-anchor="middle" x="275" y="-922.6" font-family="Times,serif" font-size="8.00">15</text>
</g>
<!-- 16 -->
<g id="node16" class="node"><title>16</title>
<ellipse fill="none" stroke="black" cx="475" cy="-300" rx="11" ry="11"/>
<text text-anchor="middle" x="475" y="-297.6" font-family="Times,serif" font-size="8.00">16</text>
</g>
<!-- 17 -->
<g id="node17" class="node"><title>17</title>
<ellipse fill="none" stroke="black" cx="75" cy="-300" rx="11" ry="11"/>
<text text-anchor="middle" x="75" y="-297.6" font-family="Times,serif" font-size="8.00">17</text>
</g>
<!-- 18 -->
<g id="node18" class="node"><title>18</title>
<ellipse fill="none" stroke="black" cx="700" cy="-800" rx="11" ry="11"/>
<text text-anchor="middle" x="700" y="-797.6" font-family="Times,serif" font-size="8.00">18</text>
</g>
<!-- 19 -->
<g id="node19" class="node"><title>19</title>
<ellipse fill="none" stroke="black" cx="25" cy="-1125" rx="11" ry="11"/>
<text text-anchor="middle" x="25" y="-1122.6" font-family="Times,serif" font-size="8.00">19</text>
</g>
<!-- 20 -->
<g id="node20" class="node"><title>20</title>
<ellipse fill="none" stroke="black" cx="350" cy="-925" rx="11" ry="11"/>
<text text-anchor="middle" x="350" y="-922.6" font-family="Times,serif" font-size="8.00">20</text>
</g>
<!-- 21 -->
<g id="node21" class="node"><title>21</title>
<ellipse fill="none" stroke="black" cx="25" cy="-1375" rx="11" ry="11"/>
<text text-anchor="middle" x="25" y="-1372.6" font-family="Times,serif" font-size="8.00">21</text>
</g>
<!-- 22 -->
<g id="node22" class="node"><title>22</title>
<ellipse fill="none" stroke="black" cx="675" cy="-900" rx="11" ry="11"/>
<text text-anchor="middle" x="675" y="-897.6" font-family="Times,serif" font-size="8.00">22</text>
</g>
<!-- 23 -->
<g id="node23" class="node"><title>23</title>
<ellipse fill="none" stroke="black" cx="575" cy="-850" rx="11" ry="11"/>
<text text-anchor="middle" x="575" y="-847.6" font-family="Times,serif" font-size="8.00">23</text>
</g>
<!-- 24 -->
<g id="node24" class="node"><title>24</title>
<ellipse fill="none" stroke="black" cx="325" cy="-1050" rx="11" ry="11"/>
<text text-anchor="middle" x="325" y="-1047.6" font-family="Times,serif" font-size="8.00">24</text>
</g>
<!-- 25 -->
<g id="node25" class="node"><title>25</title>
<ellipse fill="none" stroke="black" cx="275" cy="-600" rx="11" ry="11"/>
<text text-anchor="middle" x="275" y="-597.6" font-family="Times,serif" font-size="8.00">25</text>
</g>
<!-- 26 -->
<g id="node26" class="node"><title>26</title>
<ellipse fill="none" stroke="black" cx="375" cy="-475" rx="11" ry="11"/>
<text text-anchor="middle" x="375" y="-472.6" font-family="Times,serif" font-size="8.00">26</text>
</g>
<!-- 27 -->
<g id="node27" class="node"><title>27</title>
<ellipse fill="none" stroke="black" cx="725" cy="-200" rx="11" ry="11"/>
<text text-anchor="middle" x="725" y="-197.6" font-family="Times,serif" font-size="8.00">27</text>
</g>
<!-- 28 -->
<g id="node28" class="node"><title>28</title>
<ellipse fill="none" stroke="black" cx="200" cy="-400" rx="11" ry="11"/>
<text text-anchor="middle" x="200" y="-397.6" font-family="Times,serif" font-size="8.00">28</text>
</g>
<!-- 29 -->
<g id="node29" class="node"><title>29</title>
<ellipse fill="none" stroke="black" cx="225" cy="-1575" rx="11" ry="11"/>
<text text-anchor="middle" x="225" y="-1572.6" font-family="Times,serif" font-size="8.00">29</text>
</g>
<!-- 30 -->
<g id="node30" class="node"><title>30</title>
<ellipse fill="none" stroke="black" cx="700" cy="-1400" rx="11" ry="11"/>
<text text-anchor="middle" x="700" y="-1397.6" font-family="Times,serif" font-size="8.00">30</text>
</g>
</g>
</svg>
