<?xml version="1.0" encoding="UTF-8" standalone="no"?>
<!DOCTYPE svg PUBLIC "-//W3C//DTD SVG 1.1//EN"
 "http://www.w3.org/Graphics/SVG/1.1/DTD/svg11.dtd">
<!-- Generated by graphviz version 2.38.0 (20140413.2041)
 -->
<!-- Title: %3 Pages: 1 -->
<svg width="880pt" height="1580pt"
 viewBox="0.00 0.00 880.00 1580.00" xmlns="http://www.w3.org/2000/svg" xmlns:xlink="http://www.w3.org/1999/xlink">
<g id="graph0" class="graph" transform="scale(1 1) rotate(0) translate(-10 1590)">
<title>%3</title>
<polygon fill="white" stroke="none" points="10,-10 10,-1590 890,-1590 890,-10 10,-10"/>
<!-- 1 -->
<g id="node1" class="node"><title>1</title>
<ellipse fill="none" stroke="red" cx="250" cy="-1575" rx="11" ry="11"/>
<text text-anchor="middle" x="250" y="-1572.6" font-family="Times,serif" font-size="8.00">1</text>
</g>
<!-- 6 -->
<g id="node2" class="node"><title>6</title>
<ellipse fill="none" stroke="black" cx="375" cy="-1425" rx="11" ry="11"/>
<text text-anchor="middle" x="375" y="-1422.6" font-family="Times,serif" font-size="8.00">6</text>
</g>
<!-- 1&#45;&#45;6 -->
<g id="edge1" class="edge"><title>1&#45;&#45;6</title>
<path fill="none" stroke="black" d="M257.08,-1566.5C278.98,-1540.2 345.48,-1460.4 367.69,-1433.8"/>
</g>
<!-- 29 -->
<g id="node3" class="node"><title>29</title>
<ellipse fill="none" stroke="black" cx="225" cy="-1575" rx="11" ry="11"/>
<text text-anchor="middle" x="225" y="-1572.6" font-family="Times,serif" font-size="8.00">29</text>
</g>
<!-- 1&#45;&#45;29 -->
<g id="edge2" class="edge"><title>1&#45;&#45;29</title>
<path fill="none" stroke="black" d="M238.96,-1575C238.02,-1575 237.07,-1575 236.12,-1575"/>
</g>
<!-- 24 -->
<g id="node4" class="node"><title>24</title>
<ellipse fill="none" stroke="black" cx="325" cy="-1050" rx="11" ry="11"/>
<text text-anchor="middle" x="325" y="-1047.6" font-family="Times,serif" font-size="8.00">24</text>
</g>
<!-- 6&#45;&#45;24 -->
<g id="edge3" class="edge"><title>6&#45;&#45;24</title>
<path fill="none" stroke="black" d="M373.5,-1413.8C366.14,-1358.6 333.84,-1116.3 326.49,-1061.2"/>
</g>
<!-- 30 -->
<g id="node5" class="node"><title>30</title>
<ellipse fill="none" stroke="gray" cx="700" cy="-1400" rx="11" ry="11"/>
<text text-anchor="middle" x="700" y="-1397.6" font-family="Times,serif" font-size="8.00">30</text>
</g>
<!-- 6&#45;&#45;30 -->
<g id="edge4" class="edge"><title>6&#45;&#45;30</title>
<path fill="none" stroke="black" d="M386.19,-1424.1C436.19,-1420.3 638.95,-1404.7 688.86,-1400.9"/>
</g>
<!-- 20 -->
<g id="node6" class="node"><title>20</title>
<ellipse fill="none" stroke="black" cx="350" cy="-925" rx="11" ry="11"/>
<text text-anchor="middle" x="350" y="-922.6" font-family="Times,serif" font-size="8.00">20</text>
</g>
<!-- 24&#45;&#45;20 -->
<g id="edge5" class="edge"><title>24&#45;&#45;20</title>
<path fill="none" stroke="black" d="M327.22,-1038.9C331.97,-1015.1 343.1,-959.49 347.82,-935.89"/>
</g>
<!-- 9 -->
<g id="node7" class="node"><title>9</title>
<ellipse fill="none" stroke="gray" cx="725" cy="-1250" rx="11" ry="11"/>
<text text-anchor="middle" x="725" y="-1247.6" font-family="Times,serif" font-size="8.00">9</text>
</g>
<!-- 30&#45;&#45;9 -->
<g id="edge6" class="edge"><title>30&#45;&#45;9</title>
<path fill="none" stroke="black" d="M701.88,-1388.7C706.53,-1360.8 718.56,-1288.6 723.17,-1261"/>
</g>
<!-- 15 -->
<g id="node8" class="node"><title>15</title>
<ellipse fill="none" stroke="black" cx="275" cy="-925" rx="11" ry="11"/>
<text text-anchor="middle" x="275" y="-922.6" font-family="Times,serif" font-size="8.00">15</text>
</g>
<!-- 20&#45;&#45;15 -->
<g id="edge7" class="edge"><title>20&#45;&#45;15</title>
<path fill="none" stroke="black" d="M338.93,-925C324.75,-925 300.31,-925 286.11,-925"/>
</g>
<!-- 5 -->
<g id="node9" class="node"><title>5</title>
<ellipse fill="none" stroke="black" cx="525" cy="-875" rx="11" ry="11"/>
<text text-anchor="middle" x="525" y="-872.6" font-family="Times,serif" font-size="8.00">5</text>
</g>
<!-- 20&#45;&#45;5 -->
<g id="edge8" class="edge"><title>20&#45;&#45;5</title>
<path fill="none" stroke="black" d="M360.68,-921.95C391.85,-913.04 482.46,-887.16 514.01,-878.14"/>
</g>
<!-- 11 -->
<g id="node10" class="node"><title>11</title>
<ellipse fill="none" stroke="black" cx="125" cy="-850" rx="11" ry="11"/>
<text text-anchor="middle" x="125" y="-847.6" font-family="Times,serif" font-size="8.00">11</text>
</g>
<!-- 15&#45;&#45;11 -->
<g id="edge9" class="edge"><title>15&#45;&#45;11</title>
<path fill="none" stroke="black" d="M265.16,-920.08C238.04,-906.52 162.46,-868.73 135.07,-855.04"/>
</g>
<!-- 23 -->
<g id="node11" class="node"><title>23</title>
<ellipse fill="none" stroke="black" cx="575" cy="-850" rx="11" ry="11"/>
<text text-anchor="middle" x="575" y="-847.6" font-family="Times,serif" font-size="8.00">23</text>
</g>
<!-- 5&#45;&#45;23 -->
<g id="edge10" class="edge"><title>5&#45;&#45;23</title>
<path fill="none" stroke="black" d="M535.12,-869.94C543.79,-865.6 556.23,-859.39 564.9,-855.05"/>
</g>
<!-- 25 -->
<g id="node12" class="node"><title>25</title>
<ellipse fill="none" stroke="black" cx="275" cy="-600" rx="11" ry="11"/>
<text text-anchor="middle" x="275" y="-597.6" font-family="Times,serif" font-size="8.00">25</text>
</g>
<!-- 11&#45;&#45;25 -->
<g id="edge11" class="edge"><title>11&#45;&#45;25</title>
<path fill="none" stroke="black" d="M130.7,-840.5C154.46,-800.9 245.53,-649.12 269.3,-609.5"/>
</g>
<!-- 22 -->
<g id="node13" class="node"><title>22</title>
<ellipse fill="none" stroke="black" cx="675" cy="-900" rx="11" ry="11"/>
<text text-anchor="middle" x="675" y="-897.6" font-family="Times,serif" font-size="8.00">22</text>
</g>
<!-- 23&#45;&#45;22 -->
<g id="edge12" class="edge"><title>23&#45;&#45;22</title>
<path fill="none" stroke="black" d="M584.95,-854.98C604.12,-864.56 645.95,-885.48 665.09,-895.04"/>
</g>
<!-- 14 -->
<g id="node14" class="node"><title>14</title>
<ellipse fill="none" stroke="black" cx="275" cy="-550" rx="11" ry="11"/>
<text text-anchor="middle" x="275" y="-547.6" font-family="Times,serif" font-size="8.00">14</text>
</g>
<!-- 25&#45;&#45;14 -->
<g id="edge13" class="edge"><title>25&#45;&#45;14</title>
<path fill="none" stroke="black" d="M275,-588.9C275,-580.62 275,-569.34 275,-561.07"/>
</g>
<!-- 18 -->
<g id="node15" class="node"><title>18</title>
<ellipse fill="none" stroke="black" cx="700" cy="-800" rx="11" ry="11"/>
<text text-anchor="middle" x="700" y="-797.6" font-family="Times,serif" font-size="8.00">18</text>
</g>
<!-- 22&#45;&#45;18 -->
<g id="edge14" class="edge"><title>22&#45;&#45;18</title>
<path fill="none" stroke="black" d="M677.68,-889.3C682.46,-870.15 692.44,-830.24 697.27,-810.93"/>
</g>
<!-- 2 -->
<g id="node16" class="node"><title>2</title>
<ellipse fill="none" stroke="black" cx="225" cy="-475" rx="11" ry="11"/>
<text text-anchor="middle" x="225" y="-472.6" font-family="Times,serif" font-size="8.00">2</text>
</g>
<!-- 14&#45;&#45;2 -->
<g id="edge15" class="edge"><title>14&#45;&#45;2</title>
<path fill="none" stroke="black" d="M268.87,-540.8C259.27,-526.41 240.81,-498.71 231.18,-484.27"/>
</g>
<!-- 26 -->
<g id="node17" class="node"><title>26</title>
<ellipse fill="none" stroke="black" cx="375" cy="-475" rx="11" ry="11"/>
<text text-anchor="middle" x="375" y="-472.6" font-family="Times,serif" font-size="8.00">26</text>
</g>
<!-- 14&#45;&#45;26 -->
<g id="edge16" class="edge"><title>14&#45;&#45;26</title>
<path fill="none" stroke="black" d="M283.87,-543.34C302.8,-529.15 346.96,-496.03 366,-481.75"/>
</g>
<!-- 28 -->
<g id="node18" class="node"><title>28</title>
<ellipse fill="none" stroke="black" cx="200" cy="-400" rx="11" ry="11"/>
<text text-anchor="middle" x="200" y="-397.6" font-family="Times,serif" font-size="8.00">28</text>
</g>
<!-- 2&#45;&#45;28 -->
<g id="edge17" class="edge"><title>2&#45;&#45;28</title>
<path fill="none" stroke="black" d="M221.42,-464.25C216.67,-450 208.32,-424.97 203.58,-410.73"/>
</g>
<!-- 16 -->
<g id="node19" class="node"><title>16</title>
<ellipse fill="none" stroke="black" cx="475" cy="-300" rx="11" ry="11"/>
<text text-anchor="middle" x="475" y="-297.6" font-family="Times,serif" font-size="8.00">16</text>
</g>
<!-- 26&#45;&#45;16 -->
<g id="edge18" class="edge"><title>26&#45;&#45;16</title>
<path fill="none" stroke="black" d="M380.52,-465.34C397.96,-434.82 451.79,-340.63 469.37,-309.84"/>
</g>
<!-- 13 -->
<g id="node20" class="node"><title>13</title>
<ellipse fill="none" stroke="black" cx="575" cy="-300" rx="11" ry="11"/>
<text text-anchor="middle" x="575" y="-297.6" font-family="Times,serif" font-size="8.00">13</text>
</g>
<!-- 16&#45;&#45;13 -->
<g id="edge19" class="edge"><title>16&#45;&#45;13</title>
<path fill="none" stroke="black" d="M486.08,-300C505.31,-300 544.61,-300 563.87,-300"/>
</g>
<!-- 27 -->
<g id="node21" class="node"><title>27</title>
<ellipse fill="none" stroke="black" cx="725" cy="-200" rx="11" ry="11"/>
<text text-anchor="middle" x="725" y="-197.6" font-family="Times,serif" font-size="8.00">27</text>
</g>
<!-- 13&#45;&#45;27 -->
<g id="edge20" class="edge"><title>13&#45;&#45;27</title>
<path fill="none" stroke="black" d="M584.38,-293.74C611.32,-275.79 688.69,-224.21 715.62,-206.25"/>
</g>
<!-- 3 -->
<g id="node22" class="node"><title>3</title>
<ellipse fill="none" stroke="black" cx="875" cy="-225" rx="11" ry="11"/>
<text text-anchor="middle" x="875" y="-222.6" font-family="Times,serif" font-size="8.00">3</text>
</g>
<!-- 27&#45;&#45;3 -->
<g id="edge21" class="edge"><title>27&#45;&#45;3</title>
<path fill="none" stroke="black" d="M736.27,-201.88C764.21,-206.53 836.36,-218.56 864,-223.17"/>
</g>
<!-- 7 -->
<g id="node23" class="node"><title>7</title>
<ellipse fill="none" stroke="black" cx="650" cy="-125" rx="11" ry="11"/>
<text text-anchor="middle" x="650" y="-122.6" font-family="Times,serif" font-size="8.00">7</text>
</g>
<!-- 27&#45;&#45;7 -->
<g id="edge22" class="edge"><title>27&#45;&#45;7</title>
<path fill="none" stroke="black" d="M716.97,-191.97C702.61,-177.61 672.68,-147.68 658.2,-133.2"/>
</g>
<!-- 12 -->
<g id="node24" class="node"><title>12</title>
<ellipse fill="none" stroke="black" cx="850" cy="-25" rx="11" ry="11"/>
<text text-anchor="middle" x="850" y="-22.6" font-family="Times,serif" font-size="8.00">12</text>
</g>
<!-- 3&#45;&#45;12 -->
<g id="edge23" class="edge"><title>3&#45;&#45;12</title>
<path fill="none" stroke="black" d="M873.62,-213.96C869.26,-179.08 855.8,-71.429 851.41,-36.25"/>
</g>
<!-- 4 -->
<g id="node25" class="node"><title>4</title>
<ellipse fill="none" stroke="gray" cx="25" cy="-450" rx="11" ry="11"/>
<text text-anchor="middle" x="25" y="-447.6" font-family="Times,serif" font-size="8.00">4</text>
</g>
<!-- 8 -->
<g id="node26" class="node"><title>8</title>
<ellipse fill="none" stroke="gray" cx="750" cy="-500" rx="11" ry="11"/>
<text text-anchor="middle" x="750" y="-497.6" font-family="Times,serif" font-size="8.00">8</text>
</g>
<!-- 10 -->
<g id="node27" class="node"><title>10</title>
<ellipse fill="none" stroke="gray" cx="850" cy="-475" rx="11" ry="11"/>
<text text-anchor="middle" x="850" y="-472.6" font-family="Times,serif" font-size="8.00">10</text>
</g>
<!-- 17 -->
<g id="node28" class="node"><title>17</title>
<ellipse fill="none" stroke="gray" cx="75" cy="-300" rx="11" ry="11"/>
<text text-anchor="middle" x="75" y="-297.6" font-family="Times,serif" font-size="8.00">17</text>
</g>
<!-- 19 -->
<g id="node29" class="node"><title>19</title>
<ellipse fill="none" stroke="gray" cx="25" cy="-1125" rx="11" ry="11"/>
<text text-anchor="middle" x="25" y="-1122.6" font-family="Times,serif" font-size="8.00">19</text>
</g>
<!-- 21 -->
<g id="node30" class="node"><title>21</title>
<ellipse fill="none" stroke="gray" cx="25" cy="-1375" rx="11" ry="11"/>
<text text-anchor="middle" x="25" y="-1372.6" font-family="Times,serif" font-size="8.00">21</text>
</g>
</g>
</svg>
