<?xml version="1.0" encoding="UTF-8" standalone="no"?>
<!DOCTYPE svg PUBLIC "-//W3C//DTD SVG 1.1//EN"
 "http://www.w3.org/Graphics/SVG/1.1/DTD/svg11.dtd">
<!-- Generated by graphviz version 2.38.0 (20140413.2041)
 -->
<!-- Title: %3 Pages: 1 -->
<svg width="1203pt" height="1628pt"
 viewBox="0.00 0.00 1203.00 1628.33" xmlns="http://www.w3.org/2000/svg" xmlns:xlink="http://www.w3.org/1999/xlink">
<g id="graph0" class="graph" transform="scale(1 1) rotate(0) translate(-18.5 1657.5)">
<title>%3</title>
<polygon fill="white" stroke="none" points="18.5,-29.167 18.5,-1657.5 1221.5,-1657.5 1221.5,-29.167 18.5,-29.167"/>
<!-- 1 -->
<g id="node1" class="node"><title>1</title>
<ellipse fill="none" stroke="black" cx="40" cy="-1600" rx="14.5" ry="14.5"/>
<text text-anchor="middle" x="40" y="-1597.3" font-family="Times,serif" font-size="9.00">1</text>
</g>
<!-- 48 -->
<g id="node2" class="node"><title>48</title>
<ellipse fill="none" stroke="black" cx="120" cy="-1322.7" rx="17.5" ry="17.5"/>
<text text-anchor="middle" x="120" y="-1320" font-family="Times,serif" font-size="9.00">48</text>
</g>
<!-- 1&#45;&#45;48 -->
<g id="edge1" class="edge"><title>1&#45;&#45;48</title>
<path fill="none" stroke="black" d="M44.0772,-1585.87C57.5458,-1539.18 100.582,-1390.01 115.136,-1339.56"/>
<text text-anchor="middle" x="73.5744" y="-1465.93" font-family="Times,serif" font-size="9.00">1.0</text>
</g>
<!-- 2 -->
<g id="node3" class="node"><title>2</title>
<ellipse fill="none" stroke="black" cx="280" cy="-128" rx="14.5" ry="14.5"/>
<text text-anchor="middle" x="280" y="-125.3" font-family="Times,serif" font-size="9.00">2</text>
</g>
<!-- 16 -->
<g id="node4" class="node"><title>16</title>
<ellipse fill="none" stroke="black" cx="240" cy="-246.67" rx="17.5" ry="17.5"/>
<text text-anchor="middle" x="240" y="-243.97" font-family="Times,serif" font-size="9.00">16</text>
</g>
<!-- 2&#45;&#45;16 -->
<g id="edge2" class="edge"><title>2&#45;&#45;16</title>
<path fill="none" stroke="black" d="M275.254,-142.079C267.846,-164.059 253.562,-206.436 245.639,-229.941"/>
<text text-anchor="middle" x="255.014" y="-187.238" font-family="Times,serif" font-size="9.00">1.0</text>
</g>
<!-- 37 -->
<g id="node5" class="node"><title>37</title>
<ellipse fill="none" stroke="black" cx="360" cy="-50.667" rx="17.5" ry="17.5"/>
<text text-anchor="middle" x="360" y="-47.967" font-family="Times,serif" font-size="9.00">37</text>
</g>
<!-- 2&#45;&#45;37 -->
<g id="edge3" class="edge"><title>2&#45;&#45;37</title>
<path fill="none" stroke="black" d="M290.459,-117.89C305.028,-103.806 331.412,-78.302 347.158,-63.0812"/>
<text text-anchor="middle" x="312.742" y="-92.712" font-family="Times,serif" font-size="9.00">1.0</text>
</g>
<!-- 19 -->
<g id="node34" class="node"><title>19</title>
<ellipse fill="none" stroke="black" cx="80" cy="-161.33" rx="17.5" ry="17.5"/>
<text text-anchor="middle" x="80" y="-158.63" font-family="Times,serif" font-size="9.00">19</text>
</g>
<!-- 16&#45;&#45;19 -->
<g id="edge26" class="edge"><title>16&#45;&#45;19</title>
<path fill="none" stroke="black" d="M224.367,-238.332C193.7,-221.975 125.988,-185.859 95.4607,-169.576"/>
<text text-anchor="middle" x="154.237" y="-205.726" font-family="Times,serif" font-size="9.00">1.0</text>
</g>
<!-- 39 -->
<g id="node35" class="node"><title>39</title>
<ellipse fill="none" stroke="black" cx="200" cy="-405.33" rx="17.5" ry="17.5"/>
<text text-anchor="middle" x="200" y="-402.63" font-family="Times,serif" font-size="9.00">39</text>
</g>
<!-- 16&#45;&#45;39 -->
<g id="edge27" class="edge"><title>16&#45;&#45;39</title>
<path fill="none" stroke="black" d="M235.719,-263.649C228.061,-294.027 212.095,-357.357 204.371,-387.992"/>
<text text-anchor="middle" x="214.445" y="-327.524" font-family="Times,serif" font-size="9.00">1.0</text>
</g>
<!-- 3 -->
<g id="node6" class="node"><title>3</title>
<ellipse fill="none" stroke="black" cx="360" cy="-1210.7" rx="14.5" ry="14.5"/>
<text text-anchor="middle" x="360" y="-1208" font-family="Times,serif" font-size="9.00">3</text>
</g>
<!-- 14 -->
<g id="node7" class="node"><title>14</title>
<ellipse fill="none" stroke="black" cx="560" cy="-1377.3" rx="17.5" ry="17.5"/>
<text text-anchor="middle" x="560" y="-1374.6" font-family="Times,serif" font-size="9.00">14</text>
</g>
<!-- 3&#45;&#45;14 -->
<g id="edge4" class="edge"><title>3&#45;&#45;14</title>
<path fill="none" stroke="black" d="M371.326,-1220.13C405.784,-1248.84 509.267,-1335.04 546.483,-1366.04"/>
<text text-anchor="middle" x="452.245" y="-1294.03" font-family="Times,serif" font-size="9.00">1.0</text>
</g>
<!-- 22 -->
<g id="node8" class="node"><title>22</title>
<ellipse fill="none" stroke="black" cx="320" cy="-1009.3" rx="17.5" ry="17.5"/>
<text text-anchor="middle" x="320" y="-1006.6" font-family="Times,serif" font-size="9.00">22</text>
</g>
<!-- 3&#45;&#45;22 -->
<g id="edge5" class="edge"><title>3&#45;&#45;22</title>
<path fill="none" stroke="black" d="M357.123,-1196.22C349.94,-1160.05 331.237,-1065.88 323.465,-1026.75"/>
<text text-anchor="middle" x="334.89" y="-1114.39" font-family="Times,serif" font-size="9.00">1.0</text>
</g>
<!-- 27 -->
<g id="node9" class="node"><title>27</title>
<ellipse fill="none" stroke="black" cx="240" cy="-1286.7" rx="17.5" ry="17.5"/>
<text text-anchor="middle" x="240" y="-1284" font-family="Times,serif" font-size="9.00">27</text>
</g>
<!-- 3&#45;&#45;27 -->
<g id="edge6" class="edge"><title>3&#45;&#45;27</title>
<path fill="none" stroke="black" d="M347.61,-1218.55C325.453,-1232.58 279.123,-1261.92 255.128,-1277.12"/>
<text text-anchor="middle" x="296.433" y="-1249.2" font-family="Times,serif" font-size="9.00">1.0</text>
</g>
<!-- 27&#45;&#45;48 -->
<g id="edge40" class="edge"><title>27&#45;&#45;48</title>
<path fill="none" stroke="black" d="M223.061,-1291.78C200.191,-1298.64 159.678,-1310.8 136.852,-1317.64"/>
<text text-anchor="middle" x="174.315" y="-1306.52" font-family="Times,serif" font-size="9.00">1.0</text>
</g>
<!-- 4 -->
<g id="node10" class="node"><title>4</title>
<ellipse fill="none" stroke="black" cx="1160" cy="-1357.3" rx="14.5" ry="14.5"/>
<text text-anchor="middle" x="1160" y="-1354.6" font-family="Times,serif" font-size="9.00">4</text>
</g>
<!-- 46 -->
<g id="node11" class="node"><title>46</title>
<ellipse fill="none" stroke="black" cx="920" cy="-1269.3" rx="17.5" ry="17.5"/>
<text text-anchor="middle" x="920" y="-1266.6" font-family="Times,serif" font-size="9.00">46</text>
</g>
<!-- 4&#45;&#45;46 -->
<g id="edge7" class="edge"><title>4&#45;&#45;46</title>
<path fill="none" stroke="black" d="M1146.06,-1352.19C1104.44,-1336.93 981.218,-1291.75 936.473,-1275.34"/>
<text text-anchor="middle" x="1036.81" y="-1315.99" font-family="Times,serif" font-size="9.00">1.0</text>
</g>
<!-- 47 -->
<g id="node45" class="node"><title>47</title>
<ellipse fill="none" stroke="black" cx="920" cy="-1229.3" rx="17.5" ry="17.5"/>
<text text-anchor="middle" x="920" y="-1226.6" font-family="Times,serif" font-size="9.00">47</text>
</g>
<!-- 46&#45;&#45;47 -->
<g id="edge49" class="edge"><title>46&#45;&#45;47</title>
<path fill="none" stroke="black" d="M920,-1251.64C920,-1250.05 920,-1248.44 920,-1246.85"/>
<text text-anchor="middle" x="925.625" y="-1242.04" font-family="Times,serif" font-size="9.00">1.0</text>
</g>
<!-- 5 -->
<g id="node12" class="node"><title>5</title>
<ellipse fill="none" stroke="black" cx="560" cy="-1617.3" rx="14.5" ry="14.5"/>
<text text-anchor="middle" x="560" y="-1614.6" font-family="Times,serif" font-size="9.00">5</text>
</g>
<!-- 45 -->
<g id="node13" class="node"><title>45</title>
<ellipse fill="none" stroke="black" cx="600" cy="-1538.7" rx="17.5" ry="17.5"/>
<text text-anchor="middle" x="600" y="-1536" font-family="Times,serif" font-size="9.00">45</text>
</g>
<!-- 5&#45;&#45;45 -->
<g id="edge8" class="edge"><title>5&#45;&#45;45</title>
<path fill="none" stroke="black" d="M566.605,-1604.32C573.573,-1590.63 584.554,-1569.05 592.006,-1554.41"/>
<text text-anchor="middle" x="573.499" y="-1581.52" font-family="Times,serif" font-size="9.00">1.0</text>
</g>
<!-- 6 -->
<g id="node14" class="node"><title>6</title>
<ellipse fill="none" stroke="black" cx="40" cy="-80" rx="14.5" ry="14.5"/>
<text text-anchor="middle" x="40" y="-77.3" font-family="Times,serif" font-size="9.00">6</text>
</g>
<!-- 35 -->
<g id="node15" class="node"><title>35</title>
<ellipse fill="none" stroke="black" cx="40" cy="-160" rx="17.5" ry="17.5"/>
<text text-anchor="middle" x="40" y="-157.3" font-family="Times,serif" font-size="9.00">35</text>
</g>
<!-- 6&#45;&#45;35 -->
<g id="edge9" class="edge"><title>6&#45;&#45;35</title>
<path fill="none" stroke="black" d="M40,-94.6732C40,-108.115 40,-128.04 40,-142.348"/>
<text text-anchor="middle" x="34.375" y="-119.986" font-family="Times,serif" font-size="9.00">1.0</text>
</g>
<!-- 7 -->
<g id="node16" class="node"><title>7</title>
<ellipse fill="none" stroke="black" cx="120" cy="-602.67" rx="14.5" ry="14.5"/>
<text text-anchor="middle" x="120" y="-599.97" font-family="Times,serif" font-size="9.00">7</text>
</g>
<!-- 31 -->
<g id="node17" class="node"><title>31</title>
<ellipse fill="none" stroke="black" cx="120" cy="-402.67" rx="17.5" ry="17.5"/>
<text text-anchor="middle" x="120" y="-399.97" font-family="Times,serif" font-size="9.00">31</text>
</g>
<!-- 7&#45;&#45;31 -->
<g id="edge10" class="edge"><title>7&#45;&#45;31</title>
<path fill="none" stroke="black" d="M120,-587.964C120,-551.88 120,-459.083 120,-420.211"/>
<text text-anchor="middle" x="114.375" y="-506.933" font-family="Times,serif" font-size="9.00">1.0</text>
</g>
<!-- 38 -->
<g id="node18" class="node"><title>38</title>
<ellipse fill="none" stroke="black" cx="120" cy="-682.67" rx="17.5" ry="17.5"/>
<text text-anchor="middle" x="120" y="-679.97" font-family="Times,serif" font-size="9.00">38</text>
</g>
<!-- 7&#45;&#45;38 -->
<g id="edge11" class="edge"><title>7&#45;&#45;38</title>
<path fill="none" stroke="black" d="M120,-617.343C120,-630.785 120,-650.71 120,-665.018"/>
<text text-anchor="middle" x="114.375" y="-642.656" font-family="Times,serif" font-size="9.00">1.0</text>
</g>
<!-- 31&#45;&#45;39 -->
<g id="edge42" class="edge"><title>31&#45;&#45;39</title>
<path fill="none" stroke="black" d="M137.755,-403.26C151.012,-403.701 169.05,-404.301 182.295,-404.741"/>
<text text-anchor="middle" x="154.404" y="-405.801" font-family="Times,serif" font-size="9.00">1.0</text>
</g>
<!-- 8 -->
<g id="node19" class="node"><title>8</title>
<ellipse fill="none" stroke="black" cx="720" cy="-1302.7" rx="14.5" ry="14.5"/>
<text text-anchor="middle" x="720" y="-1300" font-family="Times,serif" font-size="9.00">8</text>
</g>
<!-- 9 -->
<g id="node20" class="node"><title>9</title>
<ellipse fill="none" stroke="black" cx="680" cy="-1381.3" rx="14.5" ry="14.5"/>
<text text-anchor="middle" x="680" y="-1378.6" font-family="Times,serif" font-size="9.00">9</text>
</g>
<!-- 8&#45;&#45;9 -->
<g id="edge12" class="edge"><title>8&#45;&#45;9</title>
<path fill="none" stroke="black" d="M713.395,-1315.68C705.983,-1330.24 694.03,-1353.73 686.615,-1368.3"/>
<text text-anchor="middle" x="694.381" y="-1343.79" font-family="Times,serif" font-size="9.00">1.0</text>
</g>
<!-- 20 -->
<g id="node21" class="node"><title>20</title>
<ellipse fill="none" stroke="black" cx="840" cy="-1186.7" rx="17.5" ry="17.5"/>
<text text-anchor="middle" x="840" y="-1184" font-family="Times,serif" font-size="9.00">20</text>
</g>
<!-- 8&#45;&#45;20 -->
<g id="edge13" class="edge"><title>8&#45;&#45;20</title>
<path fill="none" stroke="black" d="M730.649,-1292.41C752.79,-1271 803.699,-1221.79 827.415,-1198.87"/>
<text text-anchor="middle" x="772.816" y="-1248.01" font-family="Times,serif" font-size="9.00">1.0</text>
</g>
<!-- 9&#45;&#45;14 -->
<g id="edge15" class="edge"><title>9&#45;&#45;14</title>
<path fill="none" stroke="black" d="M665.286,-1380.81C643.131,-1380.07 601.281,-1378.68 577.561,-1377.89"/>
<text text-anchor="middle" x="616.385" y="-1381.17" font-family="Times,serif" font-size="9.00">1.0</text>
</g>
<!-- 13 -->
<g id="node22" class="node"><title>13</title>
<ellipse fill="none" stroke="black" cx="680" cy="-1461.3" rx="17.5" ry="17.5"/>
<text text-anchor="middle" x="680" y="-1458.6" font-family="Times,serif" font-size="9.00">13</text>
</g>
<!-- 9&#45;&#45;13 -->
<g id="edge14" class="edge"><title>9&#45;&#45;13</title>
<path fill="none" stroke="black" d="M680,-1395.97C680,-1409.42 680,-1429.34 680,-1443.65"/>
<text text-anchor="middle" x="674.375" y="-1421.29" font-family="Times,serif" font-size="9.00">1.0</text>
</g>
<!-- 34 -->
<g id="node40" class="node"><title>34</title>
<ellipse fill="none" stroke="black" cx="760" cy="-1064" rx="17.5" ry="17.5"/>
<text text-anchor="middle" x="760" y="-1061.3" font-family="Times,serif" font-size="9.00">34</text>
</g>
<!-- 20&#45;&#45;34 -->
<g id="edge34" class="edge"><title>20&#45;&#45;34</title>
<path fill="none" stroke="black" d="M830.19,-1171.65C814.753,-1147.98 784.972,-1102.3 769.64,-1078.79"/>
<text text-anchor="middle" x="794.25" y="-1126.96" font-family="Times,serif" font-size="9.00">1.0</text>
</g>
<!-- 24 -->
<g id="node41" class="node"><title>24</title>
<ellipse fill="none" stroke="black" cx="920" cy="-1189.3" rx="17.5" ry="17.5"/>
<text text-anchor="middle" x="920" y="-1186.6" font-family="Times,serif" font-size="9.00">24</text>
</g>
<!-- 20&#45;&#45;24 -->
<g id="edge33" class="edge"><title>20&#45;&#45;24</title>
<path fill="none" stroke="black" d="M857.755,-1187.28C871.012,-1187.71 889.05,-1188.29 902.295,-1188.72"/>
<text text-anchor="middle" x="874.404" y="-1189.8" font-family="Times,serif" font-size="9.00">1.0</text>
</g>
<!-- 13&#45;&#45;45 -->
<g id="edge22" class="edge"><title>13&#45;&#45;45</title>
<path fill="none" stroke="black" d="M667.147,-1473.74C652.218,-1488.18 627.737,-1511.86 612.821,-1526.3"/>
<text text-anchor="middle" x="634.354" y="-1501.82" font-family="Times,serif" font-size="9.00">1.0</text>
</g>
<!-- 41 -->
<g id="node30" class="node"><title>41</title>
<ellipse fill="none" stroke="black" cx="760" cy="-1504" rx="17.5" ry="17.5"/>
<text text-anchor="middle" x="760" y="-1501.3" font-family="Times,serif" font-size="9.00">41</text>
</g>
<!-- 13&#45;&#45;41 -->
<g id="edge21" class="edge"><title>13&#45;&#45;41</title>
<path fill="none" stroke="black" d="M695.805,-1469.74C709.922,-1477.27 730.477,-1488.24 744.5,-1495.73"/>
<text text-anchor="middle" x="714.563" y="-1484.55" font-family="Times,serif" font-size="9.00">1.0</text>
</g>
<!-- 10 -->
<g id="node23" class="node"><title>10</title>
<ellipse fill="none" stroke="black" cx="1160" cy="-797.33" rx="17.5" ry="17.5"/>
<text text-anchor="middle" x="1160" y="-794.63" font-family="Times,serif" font-size="9.00">10</text>
</g>
<!-- 26 -->
<g id="node24" class="node"><title>26</title>
<ellipse fill="none" stroke="black" cx="1120" cy="-756" rx="17.5" ry="17.5"/>
<text text-anchor="middle" x="1120" y="-753.3" font-family="Times,serif" font-size="9.00">26</text>
</g>
<!-- 10&#45;&#45;26 -->
<g id="edge16" class="edge"><title>10&#45;&#45;26</title>
<path fill="none" stroke="black" d="M1147.78,-784.705C1142.91,-779.672 1137.31,-773.886 1132.42,-768.833"/>
<text text-anchor="middle" x="1134.48" y="-778.577" font-family="Times,serif" font-size="9.00">1.0</text>
</g>
<!-- 42 -->
<g id="node25" class="node"><title>42</title>
<ellipse fill="none" stroke="black" cx="1200" cy="-1038.7" rx="17.5" ry="17.5"/>
<text text-anchor="middle" x="1200" y="-1036" font-family="Times,serif" font-size="9.00">42</text>
</g>
<!-- 10&#45;&#45;42 -->
<g id="edge17" class="edge"><title>10&#45;&#45;42</title>
<path fill="none" stroke="black" d="M1162.88,-814.689C1170.24,-859.115 1189.7,-976.565 1197.1,-1021.17"/>
<text text-anchor="middle" x="1174.35" y="-919.663" font-family="Times,serif" font-size="9.00">1.0</text>
</g>
<!-- 28 -->
<g id="node27" class="node"><title>28</title>
<ellipse fill="none" stroke="black" cx="1120" cy="-516" rx="17.5" ry="17.5"/>
<text text-anchor="middle" x="1120" y="-513.3" font-family="Times,serif" font-size="9.00">28</text>
</g>
<!-- 26&#45;&#45;28 -->
<g id="edge39" class="edge"><title>26&#45;&#45;28</title>
<path fill="none" stroke="black" d="M1120,-738.352C1120,-693.969 1120,-578.085 1120,-533.674"/>
<text text-anchor="middle" x="1114.38" y="-637.823" font-family="Times,serif" font-size="9.00">1.0</text>
</g>
<!-- 11 -->
<g id="node26" class="node"><title>11</title>
<ellipse fill="none" stroke="black" cx="1160" cy="-477.33" rx="17.5" ry="17.5"/>
<text text-anchor="middle" x="1160" y="-474.63" font-family="Times,serif" font-size="9.00">11</text>
</g>
<!-- 11&#45;&#45;28 -->
<g id="edge18" class="edge"><title>11&#45;&#45;28</title>
<path fill="none" stroke="black" d="M1147.34,-489.565C1142.67,-494.079 1137.39,-499.193 1132.71,-503.711"/>
<text text-anchor="middle" x="1134.4" y="-489.437" font-family="Times,serif" font-size="9.00">1.0</text>
</g>
<!-- 12 -->
<g id="node28" class="node"><title>12</title>
<ellipse fill="none" stroke="black" cx="440" cy="-133.33" rx="17.5" ry="17.5"/>
<text text-anchor="middle" x="440" y="-130.63" font-family="Times,serif" font-size="9.00">12</text>
</g>
<!-- 12&#45;&#45;37 -->
<g id="edge19" class="edge"><title>12&#45;&#45;37</title>
<path fill="none" stroke="black" d="M427.5,-120.414C412.471,-104.884 387.402,-78.9815 372.412,-63.4924"/>
<text text-anchor="middle" x="394.316" y="-93.738" font-family="Times,serif" font-size="9.00">1.0</text>
</g>
<!-- 49 -->
<g id="node29" class="node"><title>49</title>
<ellipse fill="none" stroke="black" cx="560" cy="-217.33" rx="17.5" ry="17.5"/>
<text text-anchor="middle" x="560" y="-214.63" font-family="Times,serif" font-size="9.00">49</text>
</g>
<!-- 12&#45;&#45;49 -->
<g id="edge20" class="edge"><title>12&#45;&#45;49</title>
<path fill="none" stroke="black" d="M454.714,-143.63C477.871,-159.84 522.542,-191.11 545.54,-207.208"/>
<text text-anchor="middle" x="494.562" y="-177.261" font-family="Times,serif" font-size="9.00">1.0</text>
</g>
<!-- 15 -->
<g id="node31" class="node"><title>15</title>
<ellipse fill="none" stroke="black" cx="480" cy="-934.67" rx="17.5" ry="17.5"/>
<text text-anchor="middle" x="480" y="-931.97" font-family="Times,serif" font-size="9.00">15</text>
</g>
<!-- 15&#45;&#45;22 -->
<g id="edge23" class="edge"><title>15&#45;&#45;22</title>
<path fill="none" stroke="black" d="M464.074,-942.099C433.405,-956.404 366.48,-987.62 335.862,-1001.9"/>
<text text-anchor="middle" x="394.324" y="-973.809" font-family="Times,serif" font-size="9.00">1.0</text>
</g>
<!-- 25 -->
<g id="node32" class="node"><title>25</title>
<ellipse fill="none" stroke="black" cx="440" cy="-813.33" rx="17.5" ry="17.5"/>
<text text-anchor="middle" x="440" y="-810.63" font-family="Times,serif" font-size="9.00">25</text>
</g>
<!-- 15&#45;&#45;25 -->
<g id="edge24" class="edge"><title>15&#45;&#45;25</title>
<path fill="none" stroke="black" d="M474.438,-917.798C466.796,-894.616 453.132,-853.165 445.515,-830.059"/>
<text text-anchor="middle" x="454.342" y="-875.7" font-family="Times,serif" font-size="9.00">1.0</text>
</g>
<!-- 44 -->
<g id="node33" class="node"><title>44</title>
<ellipse fill="none" stroke="black" cx="560" cy="-897.33" rx="17.5" ry="17.5"/>
<text text-anchor="middle" x="560" y="-894.63" font-family="Times,serif" font-size="9.00">44</text>
</g>
<!-- 15&#45;&#45;44 -->
<g id="edge25" class="edge"><title>15&#45;&#45;44</title>
<path fill="none" stroke="black" d="M496.189,-927.114C510.16,-920.593 530.224,-911.228 544.108,-904.748"/>
<text text-anchor="middle" x="514.556" y="-917.715" font-family="Times,serif" font-size="9.00">1.0</text>
</g>
<!-- 32 -->
<g id="node46" class="node"><title>32</title>
<ellipse fill="none" stroke="black" cx="440" cy="-693.33" rx="17.5" ry="17.5"/>
<text text-anchor="middle" x="440" y="-690.63" font-family="Times,serif" font-size="9.00">32</text>
</g>
<!-- 25&#45;&#45;32 -->
<g id="edge38" class="edge"><title>25&#45;&#45;32</title>
<path fill="none" stroke="black" d="M440,-795.624C440,-772.936 440,-733.832 440,-711.109"/>
<text text-anchor="middle" x="434.375" y="-755.179" font-family="Times,serif" font-size="9.00">1.0</text>
</g>
<!-- 19&#45;&#45;35 -->
<g id="edge32" class="edge"><title>19&#45;&#45;35</title>
<path fill="none" stroke="black" d="M62.339,-160.743C60.7484,-160.69 59.1378,-160.636 57.5482,-160.583"/>
<text text-anchor="middle" x="62.7557" y="-153.463" font-family="Times,serif" font-size="9.00">1.0</text>
</g>
<!-- 40 -->
<g id="node47" class="node"><title>40</title>
<ellipse fill="none" stroke="black" cx="400" cy="-572" rx="17.5" ry="17.5"/>
<text text-anchor="middle" x="400" y="-569.3" font-family="Times,serif" font-size="9.00">40</text>
</g>
<!-- 39&#45;&#45;40 -->
<g id="edge48" class="edge"><title>39&#45;&#45;40</title>
<path fill="none" stroke="black" d="M213.747,-416.786C250.372,-447.307 349.99,-530.324 386.421,-560.684"/>
<text text-anchor="middle" x="294.532" y="-490.596" font-family="Times,serif" font-size="9.00">1.0</text>
</g>
<!-- 17 -->
<g id="node36" class="node"><title>17</title>
<ellipse fill="none" stroke="black" cx="80" cy="-721.33" rx="17.5" ry="17.5"/>
<text text-anchor="middle" x="80" y="-718.63" font-family="Times,serif" font-size="9.00">17</text>
</g>
<!-- 17&#45;&#45;38 -->
<g id="edge28" class="edge"><title>17&#45;&#45;38</title>
<path fill="none" stroke="black" d="M92.6562,-709.098C97.3254,-704.585 102.615,-699.473 107.289,-694.955"/>
<text text-anchor="middle" x="94.3457" y="-694.828" font-family="Times,serif" font-size="9.00">1.0</text>
</g>
<!-- 18 -->
<g id="node37" class="node"><title>18</title>
<ellipse fill="none" stroke="black" cx="800" cy="-1025.3" rx="17.5" ry="17.5"/>
<text text-anchor="middle" x="800" y="-1022.6" font-family="Times,serif" font-size="9.00">18</text>
</g>
<!-- 29 -->
<g id="node38" class="node"><title>29</title>
<ellipse fill="none" stroke="black" cx="840" cy="-866.67" rx="17.5" ry="17.5"/>
<text text-anchor="middle" x="840" y="-863.97" font-family="Times,serif" font-size="9.00">29</text>
</g>
<!-- 18&#45;&#45;29 -->
<g id="edge29" class="edge"><title>18&#45;&#45;29</title>
<path fill="none" stroke="black" d="M804.281,-1008.32C811.939,-977.952 827.905,-914.634 835.629,-884.005"/>
<text text-anchor="middle" x="814.305" y="-948.061" font-family="Times,serif" font-size="9.00">1.0</text>
</g>
<!-- 30 -->
<g id="node39" class="node"><title>30</title>
<ellipse fill="none" stroke="black" cx="920" cy="-1029.3" rx="17.5" ry="17.5"/>
<text text-anchor="middle" x="920" y="-1026.6" font-family="Times,serif" font-size="9.00">30</text>
</g>
<!-- 18&#45;&#45;30 -->
<g id="edge30" class="edge"><title>18&#45;&#45;30</title>
<path fill="none" stroke="black" d="M817.706,-1025.89C840.394,-1026.65 879.498,-1027.95 902.221,-1028.71"/>
<text text-anchor="middle" x="854.326" y="-1029.1" font-family="Times,serif" font-size="9.00">1.0</text>
</g>
<!-- 18&#45;&#45;34 -->
<g id="edge31" class="edge"><title>18&#45;&#45;34</title>
<path fill="none" stroke="black" d="M787.344,-1037.54C782.675,-1042.06 777.385,-1047.18 772.711,-1051.7"/>
<text text-anchor="middle" x="774.404" y="-1037.42" font-family="Times,serif" font-size="9.00">1.0</text>
</g>
<!-- 30&#45;&#45;42 -->
<g id="edge41" class="edge"><title>30&#45;&#45;42</title>
<path fill="none" stroke="black" d="M937.515,-1029.89C987.799,-1031.58 1132.22,-1036.42 1182.49,-1038.11"/>
<text text-anchor="middle" x="1054.38" y="-1035.8" font-family="Times,serif" font-size="9.00">1.0</text>
</g>
<!-- 24&#45;&#45;47 -->
<g id="edge37" class="edge"><title>24&#45;&#45;47</title>
<path fill="none" stroke="black" d="M920,-1206.96C920,-1208.55 920,-1210.16 920,-1211.75"/>
<text text-anchor="middle" x="925.625" y="-1202.16" font-family="Times,serif" font-size="9.00">1.0</text>
</g>
<!-- 21 -->
<g id="node42" class="node"><title>21</title>
<ellipse fill="none" stroke="black" cx="600" cy="-418.67" rx="17.5" ry="17.5"/>
<text text-anchor="middle" x="600" y="-415.97" font-family="Times,serif" font-size="9.00">21</text>
</g>
<!-- 21&#45;&#45;49 -->
<g id="edge35" class="edge"><title>21&#45;&#45;49</title>
<path fill="none" stroke="black" d="M596.59,-401.504C589.051,-363.56 571.041,-272.906 563.459,-234.739"/>
<text text-anchor="middle" x="574.416" y="-320.005" font-family="Times,serif" font-size="9.00">1.0</text>
</g>
<!-- 23 -->
<g id="node43" class="node"><title>23</title>
<ellipse fill="none" stroke="black" cx="80" cy="-1081.3" rx="17.5" ry="17.5"/>
<text text-anchor="middle" x="80" y="-1078.6" font-family="Times,serif" font-size="9.00">23</text>
</g>
<!-- 33 -->
<g id="node44" class="node"><title>33</title>
<ellipse fill="none" stroke="black" cx="40" cy="-1240" rx="17.5" ry="17.5"/>
<text text-anchor="middle" x="40" y="-1237.3" font-family="Times,serif" font-size="9.00">33</text>
</g>
<!-- 23&#45;&#45;33 -->
<g id="edge36" class="edge"><title>23&#45;&#45;33</title>
<path fill="none" stroke="black" d="M75.7193,-1098.28C68.0607,-1128.67 52.0947,-1192.01 44.3712,-1222.66"/>
<text text-anchor="middle" x="54.4446" y="-1162.17" font-family="Times,serif" font-size="9.00">1.0</text>
</g>
<!-- 33&#45;&#45;48 -->
<g id="edge45" class="edge"><title>33&#45;&#45;48</title>
<path fill="none" stroke="black" d="M52.5,-1252.92C67.5293,-1268.46 92.5977,-1294.37 107.588,-1309.87"/>
<text text-anchor="middle" x="74.4336" y="-1283.21" font-family="Times,serif" font-size="9.00">1.0</text>
</g>
<!-- 32&#45;&#45;40 -->
<g id="edge43" class="edge"><title>32&#45;&#45;40</title>
<path fill="none" stroke="black" d="M434.438,-676.46C426.796,-653.279 413.132,-611.832 405.515,-588.727"/>
<text text-anchor="middle" x="414.342" y="-634.365" font-family="Times,serif" font-size="9.00">1.0</text>
</g>
<!-- 43 -->
<g id="node48" class="node"><title>43</title>
<ellipse fill="none" stroke="black" cx="480" cy="-694.67" rx="17.5" ry="17.5"/>
<text text-anchor="middle" x="480" y="-691.97" font-family="Times,serif" font-size="9.00">43</text>
</g>
<!-- 32&#45;&#45;43 -->
<g id="edge44" class="edge"><title>32&#45;&#45;43</title>
<path fill="none" stroke="black" d="M457.661,-693.922C459.252,-693.975 460.862,-694.029 462.452,-694.082"/>
<text text-anchor="middle" x="462.869" y="-686.802" font-family="Times,serif" font-size="9.00">1.0</text>
</g>
<!-- 36 -->
<g id="node49" class="node"><title>36</title>
<ellipse fill="none" stroke="black" cx="960" cy="-1630.7" rx="17.5" ry="17.5"/>
<text text-anchor="middle" x="960" y="-1628" font-family="Times,serif" font-size="9.00">36</text>
</g>
<!-- 36&#45;&#45;41 -->
<g id="edge46" class="edge"><title>36&#45;&#45;41</title>
<path fill="none" stroke="black" d="M944.967,-1621.18C907.812,-1597.64 811.986,-1536.93 774.934,-1513.46"/>
<text text-anchor="middle" x="854.287" y="-1569.09" font-family="Times,serif" font-size="9.00">1.0</text>
</g>
<!-- 50 -->
<g id="node50" class="node"><title>50</title>
<ellipse fill="none" stroke="black" cx="1120" cy="-1636" rx="17.5" ry="17.5"/>
<text text-anchor="middle" x="1120" y="-1633.3" font-family="Times,serif" font-size="9.00">50</text>
</g>
<!-- 36&#45;&#45;50 -->
<g id="edge47" class="edge"><title>36&#45;&#45;50</title>
<path fill="none" stroke="black" d="M977.734,-1631.29C1008.49,-1632.31 1071.38,-1634.39 1102.19,-1635.41"/>
<text text-anchor="middle" x="1034.31" y="-1635.15" font-family="Times,serif" font-size="9.00">1.0</text>
</g>
</g>
</svg>
