<?xml version="1.0" encoding="UTF-8" standalone="no"?>
<!DOCTYPE svg PUBLIC "-//W3C//DTD SVG 1.1//EN"
 "http://www.w3.org/Graphics/SVG/1.1/DTD/svg11.dtd">
<!-- Generated by graphviz version 2.38.0 (20140413.2041)
 -->
<!-- Title: %3 Pages: 1 -->
<svg width="577pt" height="717pt"
 viewBox="0.00 0.00 577.00 717.00" xmlns="http://www.w3.org/2000/svg" xmlns:xlink="http://www.w3.org/1999/xlink">
<g id="graph0" class="graph" transform="scale(1 1) rotate(0) translate(-1.5 798.5)">
<title>%3</title>
<polygon fill="white" stroke="none" points="1.5,-81.5 1.5,-798.5 578.5,-798.5 578.5,-81.5 1.5,-81.5"/>
<!-- 1 -->
<g id="node1" class="node"><title>1</title>
<ellipse fill="none" stroke="black" cx="20" cy="-660" rx="14.5" ry="14.5"/>
<text text-anchor="middle" x="20" y="-657.3" font-family="Times,serif" font-size="9.00">1</text>
</g>
<!-- 9 -->
<g id="node2" class="node"><title>9</title>
<ellipse fill="none" stroke="black" cx="60" cy="-780" rx="14.5" ry="14.5"/>
<text text-anchor="middle" x="60" y="-777.3" font-family="Times,serif" font-size="9.00">9</text>
</g>
<!-- 1&#45;&#45;9 -->
<g id="edge1" class="edge"><title>1&#45;&#45;9</title>
<path fill="none" stroke="black" d="M24.5885,-673.766C32.2633,-696.79 47.6207,-742.862 55.3418,-766.025"/>
<text text-anchor="middle" x="34.3228" y="-721.643" font-family="Times,serif" font-size="9.00">1.0</text>
</g>
<!-- 10 -->
<g id="node3" class="node"><title>10</title>
<ellipse fill="none" stroke="black" cx="220" cy="-400" rx="17.5" ry="17.5"/>
<text text-anchor="middle" x="220" y="-397.3" font-family="Times,serif" font-size="9.00">10</text>
</g>
<!-- 1&#45;&#45;10 -->
<g id="edge2" class="edge"><title>1&#45;&#45;10</title>
<path fill="none" stroke="black" d="M28.8518,-648.493C61.2832,-606.332 173.564,-460.366 209.116,-414.15"/>
<text text-anchor="middle" x="112.189" y="-534.642" font-family="Times,serif" font-size="9.00">1.0</text>
</g>
<!-- 2 -->
<g id="node4" class="node"><title>2</title>
<ellipse fill="none" stroke="black" cx="520" cy="-320" rx="14.5" ry="14.5"/>
<text text-anchor="middle" x="520" y="-317.3" font-family="Times,serif" font-size="9.00">2</text>
</g>
<!-- 5 -->
<g id="node5" class="node"><title>5</title>
<ellipse fill="none" stroke="black" cx="560" cy="-340" rx="14.5" ry="14.5"/>
<text text-anchor="middle" x="560" y="-337.3" font-family="Times,serif" font-size="9.00">5</text>
</g>
<!-- 2&#45;&#45;5 -->
<g id="edge3" class="edge"><title>2&#45;&#45;5</title>
<path fill="none" stroke="black" d="M533.097,-326.549C537.563,-328.782 542.552,-331.276 547.01,-333.505"/>
<text text-anchor="middle" x="540.057" y="-322.828" font-family="Times,serif" font-size="9.00">1.0</text>
</g>
<!-- 6 -->
<g id="node6" class="node"><title>6</title>
<ellipse fill="none" stroke="black" cx="460" cy="-100" rx="14.5" ry="14.5"/>
<text text-anchor="middle" x="460" y="-97.3" font-family="Times,serif" font-size="9.00">6</text>
</g>
<!-- 2&#45;&#45;6 -->
<g id="edge4" class="edge"><title>2&#45;&#45;6</title>
<path fill="none" stroke="black" d="M516.155,-305.903C505.344,-266.262 474.757,-154.109 463.89,-114.264"/>
<text text-anchor="middle" x="484.419" y="-211.96" font-family="Times,serif" font-size="9.00">1.0</text>
</g>
<!-- 8 -->
<g id="node8" class="node"><title>8</title>
<ellipse fill="none" stroke="black" cx="480" cy="-500" rx="14.5" ry="14.5"/>
<text text-anchor="middle" x="480" y="-497.3" font-family="Times,serif" font-size="9.00">8</text>
</g>
<!-- 5&#45;&#45;8 -->
<g id="edge8" class="edge"><title>5&#45;&#45;8</title>
<path fill="none" stroke="black" d="M553.453,-353.093C538.452,-383.096 501.726,-456.549 486.637,-486.726"/>
<text text-anchor="middle" x="514.453" y="-421.644" font-family="Times,serif" font-size="9.00">1.0</text>
</g>
<!-- 3 -->
<g id="node7" class="node"><title>3</title>
<ellipse fill="none" stroke="black" cx="380" cy="-500" rx="14.5" ry="14.5"/>
<text text-anchor="middle" x="380" y="-497.3" font-family="Times,serif" font-size="9.00">3</text>
</g>
<!-- 3&#45;&#45;10 -->
<g id="edge6" class="edge"><title>3&#45;&#45;10</title>
<path fill="none" stroke="black" d="M367.445,-492.153C338.419,-474.012 266.752,-429.22 235.26,-409.537"/>
<text text-anchor="middle" x="296.653" y="-453.223" font-family="Times,serif" font-size="9.00">1.0</text>
</g>
<!-- 3&#45;&#45;8 -->
<g id="edge5" class="edge"><title>3&#45;&#45;8</title>
<path fill="none" stroke="black" d="M394.755,-500C413.662,-500 446.248,-500 465.184,-500"/>
<text text-anchor="middle" x="424.334" y="-501.8" font-family="Times,serif" font-size="9.00">1.0</text>
</g>
<!-- 4 -->
<g id="node9" class="node"><title>4</title>
<ellipse fill="none" stroke="black" cx="540" cy="-600" rx="14.5" ry="14.5"/>
<text text-anchor="middle" x="540" y="-597.3" font-family="Times,serif" font-size="9.00">4</text>
</g>
<!-- 7 -->
<g id="node10" class="node"><title>7</title>
<ellipse fill="none" stroke="black" cx="460" cy="-560" rx="14.5" ry="14.5"/>
<text text-anchor="middle" x="460" y="-557.3" font-family="Times,serif" font-size="9.00">7</text>
</g>
<!-- 4&#45;&#45;7 -->
<g id="edge7" class="edge"><title>4&#45;&#45;7</title>
<path fill="none" stroke="black" d="M526.79,-593.395C511.967,-585.983 488.061,-574.03 473.23,-566.615"/>
<text text-anchor="middle" x="494.388" y="-581.806" font-family="Times,serif" font-size="9.00">1.0</text>
</g>
<!-- 7&#45;&#45;8 -->
<g id="edge9" class="edge"><title>7&#45;&#45;8</title>
<path fill="none" stroke="black" d="M464.639,-546.084C467.87,-536.391 472.161,-523.517 475.386,-513.841"/>
<text text-anchor="middle" x="464.39" y="-531.756" font-family="Times,serif" font-size="9.00">1.0</text>
</g>
</g>
</svg>
