<?xml version="1.0" encoding="UTF-8" standalone="no"?>
<!DOCTYPE svg PUBLIC "-//W3C//DTD SVG 1.1//EN"
 "http://www.w3.org/Graphics/SVG/1.1/DTD/svg11.dtd">
<!-- Generated by graphviz version 2.38.0 (20140413.2041)
 -->
<!-- Title: %3 Pages: 1 -->
<svg width="1217pt" height="1583pt"
 viewBox="0.00 0.00 1216.83 1583.03" xmlns="http://www.w3.org/2000/svg" xmlns:xlink="http://www.w3.org/1999/xlink">
<g id="graph0" class="graph" transform="scale(1 1) rotate(0) translate(-4.66525 1648.2)">
<title>%3</title>
<polygon fill="white" stroke="none" points="4.66525,-65.167 4.66525,-1648.2 1221.5,-1648.2 1221.5,-65.167 4.66525,-65.167"/>
<!-- 1 -->
<g id="node1" class="node"><title>1</title>
<ellipse fill="none" stroke="black" cx="80" cy="-761.33" rx="14.5" ry="14.5"/>
<text text-anchor="middle" x="80" y="-758.63" font-family="Times,serif" font-size="9.00">1</text>
</g>
<!-- 3 -->
<g id="node2" class="node"><title>3</title>
<ellipse fill="none" stroke="black" cx="80" cy="-841.33" rx="14.5" ry="14.5"/>
<text text-anchor="middle" x="80" y="-838.63" font-family="Times,serif" font-size="9.00">3</text>
</g>
<!-- 1&#45;&#45;3 -->
<g id="edge1" class="edge"><title>1&#45;&#45;3</title>
<path fill="none" stroke="black" d="M80,-776.003C80,-790.438 80,-812.347 80,-826.75"/>
<text text-anchor="middle" x="54.3379" y="-804.189" font-family="Times,serif" font-size="14.00">[1.0, 3.0]</text>
</g>
<!-- 9 -->
<g id="node3" class="node"><title>9</title>
<ellipse fill="none" stroke="black" cx="40" cy="-680" rx="14.5" ry="14.5"/>
<text text-anchor="middle" x="40" y="-677.3" font-family="Times,serif" font-size="9.00">9</text>
</g>
<!-- 1&#45;&#45;9 -->
<g id="edge2" class="edge"><title>1&#45;&#45;9</title>
<path fill="none" stroke="black" d="M73.5733,-748.263C66.1089,-733.086 53.8684,-708.198 46.4107,-693.035"/>
<text text-anchor="middle" x="34.3274" y="-723.444" font-family="Times,serif" font-size="14.00">[1.0, 1.0]</text>
</g>
<!-- 11 -->
<g id="node4" class="node"><title>11</title>
<ellipse fill="none" stroke="black" cx="760" cy="-944" rx="17.5" ry="17.5"/>
<text text-anchor="middle" x="760" y="-941.3" font-family="Times,serif" font-size="9.00">11</text>
</g>
<!-- 1&#45;&#45;11 -->
<g id="edge3" class="edge"><title>1&#45;&#45;11</title>
<path fill="none" stroke="black" d="M94.2028,-765.145C181.745,-788.662 647.417,-913.757 742.888,-939.403"/>
<text text-anchor="middle" x="389.91" y="-854.276" font-family="Times,serif" font-size="14.00">[1.0, 5.0]</text>
</g>
<!-- 14 -->
<g id="node5" class="node"><title>14</title>
<ellipse fill="none" stroke="black" cx="160" cy="-1204" rx="17.5" ry="17.5"/>
<text text-anchor="middle" x="160" y="-1201.3" font-family="Times,serif" font-size="9.00">14</text>
</g>
<!-- 1&#45;&#45;14 -->
<g id="edge4" class="edge"><title>1&#45;&#45;14</title>
<path fill="none" stroke="black" d="M83.0121,-775.786C86.3271,-791.818 91.761,-818.457 96.0994,-841.465 121.086,-973.981 148.294,-1134.34 157.087,-1186.62"/>
<text text-anchor="middle" x="95.8715" y="-983.68" font-family="Times,serif" font-size="14.00">[1.0, 5.0]</text>
</g>
<!-- 23 -->
<g id="node6" class="node"><title>23</title>
<ellipse fill="none" stroke="black" cx="440" cy="-1093.3" rx="17.5" ry="17.5"/>
<text text-anchor="middle" x="440" y="-1090.6" font-family="Times,serif" font-size="9.00">23</text>
</g>
<!-- 1&#45;&#45;23 -->
<g id="edge5" class="edge"><title>1&#45;&#45;23</title>
<path fill="none" stroke="black" d="M91.4336,-770.762C114.476,-789.85 167.996,-834.593 211.391,-873.952 295.929,-950.63 393.616,-1047.11 427.596,-1080.92"/>
<text text-anchor="middle" x="237.72" y="-924.762" font-family="Times,serif" font-size="14.00">[1.0, 5.0]</text>
</g>
<!-- 25 -->
<g id="node7" class="node"><title>25</title>
<ellipse fill="none" stroke="black" cx="400" cy="-372" rx="17.5" ry="17.5"/>
<text text-anchor="middle" x="400" y="-369.3" font-family="Times,serif" font-size="9.00">25</text>
</g>
<!-- 1&#45;&#45;25 -->
<g id="edge6" class="edge"><title>1&#45;&#45;25</title>
<path fill="none" stroke="black" d="M89.2319,-750.098C135.141,-694.243 338.641,-446.653 388.799,-385.628"/>
<text text-anchor="middle" x="211.76" y="-572.602" font-family="Times,serif" font-size="14.00">[1.0, 5.0]</text>
</g>
<!-- 30 -->
<g id="node8" class="node"><title>30</title>
<ellipse fill="none" stroke="black" cx="480" cy="-1454.7" rx="17.5" ry="17.5"/>
<text text-anchor="middle" x="480" y="-1452" font-family="Times,serif" font-size="9.00">30</text>
</g>
<!-- 1&#45;&#45;30 -->
<g id="edge7" class="edge"><title>1&#45;&#45;30</title>
<path fill="none" stroke="black" d="M87.2842,-773.957C136.309,-858.938 417.812,-1346.9 471.245,-1439.52"/>
<text text-anchor="middle" x="251.95" y="-1106.68" font-family="Times,serif" font-size="14.00">[1.0, 5.0]</text>
</g>
<!-- 7 -->
<g id="node12" class="node"><title>7</title>
<ellipse fill="none" stroke="black" cx="200" cy="-885.33" rx="14.5" ry="14.5"/>
<text text-anchor="middle" x="200" y="-882.63" font-family="Times,serif" font-size="9.00">7</text>
</g>
<!-- 3&#45;&#45;7 -->
<g id="edge10" class="edge"><title>3&#45;&#45;7</title>
<path fill="none" stroke="black" d="M93.7655,-846.377C116.79,-854.82 162.862,-871.713 186.025,-880.206"/>
<text text-anchor="middle" x="114.181" y="-866.073" font-family="Times,serif" font-size="14.00">[1.0, 2.0]</text>
</g>
<!-- 16 -->
<g id="node19" class="node"><title>16</title>
<ellipse fill="none" stroke="black" cx="800" cy="-945.33" rx="17.5" ry="17.5"/>
<text text-anchor="middle" x="800" y="-942.63" font-family="Times,serif" font-size="9.00">16</text>
</g>
<!-- 11&#45;&#45;16 -->
<g id="edge16" class="edge"><title>11&#45;&#45;16</title>
<path fill="none" stroke="black" d="M777.661,-944.587C779.252,-944.64 780.862,-944.694 782.452,-944.747"/>
<text text-anchor="middle" x="754.395" y="-947.467" font-family="Times,serif" font-size="14.00">[1.0, 4.0]</text>
</g>
<!-- 20 -->
<g id="node24" class="node"><title>20</title>
<ellipse fill="none" stroke="black" cx="80" cy="-1241.3" rx="17.5" ry="17.5"/>
<text text-anchor="middle" x="80" y="-1238.6" font-family="Times,serif" font-size="9.00">20</text>
</g>
<!-- 14&#45;&#45;20 -->
<g id="edge19" class="edge"><title>14&#45;&#45;20</title>
<path fill="none" stroke="black" d="M143.811,-1211.55C129.84,-1218.06 109.776,-1227.42 95.8921,-1233.89"/>
<text text-anchor="middle" x="94.1566" y="-1211.53" font-family="Times,serif" font-size="14.00">[1.0, 4.0]</text>
</g>
<!-- 24 -->
<g id="node11" class="node"><title>24</title>
<ellipse fill="none" stroke="black" cx="1000" cy="-1352" rx="17.5" ry="17.5"/>
<text text-anchor="middle" x="1000" y="-1349.3" font-family="Times,serif" font-size="9.00">24</text>
</g>
<!-- 23&#45;&#45;24 -->
<g id="edge28" class="edge"><title>23&#45;&#45;24</title>
<path fill="none" stroke="black" d="M456.156,-1100.76C537.662,-1138.42 903.014,-1307.2 984.047,-1344.63"/>
<text text-anchor="middle" x="694.617" y="-1225.58" font-family="Times,serif" font-size="14.00">[1.0, 4.0]</text>
</g>
<!-- 2 -->
<g id="node9" class="node"><title>2</title>
<ellipse fill="none" stroke="black" cx="1040" cy="-1313.3" rx="14.5" ry="14.5"/>
<text text-anchor="middle" x="1040" y="-1310.6" font-family="Times,serif" font-size="9.00">2</text>
</g>
<!-- 21 -->
<g id="node10" class="node"><title>21</title>
<ellipse fill="none" stroke="black" cx="1200" cy="-1278.7" rx="17.5" ry="17.5"/>
<text text-anchor="middle" x="1200" y="-1276" font-family="Times,serif" font-size="9.00">21</text>
</g>
<!-- 2&#45;&#45;21 -->
<g id="edge8" class="edge"><title>2&#45;&#45;21</title>
<path fill="none" stroke="black" d="M1054.2,-1310.23C1083.57,-1303.88 1150.9,-1289.32 1182.73,-1282.44"/>
<text text-anchor="middle" x="1091.88" y="-1299.33" font-family="Times,serif" font-size="14.00">[1.0, 1.0]</text>
</g>
<!-- 2&#45;&#45;24 -->
<g id="edge9" class="edge"><title>2&#45;&#45;24</title>
<path fill="none" stroke="black" d="M1029.49,-1323.47C1024.4,-1328.39 1018.24,-1334.36 1012.87,-1339.55"/>
<text text-anchor="middle" x="995.621" y="-1320.21" font-family="Times,serif" font-size="14.00">[1.0, 2.0]</text>
</g>
<!-- 8 -->
<g id="node18" class="node"><title>8</title>
<ellipse fill="none" stroke="black" cx="240" cy="-766.67" rx="14.5" ry="14.5"/>
<text text-anchor="middle" x="240" y="-763.97" font-family="Times,serif" font-size="9.00">8</text>
</g>
<!-- 7&#45;&#45;8 -->
<g id="edge14" class="edge"><title>7&#45;&#45;8</title>
<path fill="none" stroke="black" d="M204.746,-871.252C212.444,-848.415 227.566,-803.555 235.261,-780.73"/>
<text text-anchor="middle" x="194.342" y="-828.786" font-family="Times,serif" font-size="14.00">[1.0, 1.0]</text>
</g>
<!-- 4 -->
<g id="node13" class="node"><title>4</title>
<ellipse fill="none" stroke="black" cx="720" cy="-622.67" rx="14.5" ry="14.5"/>
<text text-anchor="middle" x="720" y="-619.97" font-family="Times,serif" font-size="9.00">4</text>
</g>
<!-- 10 -->
<g id="node14" class="node"><title>10</title>
<ellipse fill="none" stroke="black" cx="560" cy="-377.33" rx="17.5" ry="17.5"/>
<text text-anchor="middle" x="560" y="-374.63" font-family="Times,serif" font-size="9.00">10</text>
</g>
<!-- 4&#45;&#45;10 -->
<g id="edge11" class="edge"><title>4&#45;&#45;10</title>
<path fill="none" stroke="black" d="M712.066,-610.504C685.33,-569.508 598.59,-436.503 569.563,-391.994"/>
<text text-anchor="middle" x="616.011" y="-505.366" font-family="Times,serif" font-size="14.00">[1.0, 1.0]</text>
</g>
<!-- 10&#45;&#45;25 -->
<g id="edge15" class="edge"><title>10&#45;&#45;25</title>
<path fill="none" stroke="black" d="M542.266,-376.739C511.511,-375.715 448.624,-373.62 417.814,-372.593"/>
<text text-anchor="middle" x="454.398" y="-377.467" font-family="Times,serif" font-size="14.00">[1.0, 2.0]</text>
</g>
<!-- 5 -->
<g id="node15" class="node"><title>5</title>
<ellipse fill="none" stroke="black" cx="1080" cy="-274.67" rx="14.5" ry="14.5"/>
<text text-anchor="middle" x="1080" y="-271.97" font-family="Times,serif" font-size="9.00">5</text>
</g>
<!-- 27 -->
<g id="node16" class="node"><title>27</title>
<ellipse fill="none" stroke="black" cx="1080" cy="-674.67" rx="17.5" ry="17.5"/>
<text text-anchor="middle" x="1080" y="-671.97" font-family="Times,serif" font-size="9.00">27</text>
</g>
<!-- 5&#45;&#45;27 -->
<g id="edge12" class="edge"><title>5&#45;&#45;27</title>
<path fill="none" stroke="black" d="M1080,-289.381C1080,-351.116 1080,-589.191 1080,-656.72"/>
<text text-anchor="middle" x="1054.34" y="-473.678" font-family="Times,serif" font-size="14.00">[1.0, 1.0]</text>
</g>
<!-- 6 -->
<g id="node17" class="node"><title>6</title>
<ellipse fill="none" stroke="black" cx="1120" cy="-1436" rx="14.5" ry="14.5"/>
<text text-anchor="middle" x="1120" y="-1433.3" font-family="Times,serif" font-size="9.00">6</text>
</g>
<!-- 6&#45;&#45;24 -->
<g id="edge13" class="edge"><title>6&#45;&#45;24</title>
<path fill="none" stroke="black" d="M1108.06,-1427.64C1085.88,-1412.12 1038.45,-1378.91 1014.49,-1362.14"/>
<text text-anchor="middle" x="1036.28" y="-1398.16" font-family="Times,serif" font-size="14.00">[1.0, 1.0]</text>
</g>
<!-- 19 -->
<g id="node27" class="node"><title>19</title>
<ellipse fill="none" stroke="black" cx="960" cy="-830.67" rx="17.5" ry="17.5"/>
<text text-anchor="middle" x="960" y="-827.97" font-family="Times,serif" font-size="9.00">19</text>
</g>
<!-- 16&#45;&#45;19 -->
<g id="edge22" class="edge"><title>16&#45;&#45;19</title>
<path fill="none" stroke="black" d="M814.481,-934.952C844.943,-913.122 915.335,-862.678 945.667,-840.941"/>
<text text-anchor="middle" x="854.461" y="-890.712" font-family="Times,serif" font-size="14.00">[1.0, 3.0]</text>
</g>
<!-- 12 -->
<g id="node20" class="node"><title>12</title>
<ellipse fill="none" stroke="black" cx="400" cy="-1612" rx="17.5" ry="17.5"/>
<text text-anchor="middle" x="400" y="-1609.3" font-family="Times,serif" font-size="9.00">12</text>
</g>
<!-- 17 -->
<g id="node21" class="node"><title>17</title>
<ellipse fill="none" stroke="black" cx="120" cy="-1602.7" rx="17.5" ry="17.5"/>
<text text-anchor="middle" x="120" y="-1600" font-family="Times,serif" font-size="9.00">17</text>
</g>
<!-- 12&#45;&#45;17 -->
<g id="edge17" class="edge"><title>12&#45;&#45;17</title>
<path fill="none" stroke="black" d="M382.485,-1611.42C332.201,-1609.75 187.785,-1604.95 137.509,-1603.28"/>
<text text-anchor="middle" x="234.331" y="-1610.15" font-family="Times,serif" font-size="14.00">[1.0, 1.0]</text>
</g>
<!-- 28 -->
<g id="node28" class="node"><title>28</title>
<ellipse fill="none" stroke="black" cx="80" cy="-1441.3" rx="17.5" ry="17.5"/>
<text text-anchor="middle" x="80" y="-1438.6" font-family="Times,serif" font-size="9.00">28</text>
</g>
<!-- 17&#45;&#45;28 -->
<g id="edge23" class="edge"><title>17&#45;&#45;28</title>
<path fill="none" stroke="black" d="M115.719,-1585.43C108.02,-1554.36 91.9264,-1489.42 84.2499,-1458.45"/>
<text text-anchor="middle" x="74.3141" y="-1524.7" font-family="Times,serif" font-size="14.00">[1.0, 2.0]</text>
</g>
<!-- 13 -->
<g id="node22" class="node"><title>13</title>
<ellipse fill="none" stroke="black" cx="840" cy="-1626.7" rx="17.5" ry="17.5"/>
<text text-anchor="middle" x="840" y="-1624" font-family="Times,serif" font-size="9.00">13</text>
</g>
<!-- 26 -->
<g id="node23" class="node"><title>26</title>
<ellipse fill="none" stroke="black" cx="800" cy="-1465.3" rx="17.5" ry="17.5"/>
<text text-anchor="middle" x="800" y="-1462.6" font-family="Times,serif" font-size="9.00">26</text>
</g>
<!-- 13&#45;&#45;26 -->
<g id="edge18" class="edge"><title>13&#45;&#45;26</title>
<path fill="none" stroke="black" d="M835.719,-1609.43C828.02,-1578.36 811.926,-1513.42 804.25,-1482.45"/>
<text text-anchor="middle" x="794.314" y="-1548.7" font-family="Times,serif" font-size="14.00">[1.0, 1.0]</text>
</g>
<!-- 20&#45;&#45;28 -->
<g id="edge25" class="edge"><title>20&#45;&#45;28</title>
<path fill="none" stroke="black" d="M80,-1259.05C80,-1297 80,-1385.67 80,-1423.59"/>
<text text-anchor="middle" x="54.3379" y="-1344.13" font-family="Times,serif" font-size="14.00">[1.0, 3.0]</text>
</g>
<!-- 15 -->
<g id="node25" class="node"><title>15</title>
<ellipse fill="none" stroke="black" cx="360" cy="-250.67" rx="17.5" ry="17.5"/>
<text text-anchor="middle" x="360" y="-247.97" font-family="Times,serif" font-size="9.00">15</text>
</g>
<!-- 15&#45;&#45;25 -->
<g id="edge21" class="edge"><title>15&#45;&#45;25</title>
<path fill="none" stroke="black" d="M365.562,-267.54C373.204,-290.721 386.868,-332.168 394.485,-355.273"/>
<text text-anchor="middle" x="354.371" y="-314.235" font-family="Times,serif" font-size="14.00">[1.0, 2.0]</text>
</g>
<!-- 18 -->
<g id="node26" class="node"><title>18</title>
<ellipse fill="none" stroke="black" cx="240" cy="-86.667" rx="17.5" ry="17.5"/>
<text text-anchor="middle" x="240" y="-83.967" font-family="Times,serif" font-size="9.00">18</text>
</g>
<!-- 15&#45;&#45;18 -->
<g id="edge20" class="edge"><title>15&#45;&#45;18</title>
<path fill="none" stroke="black" d="M349.561,-236.403C326.866,-205.386 273.251,-132.111 250.501,-101.018"/>
<text text-anchor="middle" x="274.389" y="-171.539" font-family="Times,serif" font-size="14.00">[1.0, 1.0]</text>
</g>
<!-- 19&#45;&#45;27 -->
<g id="edge24" class="edge"><title>19&#45;&#45;27</title>
<path fill="none" stroke="black" d="M970.861,-816.551C993.707,-786.85 1046.5,-718.219 1069.25,-688.645"/>
<text text-anchor="middle" x="994.43" y="-755.35" font-family="Times,serif" font-size="14.00">[1.0, 2.0]</text>
</g>
<!-- 22 -->
<g id="node29" class="node"><title>22</title>
<ellipse fill="none" stroke="black" cx="720" cy="-1502.7" rx="17.5" ry="17.5"/>
<text text-anchor="middle" x="720" y="-1500" font-family="Times,serif" font-size="9.00">22</text>
</g>
<!-- 22&#45;&#45;26 -->
<g id="edge26" class="edge"><title>22&#45;&#45;26</title>
<path fill="none" stroke="black" d="M736.189,-1495.13C750.16,-1488.6 770.224,-1479.22 784.108,-1472.73"/>
<text text-anchor="middle" x="734.519" y="-1472.72" font-family="Times,serif" font-size="14.00">[1.0, 2.0]</text>
</g>
<!-- 29 -->
<g id="node30" class="node"><title>29</title>
<ellipse fill="none" stroke="black" cx="600" cy="-1538.7" rx="17.5" ry="17.5"/>
<text text-anchor="middle" x="600" y="-1536" font-family="Times,serif" font-size="9.00">29</text>
</g>
<!-- 22&#45;&#45;29 -->
<g id="edge27" class="edge"><title>22&#45;&#45;29</title>
<path fill="none" stroke="black" d="M703.061,-1507.78C680.191,-1514.64 639.678,-1526.8 616.852,-1533.64"/>
<text text-anchor="middle" x="634.278" y="-1509.52" font-family="Times,serif" font-size="14.00">[1.0, 3.0]</text>
</g>
<!-- 29&#45;&#45;30 -->
<g id="edge29" class="edge"><title>29&#45;&#45;30</title>
<path fill="none" stroke="black" d="M585.286,-1528.4C562.129,-1512.19 517.458,-1480.92 494.46,-1464.82"/>
<text text-anchor="middle" x="514.151" y="-1499.37" font-family="Times,serif" font-size="14.00">[1.0, 4.0]</text>
</g>
</g>
</svg>
