<?xml version="1.0" encoding="UTF-8" standalone="no"?>
<!DOCTYPE svg PUBLIC "-//W3C//DTD SVG 1.1//EN"
 "http://www.w3.org/Graphics/SVG/1.1/DTD/svg11.dtd">
<!-- Generated by graphviz version 2.38.0 (20140413.2041)
 -->
<!-- Title: %3 Pages: 1 -->
<svg width="577pt" height="717pt"
 viewBox="0.00 0.00 577.00 717.00" xmlns="http://www.w3.org/2000/svg" xmlns:xlink="http://www.w3.org/1999/xlink">
<g id="graph0" class="graph" transform="scale(1 1) rotate(0) translate(-1.5 798.5)">
<title>%3</title>
<polygon fill="white" stroke="none" points="1.5,-81.5 1.5,-798.5 578.5,-798.5 578.5,-81.5 1.5,-81.5"/>
<!-- 1 -->
<g id="node1" class="node"><title>1</title>
<ellipse fill="none" stroke="black" cx="20" cy="-660" rx="14.5" ry="14.5"/>
<text text-anchor="middle" x="20" y="-657.3" font-family="Times,serif" font-size="9.00">1</text>
</g>
<!-- 2 -->
<g id="node2" class="node"><title>2</title>
<ellipse fill="none" stroke="black" cx="520" cy="-320" rx="14.5" ry="14.5"/>
<text text-anchor="middle" x="520" y="-317.3" font-family="Times,serif" font-size="9.00">2</text>
</g>
<!-- 3 -->
<g id="node3" class="node"><title>3</title>
<ellipse fill="none" stroke="black" cx="380" cy="-500" rx="14.5" ry="14.5"/>
<text text-anchor="middle" x="380" y="-497.3" font-family="Times,serif" font-size="9.00">3</text>
</g>
<!-- 4 -->
<g id="node4" class="node"><title>4</title>
<ellipse fill="none" stroke="black" cx="540" cy="-600" rx="14.5" ry="14.5"/>
<text text-anchor="middle" x="540" y="-597.3" font-family="Times,serif" font-size="9.00">4</text>
</g>
<!-- 5 -->
<g id="node5" class="node"><title>5</title>
<ellipse fill="none" stroke="black" cx="560" cy="-340" rx="14.5" ry="14.5"/>
<text text-anchor="middle" x="560" y="-337.3" font-family="Times,serif" font-size="9.00">5</text>
</g>
<!-- 6 -->
<g id="node6" class="node"><title>6</title>
<ellipse fill="none" stroke="black" cx="460" cy="-100" rx="14.5" ry="14.5"/>
<text text-anchor="middle" x="460" y="-97.3" font-family="Times,serif" font-size="9.00">6</text>
</g>
<!-- 7 -->
<g id="node7" class="node"><title>7</title>
<ellipse fill="none" stroke="black" cx="460" cy="-560" rx="14.5" ry="14.5"/>
<text text-anchor="middle" x="460" y="-557.3" font-family="Times,serif" font-size="9.00">7</text>
</g>
<!-- 8 -->
<g id="node8" class="node"><title>8</title>
<ellipse fill="none" stroke="black" cx="480" cy="-500" rx="14.5" ry="14.5"/>
<text text-anchor="middle" x="480" y="-497.3" font-family="Times,serif" font-size="9.00">8</text>
</g>
<!-- 9 -->
<g id="node9" class="node"><title>9</title>
<ellipse fill="none" stroke="black" cx="60" cy="-780" rx="14.5" ry="14.5"/>
<text text-anchor="middle" x="60" y="-777.3" font-family="Times,serif" font-size="9.00">9</text>
</g>
<!-- 10 -->
<g id="node10" class="node"><title>10</title>
<ellipse fill="none" stroke="black" cx="220" cy="-400" rx="17.5" ry="17.5"/>
<text text-anchor="middle" x="220" y="-397.3" font-family="Times,serif" font-size="9.00">10</text>
</g>
</g>
</svg>
