<?xml version="1.0" encoding="UTF-8" standalone="no"?>
<!DOCTYPE svg PUBLIC "-//W3C//DTD SVG 1.1//EN"
 "http://www.w3.org/Graphics/SVG/1.1/DTD/svg11.dtd">
<!-- Generated by graphviz version 2.38.0 (20140413.2041)
 -->
<!-- Title: %3 Pages: 1 -->
<svg width="1200pt" height="1583pt"
 viewBox="0.00 0.00 1200.00 1583.03" xmlns="http://www.w3.org/2000/svg" xmlns:xlink="http://www.w3.org/1999/xlink">
<g id="graph0" class="graph" transform="scale(1 1) rotate(0) translate(-21.5 1648.2)">
<title>%3</title>
<polygon fill="white" stroke="none" points="21.5,-65.167 21.5,-1648.2 1221.5,-1648.2 1221.5,-65.167 21.5,-65.167"/>
<!-- 1 -->
<g id="node1" class="node"><title>1</title>
<ellipse fill="none" stroke="black" cx="80" cy="-761.33" rx="14.5" ry="14.5"/>
<text text-anchor="middle" x="80" y="-758.63" font-family="Times,serif" font-size="9.00">1</text>
</g>
<!-- 2 -->
<g id="node2" class="node"><title>2</title>
<ellipse fill="none" stroke="black" cx="1040" cy="-1313.3" rx="14.5" ry="14.5"/>
<text text-anchor="middle" x="1040" y="-1310.6" font-family="Times,serif" font-size="9.00">2</text>
</g>
<!-- 3 -->
<g id="node3" class="node"><title>3</title>
<ellipse fill="none" stroke="black" cx="80" cy="-841.33" rx="14.5" ry="14.5"/>
<text text-anchor="middle" x="80" y="-838.63" font-family="Times,serif" font-size="9.00">3</text>
</g>
<!-- 4 -->
<g id="node4" class="node"><title>4</title>
<ellipse fill="none" stroke="black" cx="720" cy="-622.67" rx="14.5" ry="14.5"/>
<text text-anchor="middle" x="720" y="-619.97" font-family="Times,serif" font-size="9.00">4</text>
</g>
<!-- 5 -->
<g id="node5" class="node"><title>5</title>
<ellipse fill="none" stroke="black" cx="1080" cy="-274.67" rx="14.5" ry="14.5"/>
<text text-anchor="middle" x="1080" y="-271.97" font-family="Times,serif" font-size="9.00">5</text>
</g>
<!-- 6 -->
<g id="node6" class="node"><title>6</title>
<ellipse fill="none" stroke="black" cx="1120" cy="-1436" rx="14.5" ry="14.5"/>
<text text-anchor="middle" x="1120" y="-1433.3" font-family="Times,serif" font-size="9.00">6</text>
</g>
<!-- 7 -->
<g id="node7" class="node"><title>7</title>
<ellipse fill="none" stroke="black" cx="200" cy="-885.33" rx="14.5" ry="14.5"/>
<text text-anchor="middle" x="200" y="-882.63" font-family="Times,serif" font-size="9.00">7</text>
</g>
<!-- 8 -->
<g id="node8" class="node"><title>8</title>
<ellipse fill="none" stroke="black" cx="240" cy="-766.67" rx="14.5" ry="14.5"/>
<text text-anchor="middle" x="240" y="-763.97" font-family="Times,serif" font-size="9.00">8</text>
</g>
<!-- 9 -->
<g id="node9" class="node"><title>9</title>
<ellipse fill="none" stroke="black" cx="40" cy="-680" rx="14.5" ry="14.5"/>
<text text-anchor="middle" x="40" y="-677.3" font-family="Times,serif" font-size="9.00">9</text>
</g>
<!-- 10 -->
<g id="node10" class="node"><title>10</title>
<ellipse fill="none" stroke="black" cx="560" cy="-377.33" rx="17.5" ry="17.5"/>
<text text-anchor="middle" x="560" y="-374.63" font-family="Times,serif" font-size="9.00">10</text>
</g>
<!-- 11 -->
<g id="node11" class="node"><title>11</title>
<ellipse fill="none" stroke="black" cx="760" cy="-944" rx="17.5" ry="17.5"/>
<text text-anchor="middle" x="760" y="-941.3" font-family="Times,serif" font-size="9.00">11</text>
</g>
<!-- 12 -->
<g id="node12" class="node"><title>12</title>
<ellipse fill="none" stroke="black" cx="400" cy="-1612" rx="17.5" ry="17.5"/>
<text text-anchor="middle" x="400" y="-1609.3" font-family="Times,serif" font-size="9.00">12</text>
</g>
<!-- 13 -->
<g id="node13" class="node"><title>13</title>
<ellipse fill="none" stroke="black" cx="840" cy="-1626.7" rx="17.5" ry="17.5"/>
<text text-anchor="middle" x="840" y="-1624" font-family="Times,serif" font-size="9.00">13</text>
</g>
<!-- 14 -->
<g id="node14" class="node"><title>14</title>
<ellipse fill="none" stroke="black" cx="160" cy="-1204" rx="17.5" ry="17.5"/>
<text text-anchor="middle" x="160" y="-1201.3" font-family="Times,serif" font-size="9.00">14</text>
</g>
<!-- 15 -->
<g id="node15" class="node"><title>15</title>
<ellipse fill="none" stroke="black" cx="360" cy="-250.67" rx="17.5" ry="17.5"/>
<text text-anchor="middle" x="360" y="-247.97" font-family="Times,serif" font-size="9.00">15</text>
</g>
<!-- 16 -->
<g id="node16" class="node"><title>16</title>
<ellipse fill="none" stroke="black" cx="800" cy="-945.33" rx="17.5" ry="17.5"/>
<text text-anchor="middle" x="800" y="-942.63" font-family="Times,serif" font-size="9.00">16</text>
</g>
<!-- 17 -->
<g id="node17" class="node"><title>17</title>
<ellipse fill="none" stroke="black" cx="120" cy="-1602.7" rx="17.5" ry="17.5"/>
<text text-anchor="middle" x="120" y="-1600" font-family="Times,serif" font-size="9.00">17</text>
</g>
<!-- 18 -->
<g id="node18" class="node"><title>18</title>
<ellipse fill="none" stroke="black" cx="240" cy="-86.667" rx="17.5" ry="17.5"/>
<text text-anchor="middle" x="240" y="-83.967" font-family="Times,serif" font-size="9.00">18</text>
</g>
<!-- 19 -->
<g id="node19" class="node"><title>19</title>
<ellipse fill="none" stroke="black" cx="960" cy="-830.67" rx="17.5" ry="17.5"/>
<text text-anchor="middle" x="960" y="-827.97" font-family="Times,serif" font-size="9.00">19</text>
</g>
<!-- 20 -->
<g id="node20" class="node"><title>20</title>
<ellipse fill="none" stroke="black" cx="80" cy="-1241.3" rx="17.5" ry="17.5"/>
<text text-anchor="middle" x="80" y="-1238.6" font-family="Times,serif" font-size="9.00">20</text>
</g>
<!-- 21 -->
<g id="node21" class="node"><title>21</title>
<ellipse fill="none" stroke="black" cx="1200" cy="-1278.7" rx="17.5" ry="17.5"/>
<text text-anchor="middle" x="1200" y="-1276" font-family="Times,serif" font-size="9.00">21</text>
</g>
<!-- 22 -->
<g id="node22" class="node"><title>22</title>
<ellipse fill="none" stroke="black" cx="720" cy="-1502.7" rx="17.5" ry="17.5"/>
<text text-anchor="middle" x="720" y="-1500" font-family="Times,serif" font-size="9.00">22</text>
</g>
<!-- 23 -->
<g id="node23" class="node"><title>23</title>
<ellipse fill="none" stroke="black" cx="440" cy="-1093.3" rx="17.5" ry="17.5"/>
<text text-anchor="middle" x="440" y="-1090.6" font-family="Times,serif" font-size="9.00">23</text>
</g>
<!-- 24 -->
<g id="node24" class="node"><title>24</title>
<ellipse fill="none" stroke="black" cx="1000" cy="-1352" rx="17.5" ry="17.5"/>
<text text-anchor="middle" x="1000" y="-1349.3" font-family="Times,serif" font-size="9.00">24</text>
</g>
<!-- 25 -->
<g id="node25" class="node"><title>25</title>
<ellipse fill="none" stroke="black" cx="400" cy="-372" rx="17.5" ry="17.5"/>
<text text-anchor="middle" x="400" y="-369.3" font-family="Times,serif" font-size="9.00">25</text>
</g>
<!-- 26 -->
<g id="node26" class="node"><title>26</title>
<ellipse fill="none" stroke="black" cx="800" cy="-1465.3" rx="17.5" ry="17.5"/>
<text text-anchor="middle" x="800" y="-1462.6" font-family="Times,serif" font-size="9.00">26</text>
</g>
<!-- 27 -->
<g id="node27" class="node"><title>27</title>
<ellipse fill="none" stroke="black" cx="1080" cy="-674.67" rx="17.5" ry="17.5"/>
<text text-anchor="middle" x="1080" y="-671.97" font-family="Times,serif" font-size="9.00">27</text>
</g>
<!-- 28 -->
<g id="node28" class="node"><title>28</title>
<ellipse fill="none" stroke="black" cx="80" cy="-1441.3" rx="17.5" ry="17.5"/>
<text text-anchor="middle" x="80" y="-1438.6" font-family="Times,serif" font-size="9.00">28</text>
</g>
<!-- 29 -->
<g id="node29" class="node"><title>29</title>
<ellipse fill="none" stroke="black" cx="600" cy="-1538.7" rx="17.5" ry="17.5"/>
<text text-anchor="middle" x="600" y="-1536" font-family="Times,serif" font-size="9.00">29</text>
</g>
<!-- 30 -->
<g id="node30" class="node"><title>30</title>
<ellipse fill="none" stroke="black" cx="480" cy="-1454.7" rx="17.5" ry="17.5"/>
<text text-anchor="middle" x="480" y="-1452" font-family="Times,serif" font-size="9.00">30</text>
</g>
</g>
</svg>
