<?xml version="1.0" encoding="UTF-8" standalone="no"?>
<!DOCTYPE svg PUBLIC "-//W3C//DTD SVG 1.1//EN"
 "http://www.w3.org/Graphics/SVG/1.1/DTD/svg11.dtd">
<!-- Generated by graphviz version 2.38.0 (20140413.2041)
 -->
<!-- Title: %3 Pages: 1 -->
<svg width="790pt" height="1290pt"
 viewBox="0.00 0.00 790.00 1290.00" xmlns="http://www.w3.org/2000/svg" xmlns:xlink="http://www.w3.org/1999/xlink">
<g id="graph0" class="graph" transform="scale(1 1) rotate(0) translate(-5 1355)">
<title>%3</title>
<polygon fill="white" stroke="none" points="5,-65 5,-1355 795,-1355 795,-65 5,-65"/>
<!-- 1 -->
<g id="node1" class="node"><title>1</title>
<ellipse fill="none" stroke="black" cx="240" cy="-640" rx="11" ry="11"/>
<text text-anchor="middle" x="240" y="-637.6" font-family="Times,serif" font-size="8.00">1</text>
</g>
<!-- 9 -->
<g id="node2" class="node"><title>9</title>
<ellipse fill="none" stroke="black" cx="200" cy="-580" rx="11" ry="11"/>
<text text-anchor="middle" x="200" y="-577.6" font-family="Times,serif" font-size="8.00">9</text>
</g>
<!-- 1&#45;&gt;9 -->
<g id="edge1" class="edge"><title>1&#45;&gt;9</title>
<path fill="none" stroke="black" d="M233.75,-630.625C227.972,-621.958 219.226,-608.839 212.085,-598.128"/>
<polygon fill="black" stroke="black" points="214.797,-595.886 206.338,-589.507 208.973,-599.769 214.797,-595.886"/>
<text text-anchor="middle" x="217.918" y="-615.976" font-family="Times,serif" font-size="8.00">1.0</text>
</g>
<!-- 23 -->
<g id="node15" class="node"><title>23</title>
<ellipse fill="none" stroke="black" cx="20" cy="-620" rx="11" ry="11"/>
<text text-anchor="middle" x="20" y="-617.6" font-family="Times,serif" font-size="8.00">23</text>
</g>
<!-- 9&#45;&gt;23 -->
<g id="edge9" class="edge"><title>9&#45;&gt;23</title>
<path fill="none" stroke="black" d="M189.011,-582.442C159.694,-588.957 79.2511,-606.833 40.8865,-615.359"/>
<polygon fill="black" stroke="black" points="39.8476,-612.004 30.845,-617.59 41.3662,-618.837 39.8476,-612.004"/>
<text text-anchor="middle" x="109.949" y="-600.5" font-family="Times,serif" font-size="8.00">1.0</text>
</g>
<!-- 2 -->
<g id="node3" class="node"><title>2</title>
<ellipse fill="none" stroke="black" cx="120" cy="-980" rx="11" ry="11"/>
<text text-anchor="middle" x="120" y="-977.6" font-family="Times,serif" font-size="8.00">2</text>
</g>
<!-- 7 -->
<g id="node4" class="node"><title>7</title>
<ellipse fill="none" stroke="black" cx="80" cy="-1340" rx="11" ry="11"/>
<text text-anchor="middle" x="80" y="-1337.6" font-family="Times,serif" font-size="8.00">7</text>
</g>
<!-- 2&#45;&gt;7 -->
<g id="edge2" class="edge"><title>2&#45;&gt;7</title>
<path fill="none" stroke="black" d="M118.759,-991.169C113.125,-1041.88 89.9008,-1250.89 82.3696,-1318.67"/>
<polygon fill="black" stroke="black" points="78.8523,-1318.64 81.2265,-1328.96 85.8095,-1319.41 78.8523,-1318.64"/>
<text text-anchor="middle" x="95.5643" y="-1156.52" font-family="Times,serif" font-size="8.00">1.0</text>
</g>
<!-- 21 -->
<g id="node12" class="node"><title>21</title>
<ellipse fill="none" stroke="black" cx="280" cy="-1260" rx="11" ry="11"/>
<text text-anchor="middle" x="280" y="-1257.6" font-family="Times,serif" font-size="8.00">21</text>
</g>
<!-- 7&#45;&gt;21 -->
<g id="edge7" class="edge"><title>7&#45;&gt;21</title>
<path fill="none" stroke="black" d="M90.4713,-1335.81C122.332,-1323.07 218.468,-1284.61 260.252,-1267.9"/>
<polygon fill="black" stroke="black" points="261.647,-1271.11 269.632,-1264.15 259.048,-1264.61 261.647,-1271.11"/>
<text text-anchor="middle" x="170.362" y="-1303.46" font-family="Times,serif" font-size="8.00">1.0</text>
</g>
<!-- 3 -->
<g id="node5" class="node"><title>3</title>
<ellipse fill="none" stroke="black" cx="500" cy="-440" rx="11" ry="11"/>
<text text-anchor="middle" x="500" y="-437.6" font-family="Times,serif" font-size="8.00">3</text>
</g>
<!-- 12 -->
<g id="node6" class="node"><title>12</title>
<ellipse fill="none" stroke="black" cx="300" cy="-220" rx="11" ry="11"/>
<text text-anchor="middle" x="300" y="-217.6" font-family="Times,serif" font-size="8.00">12</text>
</g>
<!-- 3&#45;&gt;12 -->
<g id="edge3" class="edge"><title>3&#45;&gt;12</title>
<path fill="none" stroke="black" d="M492.404,-431.644C462.704,-398.974 354.126,-279.539 314.554,-236.009"/>
<polygon fill="black" stroke="black" points="316.92,-233.409 307.604,-228.364 311.741,-238.118 316.92,-233.409"/>
<text text-anchor="middle" x="398.479" y="-335.427" font-family="Times,serif" font-size="8.00">1.0</text>
</g>
<!-- 24 -->
<g id="node19" class="node"><title>24</title>
<ellipse fill="none" stroke="black" cx="440" cy="-80" rx="11" ry="11"/>
<text text-anchor="middle" x="440" y="-77.6" font-family="Times,serif" font-size="8.00">24</text>
</g>
<!-- 12&#45;&gt;24 -->
<g id="edge12" class="edge"><title>12&#45;&gt;24</title>
<path fill="none" stroke="black" d="M307.928,-212.072C330.452,-189.548 395.107,-124.893 424.781,-95.2191"/>
<polygon fill="black" stroke="black" points="427.563,-97.3872 432.159,-87.8412 422.613,-92.4374 427.563,-97.3872"/>
<text text-anchor="middle" x="361.354" y="-155.246" font-family="Times,serif" font-size="8.00">1.0</text>
</g>
<!-- 4 -->
<g id="node7" class="node"><title>4</title>
<ellipse fill="none" stroke="black" cx="520" cy="-1320" rx="11" ry="11"/>
<text text-anchor="middle" x="520" y="-1317.6" font-family="Times,serif" font-size="8.00">4</text>
</g>
<!-- 27 -->
<g id="node8" class="node"><title>27</title>
<ellipse fill="none" stroke="black" cx="760" cy="-1160" rx="11" ry="11"/>
<text text-anchor="middle" x="760" y="-1157.6" font-family="Times,serif" font-size="8.00">27</text>
</g>
<!-- 4&#45;&gt;27 -->
<g id="edge4" class="edge"><title>4&#45;&gt;27</title>
<path fill="none" stroke="black" d="M529.408,-1313.73C565.401,-1289.73 694.726,-1203.52 742.287,-1171.81"/>
<polygon fill="black" stroke="black" points="744.278,-1174.69 750.657,-1166.23 740.395,-1168.86 744.278,-1174.69"/>
<text text-anchor="middle" x="630.848" y="-1244.37" font-family="Times,serif" font-size="8.00">1.0</text>
</g>
<!-- 25 -->
<g id="node29" class="node"><title>25</title>
<ellipse fill="none" stroke="black" cx="700" cy="-1020" rx="11" ry="11"/>
<text text-anchor="middle" x="700" y="-1017.6" font-family="Times,serif" font-size="8.00">25</text>
</g>
<!-- 27&#45;&gt;25 -->
<g id="edge27" class="edge"><title>27&#45;&gt;25</title>
<path fill="none" stroke="black" d="M755.49,-1149.48C745.495,-1126.15 721.346,-1069.81 708.45,-1039.72"/>
<polygon fill="black" stroke="black" points="711.555,-1038.08 704.399,-1030.26 705.121,-1040.83 711.555,-1038.08"/>
<text text-anchor="middle" x="726.97" y="-1096.2" font-family="Times,serif" font-size="8.00">1.0</text>
</g>
<!-- 5 -->
<g id="node9" class="node"><title>5</title>
<ellipse fill="none" stroke="black" cx="600" cy="-740" rx="11" ry="11"/>
<text text-anchor="middle" x="600" y="-737.6" font-family="Times,serif" font-size="8.00">5</text>
</g>
<!-- 30 -->
<g id="node10" class="node"><title>30</title>
<ellipse fill="none" stroke="black" cx="520" cy="-780" rx="11" ry="11"/>
<text text-anchor="middle" x="520" y="-777.6" font-family="Times,serif" font-size="8.00">30</text>
</g>
<!-- 5&#45;&gt;30 -->
<g id="edge5" class="edge"><title>5&#45;&gt;30</title>
<path fill="none" stroke="black" d="M589.868,-745.066C577.124,-751.438 554.984,-762.508 539.038,-770.481"/>
<polygon fill="black" stroke="black" points="537.429,-767.372 530.05,-774.975 540.559,-773.633 537.429,-767.372"/>
<text text-anchor="middle" x="559.453" y="-759.373" font-family="Times,serif" font-size="8.00">1.0</text>
</g>
<!-- 18 -->
<g id="node24" class="node"><title>18</title>
<ellipse fill="none" stroke="black" cx="540" cy="-1040" rx="11" ry="11"/>
<text text-anchor="middle" x="540" y="-1037.6" font-family="Times,serif" font-size="8.00">18</text>
</g>
<!-- 30&#45;&gt;18 -->
<g id="edge30" class="edge"><title>30&#45;&gt;18</title>
<path fill="none" stroke="black" d="M520.859,-791.172C523.917,-830.925 534.303,-965.944 538.359,-1018.66"/>
<polygon fill="black" stroke="black" points="534.887,-1019.17 539.144,-1028.87 541.866,-1018.63 534.887,-1019.17"/>
<text text-anchor="middle" x="524.609" y="-906.518" font-family="Times,serif" font-size="8.00">1.0</text>
</g>
<!-- 6 -->
<g id="node11" class="node"><title>6</title>
<ellipse fill="none" stroke="black" cx="100" cy="-740" rx="11" ry="11"/>
<text text-anchor="middle" x="100" y="-737.6" font-family="Times,serif" font-size="8.00">6</text>
</g>
<!-- 6&#45;&gt;2 -->
<g id="edge6" class="edge"><title>6&#45;&gt;2</title>
<path fill="none" stroke="black" d="M100.938,-751.254C104.054,-788.654 114.101,-909.21 118.216,-958.598"/>
<polygon fill="black" stroke="black" points="114.746,-959.096 119.064,-968.771 121.722,-958.514 114.746,-959.096"/>
<text text-anchor="middle" x="104.577" y="-856.526" font-family="Times,serif" font-size="8.00">1.0</text>
</g>
<!-- 21&#45;&gt;4 -->
<g id="edge21" class="edge"><title>21&#45;&gt;4</title>
<path fill="none" stroke="black" d="M290.936,-1262.73C328.192,-1272.05 450.552,-1302.64 499.497,-1314.87"/>
<polygon fill="black" stroke="black" points="498.724,-1318.29 509.274,-1317.32 500.422,-1311.5 498.724,-1318.29"/>
<text text-anchor="middle" x="390.217" y="-1290.4" font-family="Times,serif" font-size="8.00">1.0</text>
</g>
<!-- 8 -->
<g id="node13" class="node"><title>8</title>
<ellipse fill="none" stroke="black" cx="700" cy="-160" rx="11" ry="11"/>
<text text-anchor="middle" x="700" y="-157.6" font-family="Times,serif" font-size="8.00">8</text>
</g>
<!-- 20 -->
<g id="node14" class="node"><title>20</title>
<ellipse fill="none" stroke="black" cx="660" cy="-440" rx="11" ry="11"/>
<text text-anchor="middle" x="660" y="-437.6" font-family="Times,serif" font-size="8.00">20</text>
</g>
<!-- 8&#45;&gt;20 -->
<g id="edge8" class="edge"><title>8&#45;&gt;20</title>
<path fill="none" stroke="black" d="M698.432,-170.976C692.446,-212.881 670.969,-363.219 663.002,-418.986"/>
<polygon fill="black" stroke="black" points="659.507,-418.705 661.557,-429.1 666.436,-419.695 659.507,-418.705"/>
<text text-anchor="middle" x="675.717" y="-296.581" font-family="Times,serif" font-size="8.00">1.0</text>
</g>
<!-- 29 -->
<g id="node27" class="node"><title>29</title>
<ellipse fill="none" stroke="black" cx="680" cy="-520" rx="11" ry="11"/>
<text text-anchor="middle" x="680" y="-517.6" font-family="Times,serif" font-size="8.00">29</text>
</g>
<!-- 20&#45;&gt;29 -->
<g id="edge20" class="edge"><title>20&#45;&gt;29</title>
<path fill="none" stroke="black" d="M662.697,-450.789C665.799,-463.195 670.961,-483.843 674.841,-499.364"/>
<polygon fill="black" stroke="black" points="671.461,-500.274 677.282,-509.126 678.252,-498.576 671.461,-500.274"/>
<text text-anchor="middle" x="663.769" y="-476.677" font-family="Times,serif" font-size="8.00">1.0</text>
</g>
<!-- 23&#45;&gt;6 -->
<g id="edge23" class="edge"><title>23&#45;&gt;6</title>
<path fill="none" stroke="black" d="M26.2775,-629.416C39.5966,-649.395 70.8735,-696.31 88.1001,-722.15"/>
<polygon fill="black" stroke="black" points="85.2925,-724.248 93.7517,-730.628 91.1168,-720.366 85.2925,-724.248"/>
<text text-anchor="middle" x="52.1888" y="-677.383" font-family="Times,serif" font-size="8.00">1.0</text>
</g>
<!-- 10 -->
<g id="node16" class="node"><title>10</title>
<ellipse fill="none" stroke="black" cx="20" cy="-120" rx="11" ry="11"/>
<text text-anchor="middle" x="20" y="-117.6" font-family="Times,serif" font-size="8.00">10</text>
</g>
<!-- 13 -->
<g id="node17" class="node"><title>13</title>
<ellipse fill="none" stroke="black" cx="200" cy="-160" rx="11" ry="11"/>
<text text-anchor="middle" x="200" y="-157.6" font-family="Times,serif" font-size="8.00">13</text>
</g>
<!-- 10&#45;&gt;13 -->
<g id="edge10" class="edge"><title>10&#45;&gt;13</title>
<path fill="none" stroke="black" d="M30.9888,-122.442C60.3059,-128.957 140.749,-146.833 179.113,-155.359"/>
<polygon fill="black" stroke="black" points="178.634,-158.837 189.155,-157.59 180.152,-152.004 178.634,-158.837"/>
<text text-anchor="middle" x="100.051" y="-140.5" font-family="Times,serif" font-size="8.00">1.0</text>
</g>
<!-- 15 -->
<g id="node20" class="node"><title>15</title>
<ellipse fill="none" stroke="black" cx="160" cy="-240" rx="11" ry="11"/>
<text text-anchor="middle" x="160" y="-237.6" font-family="Times,serif" font-size="8.00">15</text>
</g>
<!-- 13&#45;&gt;15 -->
<g id="edge13" class="edge"><title>13&#45;&gt;15</title>
<path fill="none" stroke="black" d="M194.934,-170.132C188.562,-182.876 177.492,-205.016 169.519,-220.962"/>
<polygon fill="black" stroke="black" points="166.367,-219.441 165.025,-229.95 172.628,-222.571 166.367,-219.441"/>
<text text-anchor="middle" x="177.227" y="-197.147" font-family="Times,serif" font-size="8.00">1.0</text>
</g>
<!-- 11 -->
<g id="node18" class="node"><title>11</title>
<ellipse fill="none" stroke="black" cx="320" cy="-360" rx="11" ry="11"/>
<text text-anchor="middle" x="320" y="-357.6" font-family="Times,serif" font-size="8.00">11</text>
</g>
<!-- 11&#45;&gt;3 -->
<g id="edge11" class="edge"><title>11&#45;&gt;3</title>
<path fill="none" stroke="black" d="M330.193,-364.53C359.153,-377.401 442.28,-414.347 480.433,-431.303"/>
<polygon fill="black" stroke="black" points="479.359,-434.656 489.918,-435.519 482.202,-428.26 479.359,-434.656"/>
<text text-anchor="middle" x="400.313" y="-399.517" font-family="Times,serif" font-size="8.00">1.0</text>
</g>
<!-- 22 -->
<g id="node28" class="node"><title>22</title>
<ellipse fill="none" stroke="black" cx="460" cy="-180" rx="11" ry="11"/>
<text text-anchor="middle" x="460" y="-177.6" font-family="Times,serif" font-size="8.00">22</text>
</g>
<!-- 24&#45;&gt;22 -->
<g id="edge24" class="edge"><title>24&#45;&gt;22</title>
<path fill="none" stroke="black" d="M442.217,-91.0838C445.493,-107.464 451.685,-138.426 455.828,-159.14"/>
<polygon fill="black" stroke="black" points="452.441,-160.051 457.834,-169.17 459.305,-158.678 452.441,-160.051"/>
<text text-anchor="middle" x="444.022" y="-126.712" font-family="Times,serif" font-size="8.00">1.0</text>
</g>
<!-- 15&#45;&gt;11 -->
<g id="edge15" class="edge"><title>15&#45;&gt;11</title>
<path fill="none" stroke="black" d="M169.061,-246.796C194.802,-266.102 268.693,-321.52 302.607,-346.955"/>
<polygon fill="black" stroke="black" points="300.939,-350.079 311.039,-353.279 305.139,-344.479 300.939,-350.079"/>
<text text-anchor="middle" x="230.834" y="-298.475" font-family="Times,serif" font-size="8.00">1.0</text>
</g>
<!-- 14 -->
<g id="node21" class="node"><title>14</title>
<ellipse fill="none" stroke="black" cx="780" cy="-760" rx="11" ry="11"/>
<text text-anchor="middle" x="780" y="-757.6" font-family="Times,serif" font-size="8.00">14</text>
</g>
<!-- 14&#45;&gt;5 -->
<g id="edge14" class="edge"><title>14&#45;&gt;5</title>
<path fill="none" stroke="black" d="M769.011,-758.779C739.833,-755.537 660.012,-746.668 621.435,-742.382"/>
<polygon fill="black" stroke="black" points="621.63,-738.882 611.305,-741.256 620.857,-745.839 621.63,-738.882"/>
<text text-anchor="middle" x="690.223" y="-752.18" font-family="Times,serif" font-size="8.00">1.0</text>
</g>
<!-- 16 -->
<g id="node22" class="node"><title>16</title>
<ellipse fill="none" stroke="black" cx="320" cy="-800" rx="11" ry="11"/>
<text text-anchor="middle" x="320" y="-797.6" font-family="Times,serif" font-size="8.00">16</text>
</g>
<!-- 17 -->
<g id="node23" class="node"><title>17</title>
<ellipse fill="none" stroke="black" cx="440" cy="-580" rx="11" ry="11"/>
<text text-anchor="middle" x="440" y="-577.6" font-family="Times,serif" font-size="8.00">17</text>
</g>
<!-- 16&#45;&gt;17 -->
<g id="edge16" class="edge"><title>16&#45;&gt;17</title>
<path fill="none" stroke="black" d="M325.311,-790.263C343.739,-756.478 405.135,-643.919 429.706,-598.873"/>
<polygon fill="black" stroke="black" points="432.898,-600.329 434.614,-589.874 426.753,-596.977 432.898,-600.329"/>
<text text-anchor="middle" x="372.508" y="-696.168" font-family="Times,serif" font-size="8.00">1.0</text>
</g>
<!-- 17&#45;&gt;1 -->
<g id="edge17" class="edge"><title>17&#45;&gt;1</title>
<path fill="none" stroke="black" d="M429.247,-583.226C397.301,-592.81 302.575,-621.227 260.516,-633.845"/>
<polygon fill="black" stroke="black" points="259.379,-630.532 250.806,-636.758 261.39,-637.237 259.379,-630.532"/>
<text text-anchor="middle" x="339.882" y="-610.135" font-family="Times,serif" font-size="8.00">1.0</text>
</g>
<!-- 26 -->
<g id="node25" class="node"><title>26</title>
<ellipse fill="none" stroke="black" cx="360" cy="-1060" rx="11" ry="11"/>
<text text-anchor="middle" x="360" y="-1057.6" font-family="Times,serif" font-size="8.00">26</text>
</g>
<!-- 18&#45;&gt;26 -->
<g id="edge18" class="edge"><title>18&#45;&gt;26</title>
<path fill="none" stroke="black" d="M529.011,-1041.22C499.833,-1044.46 420.012,-1053.33 381.435,-1057.62"/>
<polygon fill="black" stroke="black" points="380.857,-1054.16 371.305,-1058.74 381.63,-1061.12 380.857,-1054.16"/>
<text text-anchor="middle" x="450.223" y="-1051.02" font-family="Times,serif" font-size="8.00">1.0</text>
</g>
<!-- 26&#45;&gt;16 -->
<g id="edge26" class="edge"><title>26&#45;&gt;16</title>
<path fill="none" stroke="black" d="M358.281,-1048.83C352.165,-1009.07 331.393,-874.056 323.282,-821.336"/>
<polygon fill="black" stroke="black" points="326.692,-820.482 321.712,-811.13 319.774,-821.546 326.692,-820.482"/>
<text text-anchor="middle" x="335.782" y="-936.682" font-family="Times,serif" font-size="8.00">1.0</text>
</g>
<!-- 19 -->
<g id="node26" class="node"><title>19</title>
<ellipse fill="none" stroke="black" cx="560" cy="-140" rx="11" ry="11"/>
<text text-anchor="middle" x="560" y="-137.6" font-family="Times,serif" font-size="8.00">19</text>
</g>
<!-- 19&#45;&gt;8 -->
<g id="edge19" class="edge"><title>19&#45;&gt;8</title>
<path fill="none" stroke="black" d="M570.986,-141.569C594.192,-144.885 648.549,-152.65 678.777,-156.968"/>
<polygon fill="black" stroke="black" points="678.671,-160.488 689.065,-158.438 679.661,-153.559 678.671,-160.488"/>
<text text-anchor="middle" x="619.881" y="-150.869" font-family="Times,serif" font-size="8.00">1.0</text>
</g>
<!-- 28 -->
<g id="node30" class="node"><title>28</title>
<ellipse fill="none" stroke="black" cx="780" cy="-640" rx="11" ry="11"/>
<text text-anchor="middle" x="780" y="-637.6" font-family="Times,serif" font-size="8.00">28</text>
</g>
<!-- 29&#45;&gt;28 -->
<g id="edge29" class="edge"><title>29&#45;&gt;28</title>
<path fill="none" stroke="black" d="M687.192,-528.63C703.769,-548.522 744.885,-597.862 766.394,-623.673"/>
<polygon fill="black" stroke="black" points="763.783,-626.007 772.873,-631.448 769.16,-621.525 763.783,-626.007"/>
<text text-anchor="middle" x="721.793" y="-577.752" font-family="Times,serif" font-size="8.00">1.0</text>
</g>
<!-- 22&#45;&gt;19 -->
<g id="edge22" class="edge"><title>22&#45;&gt;19</title>
<path fill="none" stroke="black" d="M470.325,-175.87C486.718,-169.313 518.99,-156.404 540.017,-147.993"/>
<polygon fill="black" stroke="black" points="541.596,-151.131 549.581,-144.168 538.997,-144.632 541.596,-151.131"/>
<text text-anchor="middle" x="500.171" y="-163.531" font-family="Times,serif" font-size="8.00">1.0</text>
</g>
<!-- 25&#45;&gt;10 -->
<g id="edge25" class="edge"><title>25&#45;&gt;10</title>
<path fill="none" stroke="black" d="M693.27,-1011.09C628.807,-925.774 121.078,-253.779 33.0005,-137.207"/>
<polygon fill="black" stroke="black" points="35.6062,-134.849 26.7853,-128.98 30.0211,-139.069 35.6062,-134.849"/>
<text text-anchor="middle" x="358.135" y="-575.749" font-family="Times,serif" font-size="8.00">1.0</text>
</g>
<!-- 28&#45;&gt;14 -->
<g id="edge28" class="edge"><title>28&#45;&gt;14</title>
<path fill="none" stroke="black" d="M780,-651.074C780,-670.988 780,-713.149 780,-738.784"/>
<polygon fill="black" stroke="black" points="776.5,-738.953 780,-748.953 783.5,-738.953 776.5,-738.953"/>
<text text-anchor="middle" x="775" y="-696.529" font-family="Times,serif" font-size="8.00">1.0</text>
</g>
</g>
</svg>
