<?xml version="1.0" encoding="UTF-8" standalone="no"?>
<!DOCTYPE svg PUBLIC "-//W3C//DTD SVG 1.1//EN"
 "http://www.w3.org/Graphics/SVG/1.1/DTD/svg11.dtd">
<!-- Generated by graphviz version 2.38.0 (20140413.2041)
 -->
<!-- Title: %3 Pages: 1 -->
<svg width="790pt" height="1290pt"
 viewBox="0.00 0.00 790.00 1290.00" xmlns="http://www.w3.org/2000/svg" xmlns:xlink="http://www.w3.org/1999/xlink">
<g id="graph0" class="graph" transform="scale(1 1) rotate(0) translate(-5 1355)">
<title>%3</title>
<polygon fill="white" stroke="none" points="5,-65 5,-1355 795,-1355 795,-65 5,-65"/>
<!-- 1 -->
<g id="node1" class="node"><title>1</title>
<ellipse fill="none" stroke="red" cx="240" cy="-640" rx="11" ry="11"/>
<text text-anchor="middle" x="240" y="-637.6" font-family="Times,serif" font-size="8.00">1</text>
</g>
<!-- 2 -->
<g id="node2" class="node"><title>2</title>
<ellipse fill="none" stroke="black" cx="120" cy="-980" rx="11" ry="11"/>
<text text-anchor="middle" x="120" y="-977.6" font-family="Times,serif" font-size="8.00">2</text>
</g>
<!-- 3 -->
<g id="node3" class="node"><title>3</title>
<ellipse fill="none" stroke="black" cx="500" cy="-440" rx="11" ry="11"/>
<text text-anchor="middle" x="500" y="-437.6" font-family="Times,serif" font-size="8.00">3</text>
</g>
<!-- 4 -->
<g id="node4" class="node"><title>4</title>
<ellipse fill="none" stroke="black" cx="520" cy="-1320" rx="11" ry="11"/>
<text text-anchor="middle" x="520" y="-1317.6" font-family="Times,serif" font-size="8.00">4</text>
</g>
<!-- 5 -->
<g id="node5" class="node"><title>5</title>
<ellipse fill="none" stroke="black" cx="600" cy="-740" rx="11" ry="11"/>
<text text-anchor="middle" x="600" y="-737.6" font-family="Times,serif" font-size="8.00">5</text>
</g>
<!-- 6 -->
<g id="node6" class="node"><title>6</title>
<ellipse fill="none" stroke="black" cx="100" cy="-740" rx="11" ry="11"/>
<text text-anchor="middle" x="100" y="-737.6" font-family="Times,serif" font-size="8.00">6</text>
</g>
<!-- 7 -->
<g id="node7" class="node"><title>7</title>
<ellipse fill="none" stroke="black" cx="80" cy="-1340" rx="11" ry="11"/>
<text text-anchor="middle" x="80" y="-1337.6" font-family="Times,serif" font-size="8.00">7</text>
</g>
<!-- 8 -->
<g id="node8" class="node"><title>8</title>
<ellipse fill="none" stroke="black" cx="700" cy="-160" rx="11" ry="11"/>
<text text-anchor="middle" x="700" y="-157.6" font-family="Times,serif" font-size="8.00">8</text>
</g>
<!-- 9 -->
<g id="node9" class="node"><title>9</title>
<ellipse fill="none" stroke="black" cx="200" cy="-580" rx="11" ry="11"/>
<text text-anchor="middle" x="200" y="-577.6" font-family="Times,serif" font-size="8.00">9</text>
</g>
<!-- 10 -->
<g id="node10" class="node"><title>10</title>
<ellipse fill="none" stroke="black" cx="20" cy="-120" rx="11" ry="11"/>
<text text-anchor="middle" x="20" y="-117.6" font-family="Times,serif" font-size="8.00">10</text>
</g>
<!-- 11 -->
<g id="node11" class="node"><title>11</title>
<ellipse fill="none" stroke="black" cx="320" cy="-360" rx="11" ry="11"/>
<text text-anchor="middle" x="320" y="-357.6" font-family="Times,serif" font-size="8.00">11</text>
</g>
<!-- 12 -->
<g id="node12" class="node"><title>12</title>
<ellipse fill="none" stroke="black" cx="300" cy="-220" rx="11" ry="11"/>
<text text-anchor="middle" x="300" y="-217.6" font-family="Times,serif" font-size="8.00">12</text>
</g>
<!-- 13 -->
<g id="node13" class="node"><title>13</title>
<ellipse fill="none" stroke="black" cx="200" cy="-160" rx="11" ry="11"/>
<text text-anchor="middle" x="200" y="-157.6" font-family="Times,serif" font-size="8.00">13</text>
</g>
<!-- 14 -->
<g id="node14" class="node"><title>14</title>
<ellipse fill="none" stroke="black" cx="780" cy="-760" rx="11" ry="11"/>
<text text-anchor="middle" x="780" y="-757.6" font-family="Times,serif" font-size="8.00">14</text>
</g>
<!-- 15 -->
<g id="node15" class="node"><title>15</title>
<ellipse fill="none" stroke="black" cx="160" cy="-240" rx="11" ry="11"/>
<text text-anchor="middle" x="160" y="-237.6" font-family="Times,serif" font-size="8.00">15</text>
</g>
<!-- 16 -->
<g id="node16" class="node"><title>16</title>
<ellipse fill="none" stroke="black" cx="320" cy="-800" rx="11" ry="11"/>
<text text-anchor="middle" x="320" y="-797.6" font-family="Times,serif" font-size="8.00">16</text>
</g>
<!-- 17 -->
<g id="node17" class="node"><title>17</title>
<ellipse fill="none" stroke="black" cx="440" cy="-580" rx="11" ry="11"/>
<text text-anchor="middle" x="440" y="-577.6" font-family="Times,serif" font-size="8.00">17</text>
</g>
<!-- 18 -->
<g id="node18" class="node"><title>18</title>
<ellipse fill="none" stroke="black" cx="540" cy="-1040" rx="11" ry="11"/>
<text text-anchor="middle" x="540" y="-1037.6" font-family="Times,serif" font-size="8.00">18</text>
</g>
<!-- 19 -->
<g id="node19" class="node"><title>19</title>
<ellipse fill="none" stroke="black" cx="560" cy="-140" rx="11" ry="11"/>
<text text-anchor="middle" x="560" y="-137.6" font-family="Times,serif" font-size="8.00">19</text>
</g>
<!-- 20 -->
<g id="node20" class="node"><title>20</title>
<ellipse fill="none" stroke="black" cx="660" cy="-440" rx="11" ry="11"/>
<text text-anchor="middle" x="660" y="-437.6" font-family="Times,serif" font-size="8.00">20</text>
</g>
<!-- 21 -->
<g id="node21" class="node"><title>21</title>
<ellipse fill="none" stroke="black" cx="280" cy="-1260" rx="11" ry="11"/>
<text text-anchor="middle" x="280" y="-1257.6" font-family="Times,serif" font-size="8.00">21</text>
</g>
<!-- 22 -->
<g id="node22" class="node"><title>22</title>
<ellipse fill="none" stroke="black" cx="460" cy="-180" rx="11" ry="11"/>
<text text-anchor="middle" x="460" y="-177.6" font-family="Times,serif" font-size="8.00">22</text>
</g>
<!-- 23 -->
<g id="node23" class="node"><title>23</title>
<ellipse fill="none" stroke="black" cx="20" cy="-620" rx="11" ry="11"/>
<text text-anchor="middle" x="20" y="-617.6" font-family="Times,serif" font-size="8.00">23</text>
</g>
<!-- 24 -->
<g id="node24" class="node"><title>24</title>
<ellipse fill="none" stroke="black" cx="440" cy="-80" rx="11" ry="11"/>
<text text-anchor="middle" x="440" y="-77.6" font-family="Times,serif" font-size="8.00">24</text>
</g>
<!-- 25 -->
<g id="node25" class="node"><title>25</title>
<ellipse fill="none" stroke="black" cx="700" cy="-1020" rx="11" ry="11"/>
<text text-anchor="middle" x="700" y="-1017.6" font-family="Times,serif" font-size="8.00">25</text>
</g>
<!-- 26 -->
<g id="node26" class="node"><title>26</title>
<ellipse fill="none" stroke="black" cx="360" cy="-1060" rx="11" ry="11"/>
<text text-anchor="middle" x="360" y="-1057.6" font-family="Times,serif" font-size="8.00">26</text>
</g>
<!-- 27 -->
<g id="node27" class="node"><title>27</title>
<ellipse fill="none" stroke="black" cx="760" cy="-1160" rx="11" ry="11"/>
<text text-anchor="middle" x="760" y="-1157.6" font-family="Times,serif" font-size="8.00">27</text>
</g>
<!-- 28 -->
<g id="node28" class="node"><title>28</title>
<ellipse fill="none" stroke="black" cx="780" cy="-640" rx="11" ry="11"/>
<text text-anchor="middle" x="780" y="-637.6" font-family="Times,serif" font-size="8.00">28</text>
</g>
<!-- 29 -->
<g id="node29" class="node"><title>29</title>
<ellipse fill="none" stroke="black" cx="680" cy="-520" rx="11" ry="11"/>
<text text-anchor="middle" x="680" y="-517.6" font-family="Times,serif" font-size="8.00">29</text>
</g>
<!-- 30 -->
<g id="node30" class="node"><title>30</title>
<ellipse fill="none" stroke="black" cx="520" cy="-780" rx="11" ry="11"/>
<text text-anchor="middle" x="520" y="-777.6" font-family="Times,serif" font-size="8.00">30</text>
</g>
</g>
</svg>
