<?xml version="1.0" encoding="UTF-8" standalone="no"?>
<!DOCTYPE svg PUBLIC "-//W3C//DTD SVG 1.1//EN"
 "http://www.w3.org/Graphics/SVG/1.1/DTD/svg11.dtd">
<!-- Generated by graphviz version 2.38.0 (20140413.2041)
 -->
<!-- Title: %3 Pages: 1 -->
<svg width="790pt" height="1290pt"
 viewBox="0.00 0.00 790.00 1290.00" xmlns="http://www.w3.org/2000/svg" xmlns:xlink="http://www.w3.org/1999/xlink">
<g id="graph0" class="graph" transform="scale(1 1) rotate(0) translate(-5 1355)">
<title>%3</title>
<polygon fill="white" stroke="none" points="5,-65 5,-1355 795,-1355 795,-65 5,-65"/>
<!-- 1 -->
<g id="node1" class="node"><title>1</title>
<ellipse fill="lightgrey" stroke="black" cx="240" cy="-640" rx="11" ry="11"/>
<text text-anchor="middle" x="240" y="-637.6" font-family="Times,serif" font-size="8.00">1</text>
</g>
<!-- 9 -->
<g id="node2" class="node"><title>9</title>
<ellipse fill="lightgrey" stroke="black" cx="200" cy="-580" rx="11" ry="11"/>
<text text-anchor="middle" x="200" y="-577.6" font-family="Times,serif" font-size="8.00">9</text>
</g>
<!-- 1&#45;&gt;9 -->
<g id="edge1" class="edge"><title>1&#45;&gt;9</title>
<path fill="none" stroke="red" d="M238.469,-628.97C234.11,-618.811 224.681,-603.908 216.109,-593.156"/>
<polygon fill="red" stroke="red" points="218.736,-590.842 209.533,-585.593 213.453,-595.436 218.736,-590.842"/>
<text text-anchor="middle" x="216.289" y="-612.663" font-family="Times,serif" font-size="8.00">0.6667</text>
</g>
<!-- 17 -->
<g id="node3" class="node"><title>17</title>
<ellipse fill="lightgrey" stroke="black" cx="440" cy="-580" rx="11" ry="11"/>
<text text-anchor="middle" x="440" y="-577.6" font-family="Times,serif" font-size="8.00">17</text>
</g>
<!-- 1&#45;&gt;17 -->
<g id="edge2" class="edge"><title>1&#45;&gt;17</title>
<path fill="none" stroke="red" d="M251.109,-639.994C283.85,-634.725 380.081,-606.23 421.126,-590.11"/>
<polygon fill="red" stroke="red" points="422.624,-593.278 430.512,-586.205 419.935,-586.815 422.624,-593.278"/>
<text text-anchor="middle" x="325.117" y="-616.652" font-family="Times,serif" font-size="8.00">0.3333</text>
</g>
<!-- 9&#45;&gt;1 -->
<g id="edge17" class="edge"><title>9&#45;&gt;1</title>
<path fill="none" stroke="red" d="M201.531,-591.03C205.89,-601.189 215.319,-616.092 223.891,-626.844"/>
<polygon fill="red" stroke="red" points="221.264,-629.158 230.467,-634.407 226.547,-624.564 221.264,-629.158"/>
<text text-anchor="middle" x="201.711" y="-602.537" font-family="Times,serif" font-size="8.00">0.3333</text>
</g>
<!-- 23 -->
<g id="node15" class="node"><title>23</title>
<ellipse fill="lightgrey" stroke="black" cx="20" cy="-620" rx="11" ry="11"/>
<text text-anchor="middle" x="20" y="-617.6" font-family="Times,serif" font-size="8.00">23</text>
</g>
<!-- 9&#45;&gt;23 -->
<g id="edge18" class="edge"><title>9&#45;&gt;23</title>
<path fill="none" stroke="red" d="M188.812,-579.028C158.969,-581.467 77.2641,-599.245 39.5437,-611.065"/>
<polygon fill="red" stroke="red" points="38.1065,-607.856 29.7513,-614.371 40.3455,-614.489 38.1065,-607.856"/>
<text text-anchor="middle" x="103.178" y="-596.647" font-family="Times,serif" font-size="8.00">0.6667</text>
</g>
<!-- 17&#45;&gt;1 -->
<g id="edge31" class="edge"><title>17&#45;&gt;1</title>
<path fill="none" stroke="red" d="M428.891,-580.006C396.15,-585.275 299.919,-613.77 258.874,-629.89"/>
<polygon fill="red" stroke="red" points="257.376,-626.722 249.488,-633.795 260.065,-633.185 257.376,-626.722"/>
<text text-anchor="middle" x="332.883" y="-606.548" font-family="Times,serif" font-size="8.00">0.1667</text>
</g>
<!-- 3 -->
<g id="node7" class="node"><title>3</title>
<ellipse fill="lightgrey" stroke="black" cx="500" cy="-440" rx="11" ry="11"/>
<text text-anchor="middle" x="500" y="-437.6" font-family="Times,serif" font-size="8.00">3</text>
</g>
<!-- 17&#45;&gt;3 -->
<g id="edge32" class="edge"><title>17&#45;&gt;3</title>
<path fill="none" stroke="red" d="M447.462,-571.808C460.683,-550.393 485.9,-492.556 496.213,-461.063"/>
<polygon fill="red" stroke="red" points="499.673,-461.709 499.195,-451.125 492.968,-459.697 499.673,-461.709"/>
<text text-anchor="middle" x="460.837" y="-518.035" font-family="Times,serif" font-size="8.00">0.8333</text>
</g>
<!-- 2 -->
<g id="node4" class="node"><title>2</title>
<ellipse fill="lightgrey" stroke="black" cx="120" cy="-980" rx="11" ry="11"/>
<text text-anchor="middle" x="120" y="-977.6" font-family="Times,serif" font-size="8.00">2</text>
</g>
<!-- 6 -->
<g id="node5" class="node"><title>6</title>
<ellipse fill="lightgrey" stroke="black" cx="100" cy="-740" rx="11" ry="11"/>
<text text-anchor="middle" x="100" y="-737.6" font-family="Times,serif" font-size="8.00">6</text>
</g>
<!-- 2&#45;&gt;6 -->
<g id="edge3" class="edge"><title>2&#45;&gt;6</title>
<path fill="none" stroke="red" d="M122.097,-969.129C123.658,-931.965 113.802,-809.583 105.743,-760.566"/>
<polygon fill="red" stroke="red" points="109.147,-759.725 103.899,-750.522 102.262,-760.989 109.147,-759.725"/>
<text text-anchor="middle" x="102.92" y="-866.448" font-family="Times,serif" font-size="8.00">0.3333</text>
</g>
<!-- 7 -->
<g id="node6" class="node"><title>7</title>
<ellipse fill="lightgrey" stroke="black" cx="80" cy="-1340" rx="11" ry="11"/>
<text text-anchor="middle" x="80" y="-1337.6" font-family="Times,serif" font-size="8.00">7</text>
</g>
<!-- 2&#45;&gt;7 -->
<g id="edge4" class="edge"><title>2&#45;&gt;7</title>
<path fill="none" stroke="red" d="M116.313,-990.497C105.428,-1040.01 81.7393,-1250.56 78.9706,-1318.66"/>
<polygon fill="red" stroke="red" points="75.4633,-1318.91 78.7066,-1328.99 82.461,-1319.08 75.4633,-1318.91"/>
<text text-anchor="middle" x="86.6416" y="-1156.18" font-family="Times,serif" font-size="8.00">0.6667</text>
</g>
<!-- 6&#45;&gt;2 -->
<g id="edge11" class="edge"><title>6&#45;&gt;2</title>
<path fill="none" stroke="red" d="M97.9029,-750.871C96.3418,-788.035 106.198,-910.417 114.257,-959.434"/>
<polygon fill="red" stroke="red" points="110.853,-960.275 116.101,-969.478 117.738,-959.011 110.853,-960.275"/>
<text text-anchor="middle" x="95.08" y="-856.752" font-family="Times,serif" font-size="8.00">0.6667</text>
</g>
<!-- 6&#45;&gt;23 -->
<g id="edge12" class="edge"><title>6&#45;&gt;23</title>
<path fill="none" stroke="red" d="M97.3276,-729.316C87.2449,-707.693 55.3956,-659.187 35.6851,-634.656"/>
<polygon fill="red" stroke="red" points="38.1667,-632.17 29.0353,-626.797 32.8229,-636.692 38.1667,-632.17"/>
<text text-anchor="middle" x="55.5064" y="-683.586" font-family="Times,serif" font-size="8.00">0.3333</text>
</g>
<!-- 7&#45;&gt;2 -->
<g id="edge13" class="edge"><title>7&#45;&gt;2</title>
<path fill="none" stroke="red" d="M83.6874,-1329.5C94.5723,-1279.99 118.261,-1069.44 121.029,-1001.34"/>
<polygon fill="red" stroke="red" points="124.537,-1001.09 121.293,-991.008 117.539,-1000.92 124.537,-1001.09"/>
<text text-anchor="middle" x="91.3584" y="-1167.02" font-family="Times,serif" font-size="8.00">0.3333</text>
</g>
<!-- 21 -->
<g id="node16" class="node"><title>21</title>
<ellipse fill="lightgrey" stroke="black" cx="280" cy="-1260" rx="11" ry="11"/>
<text text-anchor="middle" x="280" y="-1257.6" font-family="Times,serif" font-size="8.00">21</text>
</g>
<!-- 7&#45;&gt;21 -->
<g id="edge14" class="edge"><title>7&#45;&gt;21</title>
<path fill="none" stroke="red" d="M91.0873,-1338.96C124.121,-1330.51 221.811,-1291.81 262.227,-1271.62"/>
<polygon fill="red" stroke="red" points="263.964,-1274.67 271.194,-1266.92 260.713,-1268.47 263.964,-1274.67"/>
<text text-anchor="middle" x="165.657" y="-1306.89" font-family="Times,serif" font-size="8.00">0.6667</text>
</g>
<!-- 3&#45;&gt;17 -->
<g id="edge6" class="edge"><title>3&#45;&gt;17</title>
<path fill="none" stroke="red" d="M492.538,-448.192C479.317,-469.607 454.1,-527.444 443.787,-558.937"/>
<polygon fill="red" stroke="red" points="440.327,-558.291 440.805,-568.875 447.032,-560.303 440.327,-558.291"/>
<text text-anchor="middle" x="457.163" y="-505.165" font-family="Times,serif" font-size="8.00">0.1667</text>
</g>
<!-- 11 -->
<g id="node8" class="node"><title>11</title>
<ellipse fill="none" stroke="black" cx="320" cy="-360" rx="11" ry="11"/>
<text text-anchor="middle" x="320" y="-357.6" font-family="Times,serif" font-size="8.00">11</text>
</g>
<!-- 3&#45;&gt;11 -->
<g id="edge5" class="edge"><title>3&#45;&gt;11</title>
<path fill="none" stroke="red" d="M489.807,-435.47C460.847,-422.599 377.72,-385.653 339.567,-368.697"/>
<polygon fill="red" stroke="red" points="340.641,-365.344 330.082,-364.481 337.798,-371.74 340.641,-365.344"/>
<text text-anchor="middle" x="403.687" y="-403.683" font-family="Times,serif" font-size="8.00">0.8333</text>
</g>
<!-- 15 -->
<g id="node22" class="node"><title>15</title>
<ellipse fill="none" stroke="black" cx="160" cy="-240" rx="11" ry="11"/>
<text text-anchor="middle" x="160" y="-237.6" font-family="Times,serif" font-size="8.00">15</text>
</g>
<!-- 11&#45;&gt;15 -->
<g id="edge20" class="edge"><title>11&#45;&gt;15</title>
<path fill="none" stroke="black" d="M310.939,-353.204C285.198,-333.898 211.307,-278.48 177.393,-253.045"/>
<polygon fill="black" stroke="black" points="179.061,-249.921 168.961,-246.721 174.861,-255.521 179.061,-249.921"/>
<text text-anchor="middle" x="239.166" y="-304.725" font-family="Times,serif" font-size="8.00">1.0</text>
</g>
<!-- 4 -->
<g id="node9" class="node"><title>4</title>
<ellipse fill="lightgrey" stroke="black" cx="520" cy="-1320" rx="11" ry="11"/>
<text text-anchor="middle" x="520" y="-1317.6" font-family="Times,serif" font-size="8.00">4</text>
</g>
<!-- 26 -->
<g id="node10" class="node"><title>26</title>
<ellipse fill="lightgrey" stroke="black" cx="360" cy="-1060" rx="11" ry="11"/>
<text text-anchor="middle" x="360" y="-1057.6" font-family="Times,serif" font-size="8.00">26</text>
</g>
<!-- 4&#45;&gt;26 -->
<g id="edge7" class="edge"><title>4&#45;&gt;26</title>
<path fill="none" stroke="red" d="M514.116,-1310.44C490.493,-1272.05 402.322,-1128.77 371.07,-1077.99"/>
<polygon fill="red" stroke="red" points="373.991,-1076.06 365.769,-1069.37 368.029,-1079.73 373.991,-1076.06"/>
<text text-anchor="middle" x="431.593" y="-1195.81" font-family="Times,serif" font-size="8.00">0.1667</text>
</g>
<!-- 27 -->
<g id="node11" class="node"><title>27</title>
<ellipse fill="lightgrey" stroke="black" cx="760" cy="-1160" rx="11" ry="11"/>
<text text-anchor="middle" x="760" y="-1157.6" font-family="Times,serif" font-size="8.00">27</text>
</g>
<!-- 4&#45;&gt;27 -->
<g id="edge8" class="edge"><title>4&#45;&gt;27</title>
<path fill="none" stroke="red" d="M530.665,-1316.25C569.048,-1296.6 699.513,-1210 744.6,-1174.74"/>
<polygon fill="red" stroke="red" points="746.853,-1177.42 752.426,-1168.41 742.45,-1171.98 746.853,-1177.42"/>
<text text-anchor="middle" x="626.632" y="-1247.09" font-family="Times,serif" font-size="8.00">0.8333</text>
</g>
<!-- 26&#45;&gt;21 -->
<g id="edge54" class="edge"><title>26&#45;&gt;21</title>
<path fill="none" stroke="red" d="M355.811,-1070.47C343.067,-1102.33 304.613,-1198.47 287.899,-1240.25"/>
<polygon fill="red" stroke="red" points="284.611,-1239.05 284.147,-1249.63 291.111,-1241.65 284.611,-1239.05"/>
<text text-anchor="middle" x="310.855" y="-1156.96" font-family="Times,serif" font-size="8.00">0.3333</text>
</g>
<!-- 16 -->
<g id="node27" class="node"><title>16</title>
<ellipse fill="lightgrey" stroke="black" cx="320" cy="-800" rx="11" ry="11"/>
<text text-anchor="middle" x="320" y="-797.6" font-family="Times,serif" font-size="8.00">16</text>
</g>
<!-- 26&#45;&gt;16 -->
<g id="edge52" class="edge"><title>26&#45;&gt;16</title>
<path fill="none" stroke="red" d="M361.223,-1049.05C359.972,-1009.28 339.219,-872.195 327.028,-820.204"/>
<polygon fill="red" stroke="red" points="330.343,-819.039 324.494,-810.206 323.558,-820.759 330.343,-819.039"/>
<text text-anchor="middle" x="333.125" y="-936.226" font-family="Times,serif" font-size="8.00">0.3333</text>
</g>
<!-- 18 -->
<g id="node28" class="node"><title>18</title>
<ellipse fill="lightgrey" stroke="black" cx="540" cy="-1040" rx="11" ry="11"/>
<text text-anchor="middle" x="540" y="-1037.6" font-family="Times,serif" font-size="8.00">18</text>
</g>
<!-- 26&#45;&gt;18 -->
<g id="edge53" class="edge"><title>26&#45;&gt;18</title>
<path fill="none" stroke="red" d="M370.828,-1062.19C400.236,-1063.04 481.901,-1054.34 519.979,-1046.73"/>
<polygon fill="red" stroke="red" points="520.891,-1050.12 529.889,-1044.52 519.367,-1043.29 520.891,-1050.12"/>
<text text-anchor="middle" x="434.404" y="-1056.06" font-family="Times,serif" font-size="8.00">0.3333</text>
</g>
<!-- 27&#45;&gt;4 -->
<g id="edge55" class="edge"><title>27&#45;&gt;4</title>
<path fill="none" stroke="red" d="M749.335,-1163.75C710.952,-1183.4 580.487,-1270 535.4,-1305.26"/>
<polygon fill="red" stroke="red" points="533.147,-1302.58 527.574,-1311.59 537.55,-1308.02 533.147,-1302.58"/>
<text text-anchor="middle" x="631.368" y="-1236.11" font-family="Times,serif" font-size="8.00">0.1667</text>
</g>
<!-- 25 -->
<g id="node25" class="node"><title>25</title>
<ellipse fill="lightgrey" stroke="black" cx="700" cy="-1020" rx="11" ry="11"/>
<text text-anchor="middle" x="700" y="-1017.6" font-family="Times,serif" font-size="8.00">25</text>
</g>
<!-- 27&#45;&gt;25 -->
<g id="edge56" class="edge"><title>27&#45;&gt;25</title>
<path fill="none" stroke="red" d="M759.214,-1148.95C752.825,-1124.6 728.333,-1066.46 712.641,-1037.27"/>
<polygon fill="red" stroke="red" points="715.495,-1035.21 707.501,-1028.26 709.414,-1038.68 715.495,-1035.21"/>
<text text-anchor="middle" x="724.927" y="-1094.71" font-family="Times,serif" font-size="8.00">0.8333</text>
</g>
<!-- 5 -->
<g id="node12" class="node"><title>5</title>
<ellipse fill="lightgrey" stroke="black" cx="600" cy="-740" rx="11" ry="11"/>
<text text-anchor="middle" x="600" y="-737.6" font-family="Times,serif" font-size="8.00">5</text>
</g>
<!-- 14 -->
<g id="node13" class="node"><title>14</title>
<ellipse fill="lightgrey" stroke="black" cx="780" cy="-760" rx="11" ry="11"/>
<text text-anchor="middle" x="780" y="-757.6" font-family="Times,serif" font-size="8.00">14</text>
</g>
<!-- 5&#45;&gt;14 -->
<g id="edge9" class="edge"><title>5&#45;&gt;14</title>
<path fill="none" stroke="red" d="M610.083,-744.517C638.586,-751.803 720.17,-761.239 758.989,-762.175"/>
<polygon fill="red" stroke="red" points="759.136,-765.676 769.142,-762.194 759.149,-758.676 759.136,-765.676"/>
<text text-anchor="middle" x="673.536" y="-754.946" font-family="Times,serif" font-size="8.00">0.1667</text>
</g>
<!-- 30 -->
<g id="node14" class="node"><title>30</title>
<ellipse fill="lightgrey" stroke="black" cx="520" cy="-780" rx="11" ry="11"/>
<text text-anchor="middle" x="520" y="-777.6" font-family="Times,serif" font-size="8.00">30</text>
</g>
<!-- 5&#45;&gt;30 -->
<g id="edge10" class="edge"><title>5&#45;&gt;30</title>
<path fill="none" stroke="red" d="M588.813,-740.569C574.917,-744.725 551.298,-756.061 535.635,-765.735"/>
<polygon fill="red" stroke="red" points="533.436,-762.995 527.07,-771.464 537.328,-768.814 533.436,-762.995"/>
<text text-anchor="middle" x="551.224" y="-754.752" font-family="Times,serif" font-size="8.00">0.8333</text>
</g>
<!-- 14&#45;&gt;5 -->
<g id="edge24" class="edge"><title>14&#45;&gt;5</title>
<path fill="none" stroke="red" d="M769.917,-755.483C741.414,-748.197 659.83,-738.761 621.011,-737.825"/>
<polygon fill="red" stroke="red" points="620.864,-734.324 610.858,-737.806 620.851,-741.324 620.864,-734.324"/>
<text text-anchor="middle" x="684.464" y="-740.254" font-family="Times,serif" font-size="8.00">0.6667</text>
</g>
<!-- 14&#45;&gt;25 -->
<g id="edge25" class="edge"><title>14&#45;&gt;25</title>
<path fill="none" stroke="red" d="M776.765,-770.514C764.73,-809.629 722.412,-947.161 706.296,-999.537"/>
<polygon fill="red" stroke="red" points="702.871,-998.768 703.275,-1009.35 709.562,-1000.83 702.871,-998.768"/>
<text text-anchor="middle" x="730.531" y="-886.626" font-family="Times,serif" font-size="8.00">0.1667</text>
</g>
<!-- 28 -->
<g id="node26" class="node"><title>28</title>
<ellipse fill="lightgrey" stroke="black" cx="780" cy="-640" rx="11" ry="11"/>
<text text-anchor="middle" x="780" y="-637.6" font-family="Times,serif" font-size="8.00">28</text>
</g>
<!-- 14&#45;&gt;28 -->
<g id="edge26" class="edge"><title>14&#45;&gt;28</title>
<path fill="none" stroke="red" d="M784.047,-749.351C787.195,-729.464 787.593,-686.37 785.241,-660.617"/>
<polygon fill="red" stroke="red" points="788.688,-659.963 784.016,-650.454 781.738,-660.801 788.688,-659.963"/>
<text text-anchor="middle" x="773.644" y="-706.584" font-family="Times,serif" font-size="8.00">0.1667</text>
</g>
<!-- 30&#45;&gt;17 -->
<g id="edge63" class="edge"><title>30&#45;&gt;17</title>
<path fill="none" stroke="red" d="M515.811,-769.529C503.067,-737.668 464.613,-641.532 447.899,-599.748"/>
<polygon fill="red" stroke="red" points="451.111,-598.353 444.147,-590.368 444.611,-600.952 451.111,-598.353"/>
<text text-anchor="middle" x="470.855" y="-686.238" font-family="Times,serif" font-size="8.00">0.1667</text>
</g>
<!-- 30&#45;&gt;5 -->
<g id="edge61" class="edge"><title>30&#45;&gt;5</title>
<path fill="none" stroke="red" d="M531.187,-779.431C545.083,-775.275 568.702,-763.939 584.365,-754.265"/>
<polygon fill="red" stroke="red" points="586.564,-757.005 592.93,-748.536 582.672,-751.186 586.564,-757.005"/>
<text text-anchor="middle" x="546.776" y="-768.448" font-family="Times,serif" font-size="8.00">0.1667</text>
</g>
<!-- 30&#45;&gt;16 -->
<g id="edge62" class="edge"><title>30&#45;&gt;16</title>
<path fill="none" stroke="red" d="M508.962,-781.104C476.939,-784.306 383.6,-793.64 341.29,-797.871"/>
<polygon fill="red" stroke="red" points="340.852,-794.397 331.25,-798.875 341.549,-801.362 340.852,-794.397"/>
<text text-anchor="middle" x="414.126" y="-791.087" font-family="Times,serif" font-size="8.00">0.6667</text>
</g>
<!-- 23&#45;&gt;9 -->
<g id="edge46" class="edge"><title>23&#45;&gt;9</title>
<path fill="none" stroke="red" d="M31.1879,-620.972C61.0312,-618.533 142.736,-600.755 180.456,-588.935"/>
<polygon fill="red" stroke="red" points="181.893,-592.144 190.249,-585.629 179.655,-585.511 181.893,-592.144"/>
<text text-anchor="middle" x="94.8221" y="-606.553" font-family="Times,serif" font-size="8.00">0.3333</text>
</g>
<!-- 23&#45;&gt;6 -->
<g id="edge45" class="edge"><title>23&#45;&gt;6</title>
<path fill="none" stroke="red" d="M22.6724,-630.684C32.7551,-652.307 64.6044,-700.813 84.3149,-725.344"/>
<polygon fill="red" stroke="red" points="81.8333,-727.83 90.9647,-733.203 87.1771,-723.308 81.8333,-727.83"/>
<text text-anchor="middle" x="42.4936" y="-671.614" font-family="Times,serif" font-size="8.00">0.6667</text>
</g>
<!-- 21&#45;&gt;7 -->
<g id="edge41" class="edge"><title>21&#45;&gt;7</title>
<path fill="none" stroke="red" d="M268.913,-1261.04C235.879,-1269.49 138.189,-1308.19 97.7726,-1328.38"/>
<polygon fill="red" stroke="red" points="96.0362,-1325.33 88.8055,-1333.08 99.2872,-1331.53 96.0362,-1325.33"/>
<text text-anchor="middle" x="172.343" y="-1296.31" font-family="Times,serif" font-size="8.00">0.3333</text>
</g>
<!-- 21&#45;&gt;4 -->
<g id="edge40" class="edge"><title>21&#45;&gt;4</title>
<path fill="none" stroke="red" d="M290.936,-1262.73C328.192,-1272.05 450.552,-1302.64 499.497,-1314.87"/>
<polygon fill="red" stroke="red" points="498.724,-1318.29 509.274,-1317.32 500.422,-1311.5 498.724,-1318.29"/>
<text text-anchor="middle" x="384.217" y="-1290.4" font-family="Times,serif" font-size="8.00">0.6667</text>
</g>
<!-- 8 -->
<g id="node17" class="node"><title>8</title>
<ellipse fill="lightgrey" stroke="black" cx="700" cy="-160" rx="11" ry="11"/>
<text text-anchor="middle" x="700" y="-157.6" font-family="Times,serif" font-size="8.00">8</text>
</g>
<!-- 19 -->
<g id="node18" class="node"><title>19</title>
<ellipse fill="lightgrey" stroke="black" cx="560" cy="-140" rx="11" ry="11"/>
<text text-anchor="middle" x="560" y="-137.6" font-family="Times,serif" font-size="8.00">19</text>
</g>
<!-- 8&#45;&gt;19 -->
<g id="edge15" class="edge"><title>8&#45;&gt;19</title>
<path fill="none" stroke="red" d="M690.011,-154.761C667.292,-147.933 611.388,-139.566 580.806,-138.017"/>
<polygon fill="red" stroke="red" points="580.876,-134.518 570.792,-137.77 580.703,-141.516 580.876,-134.518"/>
<text text-anchor="middle" x="624.408" y="-139.989" font-family="Times,serif" font-size="8.00">0.1667</text>
</g>
<!-- 20 -->
<g id="node19" class="node"><title>20</title>
<ellipse fill="lightgrey" stroke="black" cx="660" cy="-440" rx="11" ry="11"/>
<text text-anchor="middle" x="660" y="-437.6" font-family="Times,serif" font-size="8.00">20</text>
</g>
<!-- 8&#45;&gt;20 -->
<g id="edge16" class="edge"><title>8&#45;&gt;20</title>
<path fill="none" stroke="red" d="M695.716,-170.239C684.902,-211.035 662.95,-362.453 659.249,-418.747"/>
<polygon fill="red" stroke="red" points="655.743,-418.802 658.754,-428.96 662.735,-419.141 655.743,-418.802"/>
<text text-anchor="middle" x="666.483" y="-296.093" font-family="Times,serif" font-size="8.00">0.8333</text>
</g>
<!-- 19&#45;&gt;8 -->
<g id="edge36" class="edge"><title>19&#45;&gt;8</title>
<path fill="none" stroke="red" d="M569.989,-145.239C592.708,-152.067 648.612,-160.434 679.194,-161.983"/>
<polygon fill="red" stroke="red" points="679.124,-165.482 689.208,-162.23 679.297,-158.484 679.124,-165.482"/>
<text text-anchor="middle" x="613.592" y="-155.211" font-family="Times,serif" font-size="8.00">0.8333</text>
</g>
<!-- 22 -->
<g id="node29" class="node"><title>22</title>
<ellipse fill="lightgrey" stroke="black" cx="460" cy="-180" rx="11" ry="11"/>
<text text-anchor="middle" x="460" y="-177.6" font-family="Times,serif" font-size="8.00">22</text>
</g>
<!-- 19&#45;&gt;22 -->
<g id="edge37" class="edge"><title>19&#45;&gt;22</title>
<path fill="none" stroke="red" d="M548.86,-139.955C531.384,-143.779 497.552,-156.861 477.025,-167.337"/>
<polygon fill="red" stroke="red" points="475.223,-164.333 468.147,-172.218 478.596,-170.467 475.223,-164.333"/>
<text text-anchor="middle" x="501.942" y="-155.246" font-family="Times,serif" font-size="8.00">0.1667</text>
</g>
<!-- 20&#45;&gt;8 -->
<g id="edge38" class="edge"><title>20&#45;&gt;8</title>
<path fill="none" stroke="red" d="M664.284,-429.761C675.098,-388.965 697.05,-237.547 700.751,-181.253"/>
<polygon fill="red" stroke="red" points="704.257,-181.198 701.246,-171.04 697.265,-180.859 704.257,-181.198"/>
<text text-anchor="middle" x="671.517" y="-307.107" font-family="Times,serif" font-size="8.00">0.1667</text>
</g>
<!-- 29 -->
<g id="node30" class="node"><title>29</title>
<ellipse fill="lightgrey" stroke="black" cx="680" cy="-520" rx="11" ry="11"/>
<text text-anchor="middle" x="680" y="-517.6" font-family="Times,serif" font-size="8.00">29</text>
</g>
<!-- 20&#45;&gt;29 -->
<g id="edge39" class="edge"><title>20&#45;&gt;29</title>
<path fill="none" stroke="red" d="M657.976,-450.929C658.854,-463.964 663.891,-485.912 669.289,-501.578"/>
<polygon fill="red" stroke="red" points="666.155,-503.177 673.037,-511.233 672.681,-500.644 666.155,-503.177"/>
<text text-anchor="middle" x="652.632" y="-477.853" font-family="Times,serif" font-size="8.00">0.8333</text>
</g>
<!-- 10 -->
<g id="node20" class="node"><title>10</title>
<ellipse fill="none" stroke="black" cx="20" cy="-120" rx="11" ry="11"/>
<text text-anchor="middle" x="20" y="-117.6" font-family="Times,serif" font-size="8.00">10</text>
</g>
<!-- 13 -->
<g id="node21" class="node"><title>13</title>
<ellipse fill="none" stroke="black" cx="200" cy="-160" rx="11" ry="11"/>
<text text-anchor="middle" x="200" y="-157.6" font-family="Times,serif" font-size="8.00">13</text>
</g>
<!-- 10&#45;&gt;13 -->
<g id="edge19" class="edge"><title>10&#45;&gt;13</title>
<path fill="none" stroke="black" d="M30.9888,-122.442C60.3059,-128.957 140.749,-146.833 179.113,-155.359"/>
<polygon fill="black" stroke="black" points="178.634,-158.837 189.155,-157.59 180.152,-152.004 178.634,-158.837"/>
<text text-anchor="middle" x="100.051" y="-140.5" font-family="Times,serif" font-size="8.00">1.0</text>
</g>
<!-- 12 -->
<g id="node23" class="node"><title>12</title>
<ellipse fill="none" stroke="black" cx="300" cy="-220" rx="11" ry="11"/>
<text text-anchor="middle" x="300" y="-217.6" font-family="Times,serif" font-size="8.00">12</text>
</g>
<!-- 13&#45;&gt;12 -->
<g id="edge23" class="edge"><title>13&#45;&gt;12</title>
<path fill="none" stroke="black" d="M209.588,-165.753C226.122,-175.673 260.262,-196.157 281.535,-208.921"/>
<polygon fill="black" stroke="black" points="279.918,-212.032 290.294,-214.176 283.519,-206.03 279.918,-212.032"/>
<text text-anchor="middle" x="240.562" y="-188.937" font-family="Times,serif" font-size="8.00">1.0</text>
</g>
<!-- 15&#45;&gt;10 -->
<g id="edge27" class="edge"><title>15&#45;&gt;10</title>
<path fill="none" stroke="black" d="M151.242,-232.493C128.25,-212.786 65.8971,-159.34 36.1766,-133.866"/>
<polygon fill="black" stroke="black" points="38.2688,-131.049 28.3984,-127.199 33.7132,-136.364 38.2688,-131.049"/>
<text text-anchor="middle" x="88.7095" y="-184.78" font-family="Times,serif" font-size="8.00">1.0</text>
</g>
<!-- 12&#45;&gt;11 -->
<g id="edge21" class="edge"><title>12&#45;&gt;11</title>
<path fill="none" stroke="red" d="M301.569,-230.986C304.885,-254.192 312.65,-308.549 316.968,-338.777"/>
<polygon fill="red" stroke="red" points="313.559,-339.661 318.438,-349.065 320.488,-338.671 313.559,-339.661"/>
<text text-anchor="middle" x="298.269" y="-286.481" font-family="Times,serif" font-size="8.00">0.1667</text>
</g>
<!-- 24 -->
<g id="node24" class="node"><title>24</title>
<ellipse fill="lightgrey" stroke="black" cx="440" cy="-80" rx="11" ry="11"/>
<text text-anchor="middle" x="440" y="-77.6" font-family="Times,serif" font-size="8.00">24</text>
</g>
<!-- 12&#45;&gt;24 -->
<g id="edge22" class="edge"><title>12&#45;&gt;24</title>
<path fill="none" stroke="red" d="M307.928,-212.072C330.452,-189.548 395.107,-124.893 424.781,-95.2191"/>
<polygon fill="red" stroke="red" points="427.563,-97.3872 432.159,-87.8412 422.613,-92.4374 427.563,-97.3872"/>
<text text-anchor="middle" x="355.354" y="-155.246" font-family="Times,serif" font-size="8.00">0.8333</text>
</g>
<!-- 24&#45;&gt;19 -->
<g id="edge47" class="edge"><title>24&#45;&gt;19</title>
<path fill="none" stroke="red" d="M450.231,-85.1156C470.346,-95.1729 515.314,-117.657 541.018,-130.509"/>
<polygon fill="red" stroke="red" points="539.623,-133.724 550.132,-135.066 542.753,-127.463 539.623,-133.724"/>
<text text-anchor="middle" x="484.624" y="-109.412" font-family="Times,serif" font-size="8.00">0.1667</text>
</g>
<!-- 24&#45;&gt;22 -->
<g id="edge48" class="edge"><title>24&#45;&gt;22</title>
<path fill="none" stroke="red" d="M437.83,-90.7862C438.299,-107.58 444.377,-140.167 450.547,-160.971"/>
<polygon fill="red" stroke="red" points="447.281,-162.241 453.753,-170.629 453.925,-160.036 447.281,-162.241"/>
<text text-anchor="middle" x="433.188" y="-127.478" font-family="Times,serif" font-size="8.00">0.8333</text>
</g>
<!-- 25&#45;&gt;27 -->
<g id="edge51" class="edge"><title>25&#45;&gt;27</title>
<path fill="none" stroke="red" d="M700.786,-1031.05C707.175,-1055.4 731.667,-1113.54 747.359,-1142.73"/>
<polygon fill="red" stroke="red" points="744.505,-1144.79 752.499,-1151.74 750.586,-1141.32 744.505,-1144.79"/>
<text text-anchor="middle" x="713.073" y="-1080.49" font-family="Times,serif" font-size="8.00">0.1667</text>
</g>
<!-- 25&#45;&gt;5 -->
<g id="edge49" class="edge"><title>25&#45;&gt;5</title>
<path fill="none" stroke="red" d="M696.202,-1009.37C681.352,-967.785 627.063,-815.776 607.277,-760.376"/>
<polygon fill="red" stroke="red" points="610.461,-758.885 603.802,-750.645 603.869,-761.24 610.461,-758.885"/>
<text text-anchor="middle" x="640.74" y="-886.471" font-family="Times,serif" font-size="8.00">0.1667</text>
</g>
<!-- 25&#45;&gt;18 -->
<g id="edge50" class="edge"><title>25&#45;&gt;18</title>
<path fill="none" stroke="red" d="M689.003,-1021.37C662.628,-1024.67 595.418,-1033.07 561.002,-1037.37"/>
<polygon fill="red" stroke="red" points="560.563,-1033.9 551.074,-1038.62 561.431,-1040.85 560.563,-1033.9"/>
<text text-anchor="middle" x="614.003" y="-1030.97" font-family="Times,serif" font-size="8.00">0.6667</text>
</g>
<!-- 28&#45;&gt;14 -->
<g id="edge57" class="edge"><title>28&#45;&gt;14</title>
<path fill="none" stroke="red" d="M775.953,-650.649C772.805,-670.536 772.407,-713.63 774.759,-739.383"/>
<polygon fill="red" stroke="red" points="771.312,-740.037 775.984,-749.546 778.262,-739.199 771.312,-740.037"/>
<text text-anchor="middle" x="764.356" y="-696.616" font-family="Times,serif" font-size="8.00">0.8333</text>
</g>
<!-- 28&#45;&gt;29 -->
<g id="edge58" class="edge"><title>28&#45;&gt;29</title>
<path fill="none" stroke="red" d="M775.917,-629.427C762.371,-607.342 720.95,-557.04 697.077,-533.03"/>
<polygon fill="red" stroke="red" points="699.36,-530.369 689.72,-525.974 694.515,-535.422 699.36,-530.369"/>
<text text-anchor="middle" x="725.497" y="-582.828" font-family="Times,serif" font-size="8.00">0.1667</text>
</g>
<!-- 16&#45;&gt;1 -->
<g id="edge28" class="edge"><title>16&#45;&gt;1</title>
<path fill="none" stroke="red" d="M314.996,-789.991C301.92,-763.839 266.564,-693.128 249.486,-658.973"/>
<polygon fill="red" stroke="red" points="252.605,-657.384 245.002,-650.005 246.344,-660.514 252.605,-657.384"/>
<text text-anchor="middle" x="277.241" y="-726.082" font-family="Times,serif" font-size="8.00">0.5</text>
</g>
<!-- 16&#45;&gt;17 -->
<g id="edge29" class="edge"><title>16&#45;&gt;17</title>
<path fill="none" stroke="red" d="M325.311,-790.263C343.739,-756.478 405.135,-643.919 429.706,-598.873"/>
<polygon fill="red" stroke="red" points="432.898,-600.329 434.614,-589.874 426.753,-596.977 432.898,-600.329"/>
<text text-anchor="middle" x="366.508" y="-696.168" font-family="Times,serif" font-size="8.00">0.3333</text>
</g>
<!-- 16&#45;&gt;26 -->
<g id="edge30" class="edge"><title>16&#45;&gt;26</title>
<path fill="none" stroke="red" d="M318.777,-810.951C320.028,-850.715 340.781,-987.805 352.972,-1039.8"/>
<polygon fill="red" stroke="red" points="349.657,-1040.96 355.506,-1049.79 356.442,-1039.24 349.657,-1040.96"/>
<text text-anchor="middle" x="324.875" y="-926.974" font-family="Times,serif" font-size="8.00">0.1667</text>
</g>
<!-- 18&#45;&gt;4 -->
<g id="edge33" class="edge"><title>18&#45;&gt;4</title>
<path fill="none" stroke="red" d="M539.216,-1050.98C536.23,-1092.79 525.533,-1242.54 521.528,-1298.61"/>
<polygon fill="red" stroke="red" points="518.022,-1298.57 520.8,-1308.8 525.004,-1299.07 518.022,-1298.57"/>
<text text-anchor="middle" x="519.372" y="-1176.39" font-family="Times,serif" font-size="8.00">0.1667</text>
</g>
<!-- 18&#45;&gt;26 -->
<g id="edge34" class="edge"><title>18&#45;&gt;26</title>
<path fill="none" stroke="red" d="M529.172,-1037.81C499.764,-1036.96 418.099,-1045.66 380.021,-1053.27"/>
<polygon fill="red" stroke="red" points="379.109,-1049.88 370.111,-1055.48 380.633,-1056.71 379.109,-1049.88"/>
<text text-anchor="middle" x="443.596" y="-1047.14" font-family="Times,serif" font-size="8.00">0.6667</text>
</g>
<!-- 18&#45;&gt;30 -->
<g id="edge35" class="edge"><title>18&#45;&gt;30</title>
<path fill="none" stroke="red" d="M539.141,-1028.83C536.083,-989.075 525.697,-854.056 521.641,-801.336"/>
<polygon fill="red" stroke="red" points="525.113,-800.832 520.856,-791.13 518.134,-801.369 525.113,-800.832"/>
<text text-anchor="middle" x="519.391" y="-916.682" font-family="Times,serif" font-size="8.00">0.1667</text>
</g>
<!-- 22&#45;&gt;3 -->
<g id="edge42" class="edge"><title>22&#45;&gt;3</title>
<path fill="none" stroke="red" d="M461.719,-191.172C467.835,-230.925 488.607,-365.944 496.718,-418.664"/>
<polygon fill="red" stroke="red" points="493.308,-419.518 498.288,-428.87 500.226,-418.454 493.308,-419.518"/>
<text text-anchor="middle" x="468.218" y="-306.518" font-family="Times,serif" font-size="8.00">0.1667</text>
</g>
<!-- 22&#45;&gt;19 -->
<g id="edge43" class="edge"><title>22&#45;&gt;19</title>
<path fill="none" stroke="red" d="M471.14,-180.045C488.616,-176.221 522.448,-163.139 542.975,-152.663"/>
<polygon fill="red" stroke="red" points="544.777,-155.667 551.853,-147.782 541.404,-149.533 544.777,-155.667"/>
<text text-anchor="middle" x="496.058" y="-167.954" font-family="Times,serif" font-size="8.00">0.6667</text>
</g>
<!-- 22&#45;&gt;24 -->
<g id="edge44" class="edge"><title>22&#45;&gt;24</title>
<path fill="none" stroke="red" d="M462.17,-169.214C461.701,-152.42 455.623,-119.833 449.453,-99.0294"/>
<polygon fill="red" stroke="red" points="452.719,-97.7588 446.247,-89.3705 446.075,-99.964 452.719,-97.7588"/>
<text text-anchor="middle" x="444.812" y="-135.722" font-family="Times,serif" font-size="8.00">0.1667</text>
</g>
<!-- 29&#45;&gt;20 -->
<g id="edge59" class="edge"><title>29&#45;&gt;20</title>
<path fill="none" stroke="red" d="M682.024,-509.071C681.146,-496.036 676.109,-474.088 670.711,-458.422"/>
<polygon fill="red" stroke="red" points="673.845,-456.823 666.963,-448.767 667.319,-459.356 673.845,-456.823"/>
<text text-anchor="middle" x="687.368" y="-485.347" font-family="Times,serif" font-size="8.00">0.1667</text>
</g>
<!-- 29&#45;&gt;28 -->
<g id="edge60" class="edge"><title>29&#45;&gt;28</title>
<path fill="none" stroke="red" d="M684.083,-530.573C697.629,-552.658 739.05,-602.96 762.923,-626.97"/>
<polygon fill="red" stroke="red" points="760.64,-629.631 770.28,-634.026 765.485,-624.578 760.64,-629.631"/>
<text text-anchor="middle" x="712.503" y="-572.372" font-family="Times,serif" font-size="8.00">0.8333</text>
</g>
</g>
</svg>
