<?xml version="1.0" encoding="UTF-8" standalone="no"?>
<!DOCTYPE svg PUBLIC "-//W3C//DTD SVG 1.1//EN"
 "http://www.w3.org/Graphics/SVG/1.1/DTD/svg11.dtd">
<!-- Generated by graphviz version 2.38.0 (20140413.2041)
 -->
<!-- Title: %3 Pages: 1 -->
<svg width="1523pt" height="2763pt"
 viewBox="0.00 0.00 1523.00 2763.00" xmlns="http://www.w3.org/2000/svg" xmlns:xlink="http://www.w3.org/1999/xlink">
<g id="graph0" class="graph" transform="scale(1 1) rotate(0) translate(-98.5 2781.5)">
<title>%3</title>
<polygon fill="white" stroke="none" points="98.5,-18.5 98.5,-2781.5 1621.5,-2781.5 1621.5,-18.5 98.5,-18.5"/>
<!-- 1 -->
<g id="node1" class="node"><title>1</title>
<ellipse fill="none" stroke="black" cx="1240" cy="-1200" rx="14.5" ry="14.5"/>
<text text-anchor="middle" x="1240" y="-1197.3" font-family="Times,serif" font-size="9.00">1</text>
</g>
<!-- 2 -->
<g id="node2" class="node"><title>2</title>
<ellipse fill="none" stroke="black" cx="120" cy="-240" rx="14.5" ry="14.5"/>
<text text-anchor="middle" x="120" y="-237.3" font-family="Times,serif" font-size="9.00">2</text>
</g>
<!-- 3 -->
<g id="node3" class="node"><title>3</title>
<ellipse fill="none" stroke="black" cx="1080" cy="-840" rx="14.5" ry="14.5"/>
<text text-anchor="middle" x="1080" y="-837.3" font-family="Times,serif" font-size="9.00">3</text>
</g>
<!-- 4 -->
<g id="node4" class="node"><title>4</title>
<ellipse fill="none" stroke="black" cx="400" cy="-1920" rx="14.5" ry="14.5"/>
<text text-anchor="middle" x="400" y="-1917.3" font-family="Times,serif" font-size="9.00">4</text>
</g>
<!-- 5 -->
<g id="node5" class="node"><title>5</title>
<ellipse fill="none" stroke="black" cx="400" cy="-2640" rx="14.5" ry="14.5"/>
<text text-anchor="middle" x="400" y="-2637.3" font-family="Times,serif" font-size="9.00">5</text>
</g>
<!-- 6 -->
<g id="node6" class="node"><title>6</title>
<ellipse fill="none" stroke="black" cx="720" cy="-1560" rx="14.5" ry="14.5"/>
<text text-anchor="middle" x="720" y="-1557.3" font-family="Times,serif" font-size="9.00">6</text>
</g>
<!-- 7 -->
<g id="node7" class="node"><title>7</title>
<ellipse fill="none" stroke="black" cx="320" cy="-200" rx="14.5" ry="14.5"/>
<text text-anchor="middle" x="320" y="-197.3" font-family="Times,serif" font-size="9.00">7</text>
</g>
<!-- 8 -->
<g id="node8" class="node"><title>8</title>
<ellipse fill="none" stroke="black" cx="960" cy="-1440" rx="14.5" ry="14.5"/>
<text text-anchor="middle" x="960" y="-1437.3" font-family="Times,serif" font-size="9.00">8</text>
</g>
<!-- 9 -->
<g id="node9" class="node"><title>9</title>
<ellipse fill="none" stroke="black" cx="680" cy="-320" rx="14.5" ry="14.5"/>
<text text-anchor="middle" x="680" y="-317.3" font-family="Times,serif" font-size="9.00">9</text>
</g>
<!-- 10 -->
<g id="node10" class="node"><title>10</title>
<ellipse fill="none" stroke="black" cx="120" cy="-1120" rx="17.5" ry="17.5"/>
<text text-anchor="middle" x="120" y="-1117.3" font-family="Times,serif" font-size="9.00">10</text>
</g>
<!-- 11 -->
<g id="node11" class="node"><title>11</title>
<ellipse fill="none" stroke="black" cx="1080" cy="-2640" rx="17.5" ry="17.5"/>
<text text-anchor="middle" x="1080" y="-2637.3" font-family="Times,serif" font-size="9.00">11</text>
</g>
<!-- 12 -->
<g id="node12" class="node"><title>12</title>
<ellipse fill="none" stroke="black" cx="1600" cy="-1400" rx="17.5" ry="17.5"/>
<text text-anchor="middle" x="1600" y="-1397.3" font-family="Times,serif" font-size="9.00">12</text>
</g>
<!-- 13 -->
<g id="node13" class="node"><title>13</title>
<ellipse fill="none" stroke="black" cx="1080" cy="-360" rx="17.5" ry="17.5"/>
<text text-anchor="middle" x="1080" y="-357.3" font-family="Times,serif" font-size="9.00">13</text>
</g>
<!-- 14 -->
<g id="node14" class="node"><title>14</title>
<ellipse fill="none" stroke="black" cx="1400" cy="-1320" rx="17.5" ry="17.5"/>
<text text-anchor="middle" x="1400" y="-1317.3" font-family="Times,serif" font-size="9.00">14</text>
</g>
<!-- 15 -->
<g id="node15" class="node"><title>15</title>
<ellipse fill="none" stroke="black" cx="640" cy="-1680" rx="17.5" ry="17.5"/>
<text text-anchor="middle" x="640" y="-1677.3" font-family="Times,serif" font-size="9.00">15</text>
</g>
<!-- 16 -->
<g id="node16" class="node"><title>16</title>
<ellipse fill="none" stroke="black" cx="1480" cy="-2280" rx="17.5" ry="17.5"/>
<text text-anchor="middle" x="1480" y="-2277.3" font-family="Times,serif" font-size="9.00">16</text>
</g>
<!-- 17 -->
<g id="node17" class="node"><title>17</title>
<ellipse fill="none" stroke="black" cx="360" cy="-1920" rx="17.5" ry="17.5"/>
<text text-anchor="middle" x="360" y="-1917.3" font-family="Times,serif" font-size="9.00">17</text>
</g>
<!-- 18 -->
<g id="node18" class="node"><title>18</title>
<ellipse fill="none" stroke="black" cx="840" cy="-1920" rx="17.5" ry="17.5"/>
<text text-anchor="middle" x="840" y="-1917.3" font-family="Times,serif" font-size="9.00">18</text>
</g>
<!-- 19 -->
<g id="node19" class="node"><title>19</title>
<ellipse fill="none" stroke="black" cx="1320" cy="-320" rx="17.5" ry="17.5"/>
<text text-anchor="middle" x="1320" y="-317.3" font-family="Times,serif" font-size="9.00">19</text>
</g>
<!-- 20 -->
<g id="node20" class="node"><title>20</title>
<ellipse fill="none" stroke="black" cx="1120" cy="-1800" rx="17.5" ry="17.5"/>
<text text-anchor="middle" x="1120" y="-1797.3" font-family="Times,serif" font-size="9.00">20</text>
</g>
<!-- 21 -->
<g id="node21" class="node"><title>21</title>
<ellipse fill="none" stroke="black" cx="880" cy="-1560" rx="17.5" ry="17.5"/>
<text text-anchor="middle" x="880" y="-1557.3" font-family="Times,serif" font-size="9.00">21</text>
</g>
<!-- 22 -->
<g id="node22" class="node"><title>22</title>
<ellipse fill="none" stroke="black" cx="760" cy="-2280" rx="17.5" ry="17.5"/>
<text text-anchor="middle" x="760" y="-2277.3" font-family="Times,serif" font-size="9.00">22</text>
</g>
<!-- 23 -->
<g id="node23" class="node"><title>23</title>
<ellipse fill="none" stroke="black" cx="680" cy="-1840" rx="17.5" ry="17.5"/>
<text text-anchor="middle" x="680" y="-1837.3" font-family="Times,serif" font-size="9.00">23</text>
</g>
<!-- 24 -->
<g id="node24" class="node"><title>24</title>
<ellipse fill="none" stroke="black" cx="240" cy="-40" rx="17.5" ry="17.5"/>
<text text-anchor="middle" x="240" y="-37.3" font-family="Times,serif" font-size="9.00">24</text>
</g>
<!-- 25 -->
<g id="node25" class="node"><title>25</title>
<ellipse fill="none" stroke="black" cx="1600" cy="-2760" rx="17.5" ry="17.5"/>
<text text-anchor="middle" x="1600" y="-2757.3" font-family="Times,serif" font-size="9.00">25</text>
</g>
</g>
</svg>
