<?xml version="1.0" encoding="UTF-8" standalone="no"?>
<!DOCTYPE svg PUBLIC "-//W3C//DTD SVG 1.1//EN"
 "http://www.w3.org/Graphics/SVG/1.1/DTD/svg11.dtd">
<!-- Generated by graphviz version 2.38.0 (20140413.2041)
 -->
<!-- Title: %3 Pages: 1 -->
<svg width="1523pt" height="2763pt"
 viewBox="0.00 0.00 1523.00 2763.00" xmlns="http://www.w3.org/2000/svg" xmlns:xlink="http://www.w3.org/1999/xlink">
<g id="graph0" class="graph" transform="scale(1 1) rotate(0) translate(-98.5 2781.5)">
<title>%3</title>
<polygon fill="white" stroke="none" points="98.5,-18.5 98.5,-2781.5 1621.5,-2781.5 1621.5,-18.5 98.5,-18.5"/>
<!-- 1 -->
<g id="node1" class="node"><title>1</title>
<ellipse fill="none" stroke="black" cx="1240" cy="-1200" rx="14.5" ry="14.5"/>
<text text-anchor="middle" x="1240" y="-1197.3" font-family="Times,serif" font-size="9.00">1</text>
</g>
<!-- 3 -->
<g id="node2" class="node"><title>3</title>
<ellipse fill="none" stroke="black" cx="1080" cy="-840" rx="14.5" ry="14.5"/>
<text text-anchor="middle" x="1080" y="-837.3" font-family="Times,serif" font-size="9.00">3</text>
</g>
<!-- 1&#45;&#45;3 -->
<g id="edge1" class="edge"><title>1&#45;&#45;3</title>
<path fill="none" stroke="black" d="M1233.92,-1186.33C1208.52,-1129.17 1111,-909.752 1085.91,-853.303"/>
<text text-anchor="middle" x="1154.18" y="-1021.35" font-family="Times,serif" font-size="9.00">1.0</text>
</g>
<!-- 8 -->
<g id="node3" class="node"><title>8</title>
<ellipse fill="none" stroke="black" cx="960" cy="-1440" rx="14.5" ry="14.5"/>
<text text-anchor="middle" x="960" y="-1437.3" font-family="Times,serif" font-size="9.00">8</text>
</g>
<!-- 1&#45;&#45;8 -->
<g id="edge2" class="edge"><title>1&#45;&#45;8</title>
<path fill="none" stroke="black" d="M1228.68,-1209.71C1183.46,-1248.47 1016.08,-1391.93 971.157,-1430.44"/>
<text text-anchor="middle" x="1062.68" y="-1321.97" font-family="Times,serif" font-size="9.00">1.000000000000005</text>
</g>
<!-- 14 -->
<g id="node4" class="node"><title>14</title>
<ellipse fill="none" stroke="black" cx="1400" cy="-1320" rx="17.5" ry="17.5"/>
<text text-anchor="middle" x="1400" y="-1317.3" font-family="Times,serif" font-size="9.00">14</text>
</g>
<!-- 1&#45;&#45;14 -->
<g id="edge3" class="edge"><title>1&#45;&#45;14</title>
<path fill="none" stroke="black" d="M1251.77,-1208.82C1280.63,-1230.47 1354.87,-1286.15 1385.97,-1309.48"/>
<text text-anchor="middle" x="1312.4" y="-1260.32" font-family="Times,serif" font-size="9.00">1.0</text>
</g>
<!-- 21 -->
<g id="node11" class="node"><title>21</title>
<ellipse fill="none" stroke="black" cx="880" cy="-1560" rx="17.5" ry="17.5"/>
<text text-anchor="middle" x="880" y="-1557.3" font-family="Times,serif" font-size="9.00">21</text>
</g>
<!-- 8&#45;&#45;21 -->
<g id="edge12" class="edge"><title>8&#45;&#45;21</title>
<path fill="none" stroke="black" d="M951.74,-1452.39C936.889,-1474.67 905.747,-1521.38 889.827,-1545.26"/>
<text text-anchor="middle" x="881.81" y="-1500.02" font-family="Times,serif" font-size="9.00">1.0000000000000004</text>
</g>
<!-- 2 -->
<g id="node5" class="node"><title>2</title>
<ellipse fill="none" stroke="black" cx="120" cy="-240" rx="14.5" ry="14.5"/>
<text text-anchor="middle" x="120" y="-237.3" font-family="Times,serif" font-size="9.00">2</text>
</g>
<!-- 7 -->
<g id="node6" class="node"><title>7</title>
<ellipse fill="none" stroke="black" cx="320" cy="-200" rx="14.5" ry="14.5"/>
<text text-anchor="middle" x="320" y="-197.3" font-family="Times,serif" font-size="9.00">7</text>
</g>
<!-- 2&#45;&#45;7 -->
<g id="edge4" class="edge"><title>2&#45;&#45;7</title>
<path fill="none" stroke="black" d="M134.384,-237.123C171.285,-229.743 268.989,-210.202 305.747,-202.851"/>
<text text-anchor="middle" x="214.494" y="-221.776" font-family="Times,serif" font-size="9.00">1.0</text>
</g>
<!-- 9 -->
<g id="node14" class="node"><title>9</title>
<ellipse fill="none" stroke="black" cx="680" cy="-320" rx="14.5" ry="14.5"/>
<text text-anchor="middle" x="680" y="-317.3" font-family="Times,serif" font-size="9.00">9</text>
</g>
<!-- 7&#45;&#45;9 -->
<g id="edge10" class="edge"><title>7&#45;&#45;9</title>
<path fill="none" stroke="black" d="M334.112,-204.704C391.701,-223.9 608.576,-296.192 665.985,-315.328"/>
<text text-anchor="middle" x="494.491" y="-261.839" font-family="Times,serif" font-size="9.00">1.0</text>
</g>
<!-- 24 -->
<g id="node15" class="node"><title>24</title>
<ellipse fill="none" stroke="black" cx="240" cy="-40" rx="17.5" ry="17.5"/>
<text text-anchor="middle" x="240" y="-37.3" font-family="Times,serif" font-size="9.00">24</text>
</g>
<!-- 7&#45;&#45;24 -->
<g id="edge11" class="edge"><title>7&#45;&#45;24</title>
<path fill="none" stroke="black" d="M313.453,-186.907C298.9,-157.799 263.899,-87.7976 248.045,-56.0902"/>
<text text-anchor="middle" x="275.612" y="-124.273" font-family="Times,serif" font-size="9.00">1.0</text>
</g>
<!-- 4 -->
<g id="node7" class="node"><title>4</title>
<ellipse fill="none" stroke="black" cx="400" cy="-1920" rx="14.5" ry="14.5"/>
<text text-anchor="middle" x="400" y="-1917.3" font-family="Times,serif" font-size="9.00">4</text>
</g>
<!-- 17 -->
<g id="node8" class="node"><title>17</title>
<ellipse fill="none" stroke="black" cx="360" cy="-1920" rx="17.5" ry="17.5"/>
<text text-anchor="middle" x="360" y="-1917.3" font-family="Times,serif" font-size="9.00">17</text>
</g>
<!-- 4&#45;&#45;17 -->
<g id="edge5" class="edge"><title>4&#45;&#45;17</title>
<path fill="none" stroke="black" d="M385.105,-1920C382.707,-1920 380.203,-1920 377.745,-1920"/>
<text text-anchor="middle" x="384.26" y="-1912.8" font-family="Times,serif" font-size="9.00">1.0</text>
</g>
<!-- 23 -->
<g id="node9" class="node"><title>23</title>
<ellipse fill="none" stroke="black" cx="680" cy="-1840" rx="17.5" ry="17.5"/>
<text text-anchor="middle" x="680" y="-1837.3" font-family="Times,serif" font-size="9.00">23</text>
</g>
<!-- 4&#45;&#45;23 -->
<g id="edge6" class="edge"><title>4&#45;&#45;23</title>
<path fill="none" stroke="black" d="M414.27,-1915.92C461.41,-1902.45 612.035,-1859.42 662.977,-1844.86"/>
<text text-anchor="middle" x="497.823" y="-1882.6" font-family="Times,serif" font-size="9.00">0.9999999999999941</text>
</g>
<!-- 5 -->
<g id="node10" class="node"><title>5</title>
<ellipse fill="none" stroke="black" cx="400" cy="-2640" rx="14.5" ry="14.5"/>
<text text-anchor="middle" x="400" y="-2637.3" font-family="Times,serif" font-size="9.00">5</text>
</g>
<!-- 5&#45;&#45;21 -->
<g id="edge7" class="edge"><title>5&#45;&#45;21</title>
<path fill="none" stroke="black" d="M405.896,-2626.73C456.525,-2512.82 817.481,-1700.67 872.874,-1576.03"/>
<text text-anchor="middle" x="631.973" y="-2107.2" font-family="Times,serif" font-size="9.00">1.0</text>
</g>
<!-- 6 -->
<g id="node12" class="node"><title>6</title>
<ellipse fill="none" stroke="black" cx="720" cy="-1560" rx="14.5" ry="14.5"/>
<text text-anchor="middle" x="720" y="-1557.3" font-family="Times,serif" font-size="9.00">6</text>
</g>
<!-- 6&#45;&#45;8 -->
<g id="edge8" class="edge"><title>6&#45;&#45;8</title>
<path fill="none" stroke="black" d="M733.245,-1553.38C775.206,-1532.4 904.892,-1467.55 946.796,-1446.6"/>
<text text-anchor="middle" x="834.417" y="-1501.78" font-family="Times,serif" font-size="9.00">1.0</text>
</g>
<!-- 15 -->
<g id="node13" class="node"><title>15</title>
<ellipse fill="none" stroke="black" cx="640" cy="-1680" rx="17.5" ry="17.5"/>
<text text-anchor="middle" x="640" y="-1677.3" font-family="Times,serif" font-size="9.00">15</text>
</g>
<!-- 6&#45;&#45;15 -->
<g id="edge9" class="edge"><title>6&#45;&#45;15</title>
<path fill="none" stroke="black" d="M711.74,-1572.39C696.889,-1594.67 665.747,-1641.38 649.827,-1665.26"/>
<text text-anchor="middle" x="675.56" y="-1620.02" font-family="Times,serif" font-size="9.00">1.0</text>
</g>
<!-- 15&#45;&#45;23 -->
<g id="edge19" class="edge"><title>15&#45;&#45;23</title>
<path fill="none" stroke="black" d="M644.281,-1697.12C651.98,-1727.92 668.074,-1792.29 675.75,-1823"/>
<text text-anchor="middle" x="654.399" y="-1761.9" font-family="Times,serif" font-size="9.00">1.0</text>
</g>
<!-- 13 -->
<g id="node16" class="node"><title>13</title>
<ellipse fill="none" stroke="black" cx="1080" cy="-360" rx="17.5" ry="17.5"/>
<text text-anchor="middle" x="1080" y="-357.3" font-family="Times,serif" font-size="9.00">13</text>
</g>
<!-- 9&#45;&#45;13 -->
<g id="edge13" class="edge"><title>9&#45;&#45;13</title>
<path fill="none" stroke="black" d="M694.711,-321.471C756.587,-327.659 995.609,-351.561 1062.51,-358.251"/>
<text text-anchor="middle" x="871.101" y="-341.473" font-family="Times,serif" font-size="9.00">1.0</text>
</g>
<!-- 13&#45;&#45;21 -->
<g id="edge18" class="edge"><title>13&#45;&#45;21</title>
<path fill="none" stroke="black" d="M1077.1,-377.426C1054.4,-513.61 905.736,-1405.58 882.933,-1542.4"/>
<text text-anchor="middle" x="940.679" y="-961.476" font-family="Times,serif" font-size="9.00">1.0000000000000249</text>
</g>
<!-- 19 -->
<g id="node20" class="node"><title>19</title>
<ellipse fill="none" stroke="black" cx="1320" cy="-320" rx="17.5" ry="17.5"/>
<text text-anchor="middle" x="1320" y="-317.3" font-family="Times,serif" font-size="9.00">19</text>
</g>
<!-- 13&#45;&#45;19 -->
<g id="edge17" class="edge"><title>13&#45;&#45;19</title>
<path fill="none" stroke="black" d="M1097.65,-357.059C1142.14,-349.643 1258.48,-330.253 1302.65,-322.892"/>
<text text-anchor="middle" x="1194.64" y="-341.755" font-family="Times,serif" font-size="9.00">1.0</text>
</g>
<!-- 10 -->
<g id="node17" class="node"><title>10</title>
<ellipse fill="none" stroke="black" cx="120" cy="-1120" rx="17.5" ry="17.5"/>
<text text-anchor="middle" x="120" y="-1117.3" font-family="Times,serif" font-size="9.00">10</text>
</g>
<!-- 10&#45;&#45;21 -->
<g id="edge14" class="edge"><title>10&#45;&#45;21</title>
<path fill="none" stroke="black" d="M135.181,-1128.79C232.463,-1185.11 767.393,-1494.81 864.783,-1551.19"/>
<text text-anchor="middle" x="494.316" y="-1341.77" font-family="Times,serif" font-size="9.00">1.0</text>
</g>
<!-- 11 -->
<g id="node18" class="node"><title>11</title>
<ellipse fill="none" stroke="black" cx="1080" cy="-2640" rx="17.5" ry="17.5"/>
<text text-anchor="middle" x="1080" y="-2637.3" font-family="Times,serif" font-size="9.00">11</text>
</g>
<!-- 11&#45;&#45;21 -->
<g id="edge15" class="edge"><title>11&#45;&#45;21</title>
<path fill="none" stroke="black" d="M1076.78,-2622.6C1053.14,-2494.94 906.774,-1704.58 883.203,-1577.3"/>
<text text-anchor="middle" x="940.59" y="-2101.61" font-family="Times,serif" font-size="9.00">0.9999999999999833</text>
</g>
<!-- 12 -->
<g id="node19" class="node"><title>12</title>
<ellipse fill="none" stroke="black" cx="1600" cy="-1400" rx="17.5" ry="17.5"/>
<text text-anchor="middle" x="1600" y="-1397.3" font-family="Times,serif" font-size="9.00">12</text>
</g>
<!-- 12&#45;&#45;14 -->
<g id="edge16" class="edge"><title>12&#45;&#45;14</title>
<path fill="none" stroke="black" d="M1583.63,-1393.45C1546.04,-1378.41 1453.86,-1341.54 1416.31,-1326.52"/>
<text text-anchor="middle" x="1494.33" y="-1361.78" font-family="Times,serif" font-size="9.00">1.0</text>
</g>
<!-- 16 -->
<g id="node21" class="node"><title>16</title>
<ellipse fill="none" stroke="black" cx="1480" cy="-2280" rx="17.5" ry="17.5"/>
<text text-anchor="middle" x="1480" y="-2277.3" font-family="Times,serif" font-size="9.00">16</text>
</g>
<!-- 16&#45;&#45;21 -->
<g id="edge20" class="edge"><title>16&#45;&#45;21</title>
<path fill="none" stroke="black" d="M1468.55,-2266.26C1392.97,-2175.57 966.525,-1663.83 891.327,-1573.59"/>
<text text-anchor="middle" x="1140.42" y="-1921.55" font-family="Times,serif" font-size="9.00">1.0000000000000147</text>
</g>
<!-- 25 -->
<g id="node22" class="node"><title>25</title>
<ellipse fill="none" stroke="black" cx="1600" cy="-2760" rx="17.5" ry="17.5"/>
<text text-anchor="middle" x="1600" y="-2757.3" font-family="Times,serif" font-size="9.00">25</text>
</g>
<!-- 16&#45;&#45;25 -->
<g id="edge21" class="edge"><title>16&#45;&#45;25</title>
<path fill="none" stroke="black" d="M1484.27,-2297.08C1502.91,-2371.65 1577.05,-2668.21 1595.72,-2742.87"/>
<text text-anchor="middle" x="1534.36" y="-2521.74" font-family="Times,serif" font-size="9.00">1.0</text>
</g>
<!-- 18 -->
<g id="node23" class="node"><title>18</title>
<ellipse fill="none" stroke="black" cx="840" cy="-1920" rx="17.5" ry="17.5"/>
<text text-anchor="middle" x="840" y="-1917.3" font-family="Times,serif" font-size="9.00">18</text>
</g>
<!-- 18&#45;&#45;23 -->
<g id="edge24" class="edge"><title>18&#45;&#45;23</title>
<path fill="none" stroke="black" d="M824.074,-1912.04C793.405,-1896.7 726.48,-1863.24 695.862,-1847.93"/>
<text text-anchor="middle" x="754.324" y="-1881.77" font-family="Times,serif" font-size="9.00">1.0</text>
</g>
<!-- 20 -->
<g id="node24" class="node"><title>20</title>
<ellipse fill="none" stroke="black" cx="1120" cy="-1800" rx="17.5" ry="17.5"/>
<text text-anchor="middle" x="1120" y="-1797.3" font-family="Times,serif" font-size="9.00">20</text>
</g>
<!-- 18&#45;&#45;20 -->
<g id="edge22" class="edge"><title>18&#45;&#45;20</title>
<path fill="none" stroke="black" d="M856.264,-1913.03C905.752,-1891.82 1054.14,-1828.22 1103.69,-1806.99"/>
<text text-anchor="middle" x="974.33" y="-1861.82" font-family="Times,serif" font-size="9.00">1.0</text>
</g>
<!-- 22 -->
<g id="node25" class="node"><title>22</title>
<ellipse fill="none" stroke="black" cx="760" cy="-2280" rx="17.5" ry="17.5"/>
<text text-anchor="middle" x="760" y="-2277.3" font-family="Times,serif" font-size="9.00">22</text>
</g>
<!-- 18&#45;&#45;22 -->
<g id="edge23" class="edge"><title>18&#45;&#45;22</title>
<path fill="none" stroke="black" d="M836.141,-1937.36C822.596,-1998.32 777.305,-2202.13 763.82,-2262.81"/>
<text text-anchor="middle" x="760.583" y="-2101.99" font-family="Times,serif" font-size="9.00">1.0000000000000064</text>
</g>
</g>
</svg>
